G04 #@! TF.GenerationSoftware,KiCad,Pcbnew,(5.1.2)-2*
G04 #@! TF.CreationDate,2020-09-20T10:45:48+02:00*
G04 #@! TF.ProjectId,FCIII+e5frog134_double_holes_HCT04,46434949-492b-4653-9566-726f67313334,rev?*
G04 #@! TF.SameCoordinates,Original*
G04 #@! TF.FileFunction,Legend,Top*
G04 #@! TF.FilePolarity,Positive*
%FSLAX46Y46*%
G04 Gerber Fmt 4.6, Leading zero omitted, Abs format (unit mm)*
G04 Created by KiCad (PCBNEW (5.1.2)-2) date 2020-09-20 10:45:48*
%MOMM*%
%LPD*%
G04 APERTURE LIST*
%ADD10C,0.350000*%
%ADD11C,0.200000*%
%ADD12C,0.450000*%
%ADD13C,0.300000*%
%ADD14C,0.010000*%
%ADD15C,0.120000*%
%ADD16C,0.127000*%
%ADD17C,0.254000*%
%ADD18C,0.152400*%
%ADD19C,0.141000*%
%ADD20C,0.150000*%
%ADD21C,0.168910*%
%ADD22C,0.120650*%
%ADD23C,0.160000*%
G04 APERTURE END LIST*
D10*
X156192857Y-101978571D02*
X155335714Y-101978571D01*
X155764285Y-101978571D02*
X155764285Y-100478571D01*
X155621428Y-100692857D01*
X155478571Y-100835714D01*
X155335714Y-100907142D01*
X156835714Y-101407142D02*
X157978571Y-101407142D01*
X158621428Y-100621428D02*
X158692857Y-100550000D01*
X158835714Y-100478571D01*
X159192857Y-100478571D01*
X159335714Y-100550000D01*
X159407142Y-100621428D01*
X159478571Y-100764285D01*
X159478571Y-100907142D01*
X159407142Y-101121428D01*
X158550000Y-101978571D01*
X159478571Y-101978571D01*
X161264285Y-101192857D02*
X162407142Y-101192857D01*
X162407142Y-101621428D02*
X161264285Y-101621428D01*
X164192857Y-100621428D02*
X164264285Y-100550000D01*
X164407142Y-100478571D01*
X164764285Y-100478571D01*
X164907142Y-100550000D01*
X164978571Y-100621428D01*
X165050000Y-100764285D01*
X165050000Y-100907142D01*
X164978571Y-101121428D01*
X164121428Y-101978571D01*
X165050000Y-101978571D01*
X165550000Y-100478571D02*
X166550000Y-100478571D01*
X165907142Y-101978571D01*
X167978571Y-101835714D02*
X167907142Y-101907142D01*
X167692857Y-101978571D01*
X167550000Y-101978571D01*
X167335714Y-101907142D01*
X167192857Y-101764285D01*
X167121428Y-101621428D01*
X167050000Y-101335714D01*
X167050000Y-101121428D01*
X167121428Y-100835714D01*
X167192857Y-100692857D01*
X167335714Y-100550000D01*
X167550000Y-100478571D01*
X167692857Y-100478571D01*
X167907142Y-100550000D01*
X167978571Y-100621428D01*
X168835714Y-101121428D02*
X168692857Y-101050000D01*
X168621428Y-100978571D01*
X168550000Y-100835714D01*
X168550000Y-100764285D01*
X168621428Y-100621428D01*
X168692857Y-100550000D01*
X168835714Y-100478571D01*
X169121428Y-100478571D01*
X169264285Y-100550000D01*
X169335714Y-100621428D01*
X169407142Y-100764285D01*
X169407142Y-100835714D01*
X169335714Y-100978571D01*
X169264285Y-101050000D01*
X169121428Y-101121428D01*
X168835714Y-101121428D01*
X168692857Y-101192857D01*
X168621428Y-101264285D01*
X168550000Y-101407142D01*
X168550000Y-101692857D01*
X168621428Y-101835714D01*
X168692857Y-101907142D01*
X168835714Y-101978571D01*
X169121428Y-101978571D01*
X169264285Y-101907142D01*
X169335714Y-101835714D01*
X169407142Y-101692857D01*
X169407142Y-101407142D01*
X169335714Y-101264285D01*
X169264285Y-101192857D01*
X169121428Y-101121428D01*
X170335714Y-100478571D02*
X170478571Y-100478571D01*
X170621428Y-100550000D01*
X170692857Y-100621428D01*
X170764285Y-100764285D01*
X170835714Y-101050000D01*
X170835714Y-101407142D01*
X170764285Y-101692857D01*
X170692857Y-101835714D01*
X170621428Y-101907142D01*
X170478571Y-101978571D01*
X170335714Y-101978571D01*
X170192857Y-101907142D01*
X170121428Y-101835714D01*
X170050000Y-101692857D01*
X169978571Y-101407142D01*
X169978571Y-101050000D01*
X170050000Y-100764285D01*
X170121428Y-100621428D01*
X170192857Y-100550000D01*
X170335714Y-100478571D01*
X172264285Y-101978571D02*
X171407142Y-101978571D01*
X171835714Y-101978571D02*
X171835714Y-100478571D01*
X171692857Y-100692857D01*
X171550000Y-100835714D01*
X171407142Y-100907142D01*
X154621428Y-103221428D02*
X154692857Y-103150000D01*
X154835714Y-103078571D01*
X155192857Y-103078571D01*
X155335714Y-103150000D01*
X155407142Y-103221428D01*
X155478571Y-103364285D01*
X155478571Y-103507142D01*
X155407142Y-103721428D01*
X154550000Y-104578571D01*
X155478571Y-104578571D01*
X156121428Y-104007142D02*
X157264285Y-104007142D01*
X157835714Y-103078571D02*
X158764285Y-103078571D01*
X158264285Y-103650000D01*
X158478571Y-103650000D01*
X158621428Y-103721428D01*
X158692857Y-103792857D01*
X158764285Y-103935714D01*
X158764285Y-104292857D01*
X158692857Y-104435714D01*
X158621428Y-104507142D01*
X158478571Y-104578571D01*
X158050000Y-104578571D01*
X157907142Y-104507142D01*
X157835714Y-104435714D01*
X160550000Y-103792857D02*
X161692857Y-103792857D01*
X161692857Y-104221428D02*
X160550000Y-104221428D01*
X163478571Y-103221428D02*
X163550000Y-103150000D01*
X163692857Y-103078571D01*
X164050000Y-103078571D01*
X164192857Y-103150000D01*
X164264285Y-103221428D01*
X164335714Y-103364285D01*
X164335714Y-103507142D01*
X164264285Y-103721428D01*
X163407142Y-104578571D01*
X164335714Y-104578571D01*
X164835714Y-103078571D02*
X165835714Y-103078571D01*
X165192857Y-104578571D01*
X167264285Y-104435714D02*
X167192857Y-104507142D01*
X166978571Y-104578571D01*
X166835714Y-104578571D01*
X166621428Y-104507142D01*
X166478571Y-104364285D01*
X166407142Y-104221428D01*
X166335714Y-103935714D01*
X166335714Y-103721428D01*
X166407142Y-103435714D01*
X166478571Y-103292857D01*
X166621428Y-103150000D01*
X166835714Y-103078571D01*
X166978571Y-103078571D01*
X167192857Y-103150000D01*
X167264285Y-103221428D01*
X168692857Y-104578571D02*
X167835714Y-104578571D01*
X168264285Y-104578571D02*
X168264285Y-103078571D01*
X168121428Y-103292857D01*
X167978571Y-103435714D01*
X167835714Y-103507142D01*
X169621428Y-103078571D02*
X169764285Y-103078571D01*
X169907142Y-103150000D01*
X169978571Y-103221428D01*
X170050000Y-103364285D01*
X170121428Y-103650000D01*
X170121428Y-104007142D01*
X170050000Y-104292857D01*
X169978571Y-104435714D01*
X169907142Y-104507142D01*
X169764285Y-104578571D01*
X169621428Y-104578571D01*
X169478571Y-104507142D01*
X169407142Y-104435714D01*
X169335714Y-104292857D01*
X169264285Y-104007142D01*
X169264285Y-103650000D01*
X169335714Y-103364285D01*
X169407142Y-103221428D01*
X169478571Y-103150000D01*
X169621428Y-103078571D01*
X171050000Y-103078571D02*
X171192857Y-103078571D01*
X171335714Y-103150000D01*
X171407142Y-103221428D01*
X171478571Y-103364285D01*
X171550000Y-103650000D01*
X171550000Y-104007142D01*
X171478571Y-104292857D01*
X171407142Y-104435714D01*
X171335714Y-104507142D01*
X171192857Y-104578571D01*
X171050000Y-104578571D01*
X170907142Y-104507142D01*
X170835714Y-104435714D01*
X170764285Y-104292857D01*
X170692857Y-104007142D01*
X170692857Y-103650000D01*
X170764285Y-103364285D01*
X170835714Y-103221428D01*
X170907142Y-103150000D01*
X171050000Y-103078571D01*
X172978571Y-104578571D02*
X172121428Y-104578571D01*
X172550000Y-104578571D02*
X172550000Y-103078571D01*
X172407142Y-103292857D01*
X172264285Y-103435714D01*
X172121428Y-103507142D01*
D11*
X137771428Y-102104761D02*
X136628571Y-102104761D01*
X137200000Y-102104761D02*
X137200000Y-100104761D01*
X137009523Y-100390476D01*
X136819047Y-100580952D01*
X136628571Y-100676190D01*
X136628571Y-103495238D02*
X136723809Y-103400000D01*
X136914285Y-103304761D01*
X137390476Y-103304761D01*
X137580952Y-103400000D01*
X137676190Y-103495238D01*
X137771428Y-103685714D01*
X137771428Y-103876190D01*
X137676190Y-104161904D01*
X136533333Y-105304761D01*
X137771428Y-105304761D01*
X136533333Y-106504761D02*
X137771428Y-106504761D01*
X137104761Y-107266666D01*
X137390476Y-107266666D01*
X137580952Y-107361904D01*
X137676190Y-107457142D01*
X137771428Y-107647619D01*
X137771428Y-108123809D01*
X137676190Y-108314285D01*
X137580952Y-108409523D01*
X137390476Y-108504761D01*
X136819047Y-108504761D01*
X136628571Y-108409523D01*
X136533333Y-108314285D01*
X139733333Y-121295238D02*
X139828571Y-121200000D01*
X140019047Y-121104761D01*
X140495238Y-121104761D01*
X140685714Y-121200000D01*
X140780952Y-121295238D01*
X140876190Y-121485714D01*
X140876190Y-121676190D01*
X140780952Y-121961904D01*
X139638095Y-123104761D01*
X140876190Y-123104761D01*
X141542857Y-121104761D02*
X142876190Y-121104761D01*
X142019047Y-123104761D01*
X144780952Y-122914285D02*
X144685714Y-123009523D01*
X144400000Y-123104761D01*
X144209523Y-123104761D01*
X143923809Y-123009523D01*
X143733333Y-122819047D01*
X143638095Y-122628571D01*
X143542857Y-122247619D01*
X143542857Y-121961904D01*
X143638095Y-121580952D01*
X143733333Y-121390476D01*
X143923809Y-121200000D01*
X144209523Y-121104761D01*
X144400000Y-121104761D01*
X144685714Y-121200000D01*
X144780952Y-121295238D01*
X146685714Y-123104761D02*
X145542857Y-123104761D01*
X146114285Y-123104761D02*
X146114285Y-121104761D01*
X145923809Y-121390476D01*
X145733333Y-121580952D01*
X145542857Y-121676190D01*
X147923809Y-121104761D02*
X148114285Y-121104761D01*
X148304761Y-121200000D01*
X148400000Y-121295238D01*
X148495238Y-121485714D01*
X148590476Y-121866666D01*
X148590476Y-122342857D01*
X148495238Y-122723809D01*
X148400000Y-122914285D01*
X148304761Y-123009523D01*
X148114285Y-123104761D01*
X147923809Y-123104761D01*
X147733333Y-123009523D01*
X147638095Y-122914285D01*
X147542857Y-122723809D01*
X147447619Y-122342857D01*
X147447619Y-121866666D01*
X147542857Y-121485714D01*
X147638095Y-121295238D01*
X147733333Y-121200000D01*
X147923809Y-121104761D01*
X149828571Y-121104761D02*
X150019047Y-121104761D01*
X150209523Y-121200000D01*
X150304761Y-121295238D01*
X150400000Y-121485714D01*
X150495238Y-121866666D01*
X150495238Y-122342857D01*
X150400000Y-122723809D01*
X150304761Y-122914285D01*
X150209523Y-123009523D01*
X150019047Y-123104761D01*
X149828571Y-123104761D01*
X149638095Y-123009523D01*
X149542857Y-122914285D01*
X149447619Y-122723809D01*
X149352380Y-122342857D01*
X149352380Y-121866666D01*
X149447619Y-121485714D01*
X149542857Y-121295238D01*
X149638095Y-121200000D01*
X149828571Y-121104761D01*
X152400000Y-123104761D02*
X151257142Y-123104761D01*
X151828571Y-123104761D02*
X151828571Y-121104761D01*
X151638095Y-121390476D01*
X151447619Y-121580952D01*
X151257142Y-121676190D01*
X156209523Y-121009523D02*
X154495238Y-123580952D01*
X158304761Y-121295238D02*
X158400000Y-121200000D01*
X158590476Y-121104761D01*
X159066666Y-121104761D01*
X159257142Y-121200000D01*
X159352380Y-121295238D01*
X159447619Y-121485714D01*
X159447619Y-121676190D01*
X159352380Y-121961904D01*
X158209523Y-123104761D01*
X159447619Y-123104761D01*
X160114285Y-121104761D02*
X161447619Y-121104761D01*
X160590476Y-123104761D01*
X163352380Y-122914285D02*
X163257142Y-123009523D01*
X162971428Y-123104761D01*
X162780952Y-123104761D01*
X162495238Y-123009523D01*
X162304761Y-122819047D01*
X162209523Y-122628571D01*
X162114285Y-122247619D01*
X162114285Y-121961904D01*
X162209523Y-121580952D01*
X162304761Y-121390476D01*
X162495238Y-121200000D01*
X162780952Y-121104761D01*
X162971428Y-121104761D01*
X163257142Y-121200000D01*
X163352380Y-121295238D01*
X164495238Y-121961904D02*
X164304761Y-121866666D01*
X164209523Y-121771428D01*
X164114285Y-121580952D01*
X164114285Y-121485714D01*
X164209523Y-121295238D01*
X164304761Y-121200000D01*
X164495238Y-121104761D01*
X164876190Y-121104761D01*
X165066666Y-121200000D01*
X165161904Y-121295238D01*
X165257142Y-121485714D01*
X165257142Y-121580952D01*
X165161904Y-121771428D01*
X165066666Y-121866666D01*
X164876190Y-121961904D01*
X164495238Y-121961904D01*
X164304761Y-122057142D01*
X164209523Y-122152380D01*
X164114285Y-122342857D01*
X164114285Y-122723809D01*
X164209523Y-122914285D01*
X164304761Y-123009523D01*
X164495238Y-123104761D01*
X164876190Y-123104761D01*
X165066666Y-123009523D01*
X165161904Y-122914285D01*
X165257142Y-122723809D01*
X165257142Y-122342857D01*
X165161904Y-122152380D01*
X165066666Y-122057142D01*
X164876190Y-121961904D01*
X166495238Y-121104761D02*
X166685714Y-121104761D01*
X166876190Y-121200000D01*
X166971428Y-121295238D01*
X167066666Y-121485714D01*
X167161904Y-121866666D01*
X167161904Y-122342857D01*
X167066666Y-122723809D01*
X166971428Y-122914285D01*
X166876190Y-123009523D01*
X166685714Y-123104761D01*
X166495238Y-123104761D01*
X166304761Y-123009523D01*
X166209523Y-122914285D01*
X166114285Y-122723809D01*
X166019047Y-122342857D01*
X166019047Y-121866666D01*
X166114285Y-121485714D01*
X166209523Y-121295238D01*
X166304761Y-121200000D01*
X166495238Y-121104761D01*
X169066666Y-123104761D02*
X167923809Y-123104761D01*
X168495238Y-123104761D02*
X168495238Y-121104761D01*
X168304761Y-121390476D01*
X168114285Y-121580952D01*
X167923809Y-121676190D01*
D12*
X123471428Y-75700000D02*
X124900000Y-75700000D01*
X123185714Y-76557142D02*
X124185714Y-73557142D01*
X125185714Y-76557142D01*
X126042857Y-76414285D02*
X126328571Y-76557142D01*
X126900000Y-76557142D01*
X127185714Y-76414285D01*
X127328571Y-76128571D01*
X127328571Y-75985714D01*
X127185714Y-75700000D01*
X126900000Y-75557142D01*
X126471428Y-75557142D01*
X126185714Y-75414285D01*
X126042857Y-75128571D01*
X126042857Y-74985714D01*
X126185714Y-74700000D01*
X126471428Y-74557142D01*
X126900000Y-74557142D01*
X127185714Y-74700000D01*
X128185714Y-74557142D02*
X129328571Y-74557142D01*
X128614285Y-73557142D02*
X128614285Y-76128571D01*
X128757142Y-76414285D01*
X129042857Y-76557142D01*
X129328571Y-76557142D01*
X131471428Y-76414285D02*
X131185714Y-76557142D01*
X130614285Y-76557142D01*
X130328571Y-76414285D01*
X130185714Y-76128571D01*
X130185714Y-74985714D01*
X130328571Y-74700000D01*
X130614285Y-74557142D01*
X131185714Y-74557142D01*
X131471428Y-74700000D01*
X131614285Y-74985714D01*
X131614285Y-75271428D01*
X130185714Y-75557142D01*
X132900000Y-76557142D02*
X132900000Y-74557142D01*
X132900000Y-75128571D02*
X133042857Y-74842857D01*
X133185714Y-74700000D01*
X133471428Y-74557142D01*
X133757142Y-74557142D01*
X136471428Y-76271428D02*
X136328571Y-76414285D01*
X135900000Y-76557142D01*
X135614285Y-76557142D01*
X135185714Y-76414285D01*
X134900000Y-76128571D01*
X134757142Y-75842857D01*
X134614285Y-75271428D01*
X134614285Y-74842857D01*
X134757142Y-74271428D01*
X134900000Y-73985714D01*
X135185714Y-73700000D01*
X135614285Y-73557142D01*
X135900000Y-73557142D01*
X136328571Y-73700000D01*
X136471428Y-73842857D01*
X139042857Y-76557142D02*
X139042857Y-74985714D01*
X138900000Y-74700000D01*
X138614285Y-74557142D01*
X138042857Y-74557142D01*
X137757142Y-74700000D01*
X139042857Y-76414285D02*
X138757142Y-76557142D01*
X138042857Y-76557142D01*
X137757142Y-76414285D01*
X137614285Y-76128571D01*
X137614285Y-75842857D01*
X137757142Y-75557142D01*
X138042857Y-75414285D01*
X138757142Y-75414285D01*
X139042857Y-75271428D01*
X140471428Y-76557142D02*
X140471428Y-74557142D01*
X140471428Y-75128571D02*
X140614285Y-74842857D01*
X140757142Y-74700000D01*
X141042857Y-74557142D01*
X141328571Y-74557142D01*
X141900000Y-74557142D02*
X143042857Y-74557142D01*
X142328571Y-73557142D02*
X142328571Y-76128571D01*
X142471428Y-76414285D01*
X142757142Y-76557142D01*
X143042857Y-76557142D01*
X146042857Y-74557142D02*
X146757142Y-76557142D01*
X147471428Y-74557142D01*
X150042857Y-73557142D02*
X148614285Y-73557142D01*
X148471428Y-74985714D01*
X148614285Y-74842857D01*
X148900000Y-74700000D01*
X149614285Y-74700000D01*
X149900000Y-74842857D01*
X150042857Y-74985714D01*
X150185714Y-75271428D01*
X150185714Y-75985714D01*
X150042857Y-76271428D01*
X149900000Y-76414285D01*
X149614285Y-76557142D01*
X148900000Y-76557142D01*
X148614285Y-76414285D01*
X148471428Y-76271428D01*
X155471428Y-76557142D02*
X154471428Y-75128571D01*
X153757142Y-76557142D02*
X153757142Y-73557142D01*
X154900000Y-73557142D01*
X155185714Y-73700000D01*
X155328571Y-73842857D01*
X155471428Y-74128571D01*
X155471428Y-74557142D01*
X155328571Y-74842857D01*
X155185714Y-74985714D01*
X154900000Y-75128571D01*
X153757142Y-75128571D01*
X157900000Y-76414285D02*
X157614285Y-76557142D01*
X157042857Y-76557142D01*
X156757142Y-76414285D01*
X156614285Y-76128571D01*
X156614285Y-74985714D01*
X156757142Y-74700000D01*
X157042857Y-74557142D01*
X157614285Y-74557142D01*
X157900000Y-74700000D01*
X158042857Y-74985714D01*
X158042857Y-75271428D01*
X156614285Y-75557142D01*
X159328571Y-74557142D02*
X159328571Y-77557142D01*
X159328571Y-74700000D02*
X159614285Y-74557142D01*
X160185714Y-74557142D01*
X160471428Y-74700000D01*
X160614285Y-74842857D01*
X160757142Y-75128571D01*
X160757142Y-75985714D01*
X160614285Y-76271428D01*
X160471428Y-76414285D01*
X160185714Y-76557142D01*
X159614285Y-76557142D01*
X159328571Y-76414285D01*
X162042857Y-76557142D02*
X162042857Y-74557142D01*
X162042857Y-75128571D02*
X162185714Y-74842857D01*
X162328571Y-74700000D01*
X162614285Y-74557142D01*
X162900000Y-74557142D01*
X164328571Y-76557142D02*
X164042857Y-76414285D01*
X163900000Y-76271428D01*
X163757142Y-75985714D01*
X163757142Y-75128571D01*
X163900000Y-74842857D01*
X164042857Y-74700000D01*
X164328571Y-74557142D01*
X164757142Y-74557142D01*
X165042857Y-74700000D01*
X165185714Y-74842857D01*
X165328571Y-75128571D01*
X165328571Y-75985714D01*
X165185714Y-76271428D01*
X165042857Y-76414285D01*
X164757142Y-76557142D01*
X164328571Y-76557142D01*
D13*
X125009523Y-72104761D02*
X124342857Y-71152380D01*
X123866666Y-72104761D02*
X123866666Y-70104761D01*
X124628571Y-70104761D01*
X124819047Y-70200000D01*
X124914285Y-70295238D01*
X125009523Y-70485714D01*
X125009523Y-70771428D01*
X124914285Y-70961904D01*
X124819047Y-71057142D01*
X124628571Y-71152380D01*
X123866666Y-71152380D01*
X126628571Y-72009523D02*
X126438095Y-72104761D01*
X126057142Y-72104761D01*
X125866666Y-72009523D01*
X125771428Y-71819047D01*
X125771428Y-71057142D01*
X125866666Y-70866666D01*
X126057142Y-70771428D01*
X126438095Y-70771428D01*
X126628571Y-70866666D01*
X126723809Y-71057142D01*
X126723809Y-71247619D01*
X125771428Y-71438095D01*
X127295238Y-70771428D02*
X128057142Y-70771428D01*
X127580952Y-70104761D02*
X127580952Y-71819047D01*
X127676190Y-72009523D01*
X127866666Y-72104761D01*
X128057142Y-72104761D01*
X128723809Y-72104761D02*
X128723809Y-70771428D01*
X128723809Y-71152380D02*
X128819047Y-70961904D01*
X128914285Y-70866666D01*
X129104761Y-70771428D01*
X129295238Y-70771428D01*
X130247619Y-72104761D02*
X130057142Y-72009523D01*
X129961904Y-71914285D01*
X129866666Y-71723809D01*
X129866666Y-71152380D01*
X129961904Y-70961904D01*
X130057142Y-70866666D01*
X130247619Y-70771428D01*
X130533333Y-70771428D01*
X130723809Y-70866666D01*
X130819047Y-70961904D01*
X130914285Y-71152380D01*
X130914285Y-71723809D01*
X130819047Y-71914285D01*
X130723809Y-72009523D01*
X130533333Y-72104761D01*
X130247619Y-72104761D01*
X132438095Y-71057142D02*
X131771428Y-71057142D01*
X131771428Y-72104761D02*
X131771428Y-70104761D01*
X132723809Y-70104761D01*
X133771428Y-72104761D02*
X133580952Y-72009523D01*
X133485714Y-71819047D01*
X133485714Y-70104761D01*
X135295238Y-72009523D02*
X135104761Y-72104761D01*
X134723809Y-72104761D01*
X134533333Y-72009523D01*
X134438095Y-71819047D01*
X134438095Y-71057142D01*
X134533333Y-70866666D01*
X134723809Y-70771428D01*
X135104761Y-70771428D01*
X135295238Y-70866666D01*
X135390476Y-71057142D01*
X135390476Y-71247619D01*
X134438095Y-71438095D01*
X135961904Y-70771428D02*
X136723809Y-70771428D01*
X136247619Y-70104761D02*
X136247619Y-71819047D01*
X136342857Y-72009523D01*
X136533333Y-72104761D01*
X136723809Y-72104761D01*
X138247619Y-72009523D02*
X138057142Y-72104761D01*
X137676190Y-72104761D01*
X137485714Y-72009523D01*
X137390476Y-71914285D01*
X137295238Y-71723809D01*
X137295238Y-71152380D01*
X137390476Y-70961904D01*
X137485714Y-70866666D01*
X137676190Y-70771428D01*
X138057142Y-70771428D01*
X138247619Y-70866666D01*
X139104761Y-72104761D02*
X139104761Y-70104761D01*
X139961904Y-72104761D02*
X139961904Y-71057142D01*
X139866666Y-70866666D01*
X139676190Y-70771428D01*
X139390476Y-70771428D01*
X139200000Y-70866666D01*
X139104761Y-70961904D01*
X141009523Y-70104761D02*
X140819047Y-70485714D01*
X141771428Y-72009523D02*
X141961904Y-72104761D01*
X142342857Y-72104761D01*
X142533333Y-72009523D01*
X142628571Y-71819047D01*
X142628571Y-71723809D01*
X142533333Y-71533333D01*
X142342857Y-71438095D01*
X142057142Y-71438095D01*
X141866666Y-71342857D01*
X141771428Y-71152380D01*
X141771428Y-71057142D01*
X141866666Y-70866666D01*
X142057142Y-70771428D01*
X142342857Y-70771428D01*
X142533333Y-70866666D01*
D14*
G36*
X161140000Y-66476000D02*
G01*
X162156000Y-66476000D01*
X162156000Y-67492000D01*
X163172000Y-67492000D01*
X163172000Y-68508000D01*
X164188000Y-68508000D01*
X164188000Y-71556000D01*
X163172000Y-71556000D01*
X163172000Y-69524000D01*
X162156000Y-69524000D01*
X162156000Y-71556000D01*
X161140000Y-71556000D01*
X161140000Y-70540000D01*
X156060000Y-70540000D01*
X156060000Y-71556000D01*
X155044000Y-71556000D01*
X155044000Y-69524000D01*
X154028000Y-69524000D01*
X154028000Y-71556000D01*
X153012000Y-71556000D01*
X153012000Y-68508000D01*
X154028000Y-68508000D01*
X154028000Y-67492000D01*
X155044000Y-67492000D01*
X156060000Y-67492000D01*
X156060000Y-68508000D01*
X157076000Y-68508000D01*
X157076000Y-67492000D01*
X160124000Y-67492000D01*
X160124000Y-68508000D01*
X161140000Y-68508000D01*
X161140000Y-67492000D01*
X160124000Y-67492000D01*
X157076000Y-67492000D01*
X156060000Y-67492000D01*
X155044000Y-67492000D01*
X155044000Y-66476000D01*
X156060000Y-66476000D01*
X156060000Y-65460000D01*
X157076000Y-65460000D01*
X157076000Y-66476000D01*
X160124000Y-66476000D01*
X160124000Y-65460000D01*
X161140000Y-65460000D01*
X161140000Y-66476000D01*
X161140000Y-66476000D01*
G37*
X161140000Y-66476000D02*
X162156000Y-66476000D01*
X162156000Y-67492000D01*
X163172000Y-67492000D01*
X163172000Y-68508000D01*
X164188000Y-68508000D01*
X164188000Y-71556000D01*
X163172000Y-71556000D01*
X163172000Y-69524000D01*
X162156000Y-69524000D01*
X162156000Y-71556000D01*
X161140000Y-71556000D01*
X161140000Y-70540000D01*
X156060000Y-70540000D01*
X156060000Y-71556000D01*
X155044000Y-71556000D01*
X155044000Y-69524000D01*
X154028000Y-69524000D01*
X154028000Y-71556000D01*
X153012000Y-71556000D01*
X153012000Y-68508000D01*
X154028000Y-68508000D01*
X154028000Y-67492000D01*
X155044000Y-67492000D01*
X156060000Y-67492000D01*
X156060000Y-68508000D01*
X157076000Y-68508000D01*
X157076000Y-67492000D01*
X160124000Y-67492000D01*
X160124000Y-68508000D01*
X161140000Y-68508000D01*
X161140000Y-67492000D01*
X160124000Y-67492000D01*
X157076000Y-67492000D01*
X156060000Y-67492000D01*
X155044000Y-67492000D01*
X155044000Y-66476000D01*
X156060000Y-66476000D01*
X156060000Y-65460000D01*
X157076000Y-65460000D01*
X157076000Y-66476000D01*
X160124000Y-66476000D01*
X160124000Y-65460000D01*
X161140000Y-65460000D01*
X161140000Y-66476000D01*
G36*
X161140000Y-64444000D02*
G01*
X162156000Y-64444000D01*
X162156000Y-65460000D01*
X161140000Y-65460000D01*
X161140000Y-64444000D01*
X161140000Y-64444000D01*
G37*
X161140000Y-64444000D02*
X162156000Y-64444000D01*
X162156000Y-65460000D01*
X161140000Y-65460000D01*
X161140000Y-64444000D01*
G36*
X161140000Y-72572000D02*
G01*
X159108000Y-72572000D01*
X159108000Y-71556000D01*
X161140000Y-71556000D01*
X161140000Y-72572000D01*
X161140000Y-72572000D01*
G37*
X161140000Y-72572000D02*
X159108000Y-72572000D01*
X159108000Y-71556000D01*
X161140000Y-71556000D01*
X161140000Y-72572000D01*
G36*
X155044000Y-65460000D02*
G01*
X155044000Y-64444000D01*
X156060000Y-64444000D01*
X156060000Y-65460000D01*
X155044000Y-65460000D01*
X155044000Y-65460000D01*
G37*
X155044000Y-65460000D02*
X155044000Y-64444000D01*
X156060000Y-64444000D01*
X156060000Y-65460000D01*
X155044000Y-65460000D01*
G36*
X158092000Y-71556000D02*
G01*
X158092000Y-72572000D01*
X156060000Y-72572000D01*
X156060000Y-71556000D01*
X158092000Y-71556000D01*
X158092000Y-71556000D01*
G37*
X158092000Y-71556000D02*
X158092000Y-72572000D01*
X156060000Y-72572000D01*
X156060000Y-71556000D01*
X158092000Y-71556000D01*
D15*
X148170000Y-67855000D02*
X148170000Y-68170000D01*
X148170000Y-65430000D02*
X148170000Y-65745000D01*
X143230000Y-67855000D02*
X143230000Y-68170000D01*
X143230000Y-65430000D02*
X143230000Y-65745000D01*
X143230000Y-68170000D02*
X148170000Y-68170000D01*
X143230000Y-65430000D02*
X148170000Y-65430000D01*
X135880000Y-66800000D02*
X134930000Y-66800000D01*
X130140000Y-66800000D02*
X131090000Y-66800000D01*
X134930000Y-65880000D02*
X131090000Y-65880000D01*
X134930000Y-67720000D02*
X134930000Y-65880000D01*
X131090000Y-67720000D02*
X134930000Y-67720000D01*
X131090000Y-65880000D02*
X131090000Y-67720000D01*
X134870000Y-108070000D02*
X133600000Y-108070000D01*
X134870000Y-106800000D02*
X134870000Y-108070000D01*
X132557071Y-101340000D02*
X132160000Y-101340000D01*
X132557071Y-102100000D02*
X132160000Y-102100000D01*
X123500000Y-101340000D02*
X129500000Y-101340000D01*
X123500000Y-102100000D02*
X123500000Y-101340000D01*
X129500000Y-102100000D02*
X123500000Y-102100000D01*
X132160000Y-102990000D02*
X129500000Y-102990000D01*
X132557071Y-103880000D02*
X132160000Y-103880000D01*
X132557071Y-104640000D02*
X132160000Y-104640000D01*
X123500000Y-103880000D02*
X129500000Y-103880000D01*
X123500000Y-104640000D02*
X123500000Y-103880000D01*
X129500000Y-104640000D02*
X123500000Y-104640000D01*
X132160000Y-105530000D02*
X129500000Y-105530000D01*
X132490000Y-106420000D02*
X132160000Y-106420000D01*
X132490000Y-107180000D02*
X132160000Y-107180000D01*
X129500000Y-106520000D02*
X123500000Y-106520000D01*
X129500000Y-106640000D02*
X123500000Y-106640000D01*
X129500000Y-106760000D02*
X123500000Y-106760000D01*
X129500000Y-106880000D02*
X123500000Y-106880000D01*
X129500000Y-107000000D02*
X123500000Y-107000000D01*
X129500000Y-107120000D02*
X123500000Y-107120000D01*
X123500000Y-106420000D02*
X129500000Y-106420000D01*
X123500000Y-107180000D02*
X123500000Y-106420000D01*
X129500000Y-107180000D02*
X123500000Y-107180000D01*
X129500000Y-108130000D02*
X132160000Y-108130000D01*
X129500000Y-100390000D02*
X129500000Y-108130000D01*
X132160000Y-100390000D02*
X129500000Y-100390000D01*
X132160000Y-108130000D02*
X132160000Y-100390000D01*
D16*
X132245100Y-115104600D02*
X174917100Y-115104600D01*
X132245100Y-115104600D02*
X132245100Y-120438600D01*
X132245100Y-128312600D02*
X174917100Y-128312600D01*
X174917100Y-128312600D02*
X174917100Y-115104600D01*
X132245100Y-122978600D02*
G75*
G03X132245100Y-120438600I0J1270000D01*
G01*
X132245100Y-122978600D02*
X132245100Y-128312600D01*
X148792000Y-83606000D02*
X175208000Y-83606000D01*
X148792000Y-83606000D02*
X148792000Y-85765000D01*
X175208000Y-89194000D02*
X148792000Y-89194000D01*
X175208000Y-89194000D02*
X175208000Y-83606000D01*
X148792000Y-85765000D02*
G75*
G02X148792000Y-87035000I0J-635000D01*
G01*
X148792000Y-87035000D02*
X148792000Y-89194000D01*
X144433000Y-88994000D02*
X144433000Y-83406000D01*
X124367000Y-88994000D02*
X144433000Y-88994000D01*
X124367000Y-83406000D02*
X124367000Y-85565000D01*
X144433000Y-83406000D02*
X124367000Y-83406000D01*
X124367000Y-85565000D02*
G75*
G02X124367000Y-86835000I0J-635000D01*
G01*
X124367000Y-86835000D02*
X124367000Y-88994000D01*
D17*
X122843400Y-68470700D02*
G75*
G03X124000000Y-68832000I1156626J1670700D01*
G01*
X122780800Y-65174400D02*
G75*
G02X124000000Y-64768000I1219200J-1625600D01*
G01*
X124000000Y-68832000D02*
G75*
G03X125219200Y-68425600I0J2032000D01*
G01*
X124000000Y-64768000D02*
G75*
G02X125156600Y-65129300I-26J-2032000D01*
G01*
D16*
X124000000Y-65276000D02*
G75*
G02X124681600Y-65436900I32J-1524000D01*
G01*
X123318400Y-65436900D02*
G75*
G02X124000000Y-65276000I681568J-1363100D01*
G01*
X124000000Y-68324000D02*
G75*
G03X124740100Y-68132200I-48J1524000D01*
G01*
X123369400Y-68187400D02*
G75*
G03X124000000Y-68324000I630632J1387400D01*
G01*
D18*
X166782100Y-66520600D02*
X166782100Y-67028600D01*
X166782100Y-64996600D02*
X166782100Y-63726600D01*
X173640100Y-64996600D02*
X173640100Y-63726600D01*
X173640100Y-66520600D02*
X173640100Y-67028600D01*
X167544100Y-67028600D02*
X166782100Y-67028600D01*
X167544100Y-67028600D02*
X167544100Y-67282600D01*
X168433100Y-67282600D02*
X167544100Y-67282600D01*
X168433100Y-67028600D02*
X168433100Y-67282600D01*
X169449100Y-67028600D02*
X168433100Y-67028600D01*
X169449100Y-67028600D02*
X169449100Y-66774600D01*
X170973100Y-66774600D02*
X169449100Y-66774600D01*
X170973100Y-66774600D02*
X170973100Y-67028600D01*
X172116100Y-67028600D02*
X170973100Y-67028600D01*
X172116100Y-67028600D02*
X172116100Y-67282600D01*
X172878100Y-67282600D02*
X172116100Y-67282600D01*
X172878100Y-67282600D02*
X172878100Y-67028600D01*
X173640100Y-67028600D02*
X172878100Y-67028600D01*
X169576100Y-63726600D02*
X166782100Y-63726600D01*
X169576100Y-63726600D02*
X169576100Y-64742600D01*
X170846100Y-64742600D02*
X169576100Y-64742600D01*
X170846100Y-63726600D02*
X169576100Y-63726600D01*
X170846100Y-63726600D02*
X170846100Y-64742600D01*
X168941100Y-63218600D02*
X167671100Y-63218600D01*
X168941100Y-63218600D02*
X168941100Y-62837600D01*
X171481100Y-62837600D02*
X168941100Y-62837600D01*
X171481100Y-63218600D02*
X168941100Y-63218600D01*
X171481100Y-63218600D02*
X171481100Y-62837600D01*
X167671100Y-63472600D02*
X173894100Y-63472600D01*
X167671100Y-63472600D02*
X167671100Y-63218600D01*
X172751100Y-63218600D02*
X171481100Y-63218600D01*
X172751100Y-63472600D02*
X172751100Y-63218600D01*
X173640100Y-63726600D02*
X170846100Y-63726600D01*
X173894100Y-67028600D02*
X173894100Y-63472600D01*
X166528100Y-63472600D02*
X167671100Y-63472600D01*
X166528100Y-67028600D02*
X166528100Y-63472600D01*
D19*
X144379523Y-67225238D02*
X143842380Y-67225238D01*
X144110952Y-67225238D02*
X144110952Y-66285238D01*
X144021428Y-66419523D01*
X143931904Y-66509047D01*
X143842380Y-66553809D01*
X144961428Y-66285238D02*
X145050952Y-66285238D01*
X145140476Y-66330000D01*
X145185238Y-66374761D01*
X145230000Y-66464285D01*
X145274761Y-66643333D01*
X145274761Y-66867142D01*
X145230000Y-67046190D01*
X145185238Y-67135714D01*
X145140476Y-67180476D01*
X145050952Y-67225238D01*
X144961428Y-67225238D01*
X144871904Y-67180476D01*
X144827142Y-67135714D01*
X144782380Y-67046190D01*
X144737619Y-66867142D01*
X144737619Y-66643333D01*
X144782380Y-66464285D01*
X144827142Y-66374761D01*
X144871904Y-66330000D01*
X144961428Y-66285238D01*
X145856666Y-66285238D02*
X145946190Y-66285238D01*
X146035714Y-66330000D01*
X146080476Y-66374761D01*
X146125238Y-66464285D01*
X146170000Y-66643333D01*
X146170000Y-66867142D01*
X146125238Y-67046190D01*
X146080476Y-67135714D01*
X146035714Y-67180476D01*
X145946190Y-67225238D01*
X145856666Y-67225238D01*
X145767142Y-67180476D01*
X145722380Y-67135714D01*
X145677619Y-67046190D01*
X145632857Y-66867142D01*
X145632857Y-66643333D01*
X145677619Y-66464285D01*
X145722380Y-66374761D01*
X145767142Y-66330000D01*
X145856666Y-66285238D01*
X146572857Y-66598571D02*
X146572857Y-67225238D01*
X146572857Y-66688095D02*
X146617619Y-66643333D01*
X146707142Y-66598571D01*
X146841428Y-66598571D01*
X146930952Y-66643333D01*
X146975714Y-66732857D01*
X146975714Y-67225238D01*
X147289047Y-66598571D02*
X147647142Y-66598571D01*
X147423333Y-67225238D02*
X147423333Y-66419523D01*
X147468095Y-66330000D01*
X147557619Y-66285238D01*
X147647142Y-66285238D01*
D20*
X132295714Y-66252380D02*
X131819523Y-66252380D01*
X131771904Y-66728571D01*
X131819523Y-66680952D01*
X131914761Y-66633333D01*
X132152857Y-66633333D01*
X132248095Y-66680952D01*
X132295714Y-66728571D01*
X132343333Y-66823809D01*
X132343333Y-67061904D01*
X132295714Y-67157142D01*
X132248095Y-67204761D01*
X132152857Y-67252380D01*
X131914761Y-67252380D01*
X131819523Y-67204761D01*
X131771904Y-67157142D01*
X133200476Y-66252380D02*
X133010000Y-66252380D01*
X132914761Y-66300000D01*
X132867142Y-66347619D01*
X132771904Y-66490476D01*
X132724285Y-66680952D01*
X132724285Y-67061904D01*
X132771904Y-67157142D01*
X132819523Y-67204761D01*
X132914761Y-67252380D01*
X133105238Y-67252380D01*
X133200476Y-67204761D01*
X133248095Y-67157142D01*
X133295714Y-67061904D01*
X133295714Y-66823809D01*
X133248095Y-66728571D01*
X133200476Y-66680952D01*
X133105238Y-66633333D01*
X132914761Y-66633333D01*
X132819523Y-66680952D01*
X132771904Y-66728571D01*
X132724285Y-66823809D01*
X133914761Y-66252380D02*
X134010000Y-66252380D01*
X134105238Y-66300000D01*
X134152857Y-66347619D01*
X134200476Y-66442857D01*
X134248095Y-66633333D01*
X134248095Y-66871428D01*
X134200476Y-67061904D01*
X134152857Y-67157142D01*
X134105238Y-67204761D01*
X134010000Y-67252380D01*
X133914761Y-67252380D01*
X133819523Y-67204761D01*
X133771904Y-67157142D01*
X133724285Y-67061904D01*
X133676666Y-66871428D01*
X133676666Y-66633333D01*
X133724285Y-66442857D01*
X133771904Y-66347619D01*
X133819523Y-66300000D01*
X133914761Y-66252380D01*
D16*
X173208647Y-116592011D02*
X173208647Y-117281440D01*
X173208647Y-116936726D02*
X172002147Y-116936726D01*
X172174504Y-117051630D01*
X172289409Y-117166535D01*
X172346861Y-117281440D01*
X172002147Y-116189845D02*
X172002147Y-115385511D01*
X173208647Y-115902583D01*
X173208647Y-126726611D02*
X173208647Y-127416040D01*
X173208647Y-127071326D02*
X172002147Y-127071326D01*
X172174504Y-127186230D01*
X172289409Y-127301135D01*
X172346861Y-127416040D01*
X172002147Y-125692469D02*
X172002147Y-125922278D01*
X172059600Y-126037183D01*
X172117052Y-126094635D01*
X172289409Y-126209540D01*
X172519219Y-126266992D01*
X172978838Y-126266992D01*
X173093742Y-126209540D01*
X173151195Y-126152088D01*
X173208647Y-126037183D01*
X173208647Y-125807373D01*
X173151195Y-125692469D01*
X173093742Y-125635016D01*
X172978838Y-125577564D01*
X172691576Y-125577564D01*
X172576671Y-125635016D01*
X172519219Y-125692469D01*
X172461766Y-125807373D01*
X172461766Y-126037183D01*
X172519219Y-126152088D01*
X172576671Y-126209540D01*
X172691576Y-126266992D01*
X133902147Y-117288092D02*
X133902147Y-116541211D01*
X134361766Y-116943378D01*
X134361766Y-116771021D01*
X134419219Y-116656116D01*
X134476671Y-116598664D01*
X134591576Y-116541211D01*
X134878838Y-116541211D01*
X134993742Y-116598664D01*
X135051195Y-116656116D01*
X135108647Y-116771021D01*
X135108647Y-117115735D01*
X135051195Y-117230640D01*
X134993742Y-117288092D01*
X134017052Y-116081592D02*
X133959600Y-116024140D01*
X133902147Y-115909235D01*
X133902147Y-115621973D01*
X133959600Y-115507069D01*
X134017052Y-115449616D01*
X134131957Y-115392164D01*
X134246861Y-115392164D01*
X134419219Y-115449616D01*
X135108647Y-116139045D01*
X135108647Y-115392164D01*
X135108647Y-126726611D02*
X135108647Y-127416040D01*
X135108647Y-127071326D02*
X133902147Y-127071326D01*
X134074504Y-127186230D01*
X134189409Y-127301135D01*
X134246861Y-127416040D01*
D21*
X157551091Y-85630466D02*
X158677158Y-85630466D01*
X157953258Y-87319566D01*
X160044524Y-86193500D02*
X160044524Y-87319566D01*
X159642358Y-85550033D02*
X159240191Y-86756533D01*
X160285824Y-86756533D01*
X161733624Y-87319566D02*
X160929291Y-87319566D01*
X160929291Y-85630466D01*
X162216224Y-87239133D02*
X162457524Y-87319566D01*
X162859691Y-87319566D01*
X163020558Y-87239133D01*
X163100991Y-87158700D01*
X163181424Y-86997833D01*
X163181424Y-86836966D01*
X163100991Y-86676100D01*
X163020558Y-86595666D01*
X162859691Y-86515233D01*
X162537958Y-86434800D01*
X162377091Y-86354366D01*
X162296658Y-86273933D01*
X162216224Y-86113066D01*
X162216224Y-85952200D01*
X162296658Y-85791333D01*
X162377091Y-85710900D01*
X162537958Y-85630466D01*
X162940124Y-85630466D01*
X163181424Y-85710900D01*
X163824891Y-85791333D02*
X163905324Y-85710900D01*
X164066191Y-85630466D01*
X164468358Y-85630466D01*
X164629224Y-85710900D01*
X164709658Y-85791333D01*
X164790091Y-85952200D01*
X164790091Y-86113066D01*
X164709658Y-86354366D01*
X163744458Y-87319566D01*
X164790091Y-87319566D01*
X165353124Y-85630466D02*
X166479191Y-85630466D01*
X165755291Y-87319566D01*
X166961791Y-85630466D02*
X168007424Y-85630466D01*
X167444391Y-86273933D01*
X167685691Y-86273933D01*
X167846558Y-86354366D01*
X167926991Y-86434800D01*
X168007424Y-86595666D01*
X168007424Y-86997833D01*
X167926991Y-87158700D01*
X167846558Y-87239133D01*
X167685691Y-87319566D01*
X167203091Y-87319566D01*
X167042224Y-87239133D01*
X166961791Y-87158700D01*
D18*
X173483098Y-88552347D02*
X172793669Y-88552347D01*
X173138383Y-88552347D02*
X173138383Y-87345847D01*
X173023479Y-87518204D01*
X172908574Y-87633109D01*
X172793669Y-87690561D01*
X174229979Y-87345847D02*
X174344883Y-87345847D01*
X174459788Y-87403300D01*
X174517240Y-87460752D01*
X174574693Y-87575657D01*
X174632145Y-87805466D01*
X174632145Y-88092728D01*
X174574693Y-88322538D01*
X174517240Y-88437442D01*
X174459788Y-88494895D01*
X174344883Y-88552347D01*
X174229979Y-88552347D01*
X174115074Y-88494895D01*
X174057621Y-88437442D01*
X174000169Y-88322538D01*
X173942717Y-88092728D01*
X173942717Y-87805466D01*
X174000169Y-87575657D01*
X174057621Y-87460752D01*
X174115074Y-87403300D01*
X174229979Y-87345847D01*
X173610098Y-85377347D02*
X172920669Y-85377347D01*
X173265383Y-85377347D02*
X173265383Y-84170847D01*
X173150479Y-84343204D01*
X173035574Y-84458109D01*
X172920669Y-84515561D01*
X174759145Y-85377347D02*
X174069717Y-85377347D01*
X174414431Y-85377347D02*
X174414431Y-84170847D01*
X174299526Y-84343204D01*
X174184621Y-84458109D01*
X174069717Y-84515561D01*
X150086069Y-84285752D02*
X150143521Y-84228300D01*
X150258426Y-84170847D01*
X150545688Y-84170847D01*
X150660593Y-84228300D01*
X150718045Y-84285752D01*
X150775498Y-84400657D01*
X150775498Y-84515561D01*
X150718045Y-84687919D01*
X150028617Y-85377347D01*
X150775498Y-85377347D01*
X151522379Y-84170847D02*
X151637283Y-84170847D01*
X151752188Y-84228300D01*
X151809640Y-84285752D01*
X151867093Y-84400657D01*
X151924545Y-84630466D01*
X151924545Y-84917728D01*
X151867093Y-85147538D01*
X151809640Y-85262442D01*
X151752188Y-85319895D01*
X151637283Y-85377347D01*
X151522379Y-85377347D01*
X151407474Y-85319895D01*
X151350021Y-85262442D01*
X151292569Y-85147538D01*
X151235117Y-84917728D01*
X151235117Y-84630466D01*
X151292569Y-84400657D01*
X151350021Y-84285752D01*
X151407474Y-84228300D01*
X151522379Y-84170847D01*
X151283498Y-88552347D02*
X150594069Y-88552347D01*
X150938783Y-88552347D02*
X150938783Y-87345847D01*
X150823879Y-87518204D01*
X150708974Y-87633109D01*
X150594069Y-87690561D01*
D21*
X129751091Y-85430466D02*
X130877158Y-85430466D01*
X130153258Y-87119566D01*
X132244524Y-85993500D02*
X132244524Y-87119566D01*
X131842358Y-85350033D02*
X131440191Y-86556533D01*
X132485824Y-86556533D01*
X133933624Y-87119566D02*
X133129291Y-87119566D01*
X133129291Y-85430466D01*
X134416224Y-87039133D02*
X134657524Y-87119566D01*
X135059691Y-87119566D01*
X135220558Y-87039133D01*
X135300991Y-86958700D01*
X135381424Y-86797833D01*
X135381424Y-86636966D01*
X135300991Y-86476100D01*
X135220558Y-86395666D01*
X135059691Y-86315233D01*
X134737958Y-86234800D01*
X134577091Y-86154366D01*
X134496658Y-86073933D01*
X134416224Y-85913066D01*
X134416224Y-85752200D01*
X134496658Y-85591333D01*
X134577091Y-85510900D01*
X134737958Y-85430466D01*
X135140124Y-85430466D01*
X135381424Y-85510900D01*
X136427058Y-85430466D02*
X136587924Y-85430466D01*
X136748791Y-85510900D01*
X136829224Y-85591333D01*
X136909658Y-85752200D01*
X136990091Y-86073933D01*
X136990091Y-86476100D01*
X136909658Y-86797833D01*
X136829224Y-86958700D01*
X136748791Y-87039133D01*
X136587924Y-87119566D01*
X136427058Y-87119566D01*
X136266191Y-87039133D01*
X136185758Y-86958700D01*
X136105324Y-86797833D01*
X136024891Y-86476100D01*
X136024891Y-86073933D01*
X136105324Y-85752200D01*
X136185758Y-85591333D01*
X136266191Y-85510900D01*
X136427058Y-85430466D01*
X137633558Y-85591333D02*
X137713991Y-85510900D01*
X137874858Y-85430466D01*
X138277024Y-85430466D01*
X138437891Y-85510900D01*
X138518324Y-85591333D01*
X138598758Y-85752200D01*
X138598758Y-85913066D01*
X138518324Y-86154366D01*
X137553124Y-87119566D01*
X138598758Y-87119566D01*
D16*
X142231969Y-84513319D02*
X142117064Y-84455866D01*
X142059611Y-84398414D01*
X142002159Y-84283509D01*
X142002159Y-84226057D01*
X142059611Y-84111152D01*
X142117064Y-84053700D01*
X142231969Y-83996247D01*
X142461778Y-83996247D01*
X142576683Y-84053700D01*
X142634135Y-84111152D01*
X142691588Y-84226057D01*
X142691588Y-84283509D01*
X142634135Y-84398414D01*
X142576683Y-84455866D01*
X142461778Y-84513319D01*
X142231969Y-84513319D01*
X142117064Y-84570771D01*
X142059611Y-84628223D01*
X142002159Y-84743128D01*
X142002159Y-84972938D01*
X142059611Y-85087842D01*
X142117064Y-85145295D01*
X142231969Y-85202747D01*
X142461778Y-85202747D01*
X142576683Y-85145295D01*
X142634135Y-85087842D01*
X142691588Y-84972938D01*
X142691588Y-84743128D01*
X142634135Y-84628223D01*
X142576683Y-84570771D01*
X142461778Y-84513319D01*
X141944707Y-87323647D02*
X142749040Y-87323647D01*
X142231969Y-88530147D01*
X126765788Y-85024947D02*
X126076359Y-85024947D01*
X126421073Y-85024947D02*
X126421073Y-83818447D01*
X126306169Y-83990804D01*
X126191264Y-84105709D01*
X126076359Y-84163161D01*
X127799930Y-84220614D02*
X127799930Y-85024947D01*
X127512669Y-83760995D02*
X127225407Y-84622780D01*
X127972288Y-84622780D01*
X127476988Y-88530147D02*
X126787559Y-88530147D01*
X127132273Y-88530147D02*
X127132273Y-87323647D01*
X127017369Y-87496004D01*
X126902464Y-87610909D01*
X126787559Y-87668361D01*
D20*
D22*
X126315077Y-66682928D02*
X127234315Y-66682928D01*
X126774696Y-67142547D02*
X126774696Y-66223309D01*
D23*
X174393523Y-134752380D02*
X174465904Y-134680000D01*
X174610666Y-134607619D01*
X174972571Y-134607619D01*
X175117333Y-134680000D01*
X175189714Y-134752380D01*
X175262095Y-134897142D01*
X175262095Y-135041904D01*
X175189714Y-135259047D01*
X174321142Y-136127619D01*
X175262095Y-136127619D01*
X175841142Y-134752380D02*
X175913523Y-134680000D01*
X176058285Y-134607619D01*
X176420190Y-134607619D01*
X176564952Y-134680000D01*
X176637333Y-134752380D01*
X176709714Y-134897142D01*
X176709714Y-135041904D01*
X176637333Y-135259047D01*
X175768761Y-136127619D01*
X176709714Y-136127619D01*
X123385695Y-135401219D02*
X122517123Y-135401219D01*
X122951409Y-135401219D02*
X122951409Y-133881219D01*
X122806647Y-134098361D01*
X122661885Y-134243123D01*
X122517123Y-134315504D01*
D20*
X168588214Y-70952380D02*
X168254880Y-70476190D01*
X168016785Y-70952380D02*
X168016785Y-69952380D01*
X168397738Y-69952380D01*
X168492976Y-70000000D01*
X168540595Y-70047619D01*
X168588214Y-70142857D01*
X168588214Y-70285714D01*
X168540595Y-70380952D01*
X168492976Y-70428571D01*
X168397738Y-70476190D01*
X168016785Y-70476190D01*
X169016785Y-70428571D02*
X169350119Y-70428571D01*
X169492976Y-70952380D02*
X169016785Y-70952380D01*
X169016785Y-69952380D01*
X169492976Y-69952380D01*
X169873928Y-70904761D02*
X170016785Y-70952380D01*
X170254880Y-70952380D01*
X170350119Y-70904761D01*
X170397738Y-70857142D01*
X170445357Y-70761904D01*
X170445357Y-70666666D01*
X170397738Y-70571428D01*
X170350119Y-70523809D01*
X170254880Y-70476190D01*
X170064404Y-70428571D01*
X169969166Y-70380952D01*
X169921547Y-70333333D01*
X169873928Y-70238095D01*
X169873928Y-70142857D01*
X169921547Y-70047619D01*
X169969166Y-70000000D01*
X170064404Y-69952380D01*
X170302500Y-69952380D01*
X170445357Y-70000000D01*
X170873928Y-70428571D02*
X171207261Y-70428571D01*
X171350119Y-70952380D02*
X170873928Y-70952380D01*
X170873928Y-69952380D01*
X171350119Y-69952380D01*
X171635833Y-69952380D02*
X172207261Y-69952380D01*
X171921547Y-70952380D02*
X171921547Y-69952380D01*
M02*
