M48
; DRILL file {KiCad (5.1.2)-2} date 20/09/2020 10:45:58
; FORMAT={-:-/ absolute / metric / decimal}
; #@! TF.CreationDate,2020-09-20T10:45:58+02:00
; #@! TF.GenerationSoftware,Kicad,Pcbnew,(5.1.2)-2
; #@! TF.FileFunction,Plated,1,2,PTH
FMAT,2
METRIC
T1C0.400
T2C0.700
T3C0.800
T4C0.813
T5C1.000
T6C1.016
T7C1.499
%
G90
G05
T1
X121.8Y-134.0
X125.702Y-87.898
X126.4Y-131.0
X128.8Y-131.0
X134.0Y-92.6
X139.4Y-92.6
X142.2Y-133.4
X143.6Y-98.2
X143.8Y-108.6
X144.6Y-134.6
X147.2Y-136.2
X148.3Y-88.3
X148.4Y-109.8
X161.2Y-111.4
X162.471Y-106.271
X162.8Y-88.4
X165.0Y-107.8
X166.0Y-93.4
X166.089Y-111.711
X169.014Y-93.414
X169.014Y-111.786
X170.6Y-110.8
X171.8Y-106.2
X172.2Y-97.2
X175.2Y-134.0
X175.8Y-109.8
T2
X129.2Y-66.8
X136.82Y-66.8
T3
X122.8Y-106.8
X143.2Y-66.8
X148.2Y-66.8
T4
X122.73Y-66.8
X125.27Y-66.8
X126.78Y-82.39
X126.78Y-90.01
X129.32Y-82.39
X129.32Y-90.01
X131.86Y-82.39
X131.86Y-90.01
X134.4Y-82.39
X134.4Y-90.01
X136.94Y-82.39
X136.94Y-90.01
X139.48Y-82.39
X139.48Y-90.01
X142.02Y-82.39
X142.02Y-90.01
X134.531Y-114.089
X134.531Y-129.329
X137.071Y-114.089
X137.071Y-129.329
X139.611Y-114.089
X139.611Y-129.329
X142.151Y-114.089
X142.151Y-129.329
X144.691Y-114.089
X144.691Y-129.329
X147.231Y-114.089
X147.231Y-129.329
X149.771Y-114.089
X149.771Y-129.329
X152.311Y-114.089
X152.311Y-129.329
X154.851Y-114.089
X154.851Y-129.329
X157.391Y-114.089
X157.391Y-129.329
X159.931Y-114.089
X159.931Y-129.329
X162.471Y-114.089
X162.471Y-129.329
X165.011Y-114.089
X165.011Y-129.329
X167.551Y-114.089
X167.551Y-129.329
X170.091Y-114.089
X170.091Y-129.329
X172.631Y-114.089
X172.631Y-129.329
X150.57Y-82.59
X150.57Y-90.21
X153.11Y-82.59
X153.11Y-90.21
X155.65Y-82.59
X155.65Y-90.21
X158.19Y-82.59
X158.19Y-90.21
X160.73Y-82.59
X160.73Y-90.21
X163.27Y-82.59
X163.27Y-90.21
X165.81Y-82.59
X165.81Y-90.21
X168.35Y-82.59
X168.35Y-90.21
X170.89Y-82.59
X170.89Y-90.21
X173.43Y-82.59
X173.43Y-90.21
T5
X133.6Y-101.72
X133.6Y-104.26
X133.6Y-106.8
T6
X167.951Y-65.784
X172.472Y-65.784
T7
X166.706Y-68.273
X173.716Y-68.273
T0
M30
