G04 #@! TF.GenerationSoftware,KiCad,Pcbnew,(5.1.2)-2*
G04 #@! TF.CreationDate,2020-09-20T10:45:48+02:00*
G04 #@! TF.ProjectId,FCIII+e5frog134_double_holes_HCT04,46434949-492b-4653-9566-726f67313334,rev?*
G04 #@! TF.SameCoordinates,Original*
G04 #@! TF.FileFunction,Copper,L2,Bot*
G04 #@! TF.FilePolarity,Positive*
%FSLAX46Y46*%
G04 Gerber Fmt 4.6, Leading zero omitted, Abs format (unit mm)*
G04 Created by KiCad (PCBNEW (5.1.2)-2) date 2020-09-20 10:45:48*
%MOMM*%
%LPD*%
G04 APERTURE LIST*
%ADD10C,1.600000*%
%ADD11O,1.400000X1.400000*%
%ADD12C,1.400000*%
%ADD13O,1.700000X1.700000*%
%ADD14R,1.700000X1.700000*%
%ADD15C,1.600200*%
%ADD16O,1.422400X2.844800*%
%ADD17C,0.100000*%
%ADD18C,1.900000*%
%ADD19C,2.159000*%
%ADD20C,1.524000*%
%ADD21C,0.800000*%
%ADD22C,0.250000*%
%ADD23C,0.406400*%
%ADD24C,0.500000*%
G04 APERTURE END LIST*
D10*
X148200000Y-66800000D03*
X143200000Y-66800000D03*
D11*
X136820000Y-66800000D03*
D12*
X129200000Y-66800000D03*
D13*
X133600000Y-101720000D03*
X133600000Y-104260000D03*
D14*
X133600000Y-106800000D03*
D15*
X134531100Y-114088600D03*
X137071100Y-114088600D03*
X139611100Y-114088600D03*
X142151100Y-114088600D03*
X144691100Y-114088600D03*
X147231100Y-114088600D03*
X149771100Y-114088600D03*
X152311100Y-114088600D03*
X154851100Y-114088600D03*
X157391100Y-114088600D03*
X159931100Y-114088600D03*
X162471100Y-114088600D03*
X165011100Y-114088600D03*
X167551100Y-114088600D03*
X170091100Y-114088600D03*
X172631100Y-114088600D03*
X172631100Y-129328600D03*
X170091100Y-129328600D03*
X167551100Y-129328600D03*
X165011100Y-129328600D03*
X162471100Y-129328600D03*
X159931100Y-129328600D03*
X157391100Y-129328600D03*
X154851100Y-129328600D03*
X152311100Y-129328600D03*
X149771100Y-129328600D03*
X147231100Y-129328600D03*
X144691100Y-129328600D03*
X142151100Y-129328600D03*
X139611100Y-129328600D03*
X137071100Y-129328600D03*
X134531100Y-129328600D03*
X150570000Y-82590000D03*
X153110000Y-82590000D03*
X155650000Y-82590000D03*
X158190000Y-82590000D03*
X160730000Y-82590000D03*
X163270000Y-82590000D03*
X165810000Y-82590000D03*
X168350000Y-82590000D03*
X170890000Y-82590000D03*
X173430000Y-82590000D03*
X173430000Y-90210000D03*
X170890000Y-90210000D03*
X168350000Y-90210000D03*
X165810000Y-90210000D03*
X163270000Y-90210000D03*
X160730000Y-90210000D03*
X158190000Y-90210000D03*
X155650000Y-90210000D03*
X153110000Y-90210000D03*
X150570000Y-90210000D03*
X126780000Y-82390000D03*
X129320000Y-82390000D03*
X131860000Y-82390000D03*
X134400000Y-82390000D03*
X136940000Y-82390000D03*
X139480000Y-82390000D03*
X142020000Y-82390000D03*
X142020000Y-90010000D03*
X139480000Y-90010000D03*
X136940000Y-90010000D03*
X134400000Y-90010000D03*
X131860000Y-90010000D03*
X129320000Y-90010000D03*
X126780000Y-90010000D03*
D16*
X122730000Y-66800000D03*
X125270000Y-66800000D03*
D17*
G36*
X122355158Y-137975887D02*
G01*
X122401268Y-137982727D01*
X122446485Y-137994053D01*
X122490375Y-138009757D01*
X122532513Y-138029687D01*
X122572496Y-138053652D01*
X122609937Y-138081420D01*
X122644476Y-138112724D01*
X122675780Y-138147263D01*
X122703548Y-138184704D01*
X122727513Y-138224687D01*
X122747443Y-138266825D01*
X122763147Y-138310715D01*
X122774473Y-138355932D01*
X122781313Y-138402042D01*
X122783600Y-138448600D01*
X122783600Y-145998600D01*
X122781313Y-146045158D01*
X122774473Y-146091268D01*
X122763147Y-146136485D01*
X122747443Y-146180375D01*
X122727513Y-146222513D01*
X122703548Y-146262496D01*
X122675780Y-146299937D01*
X122644476Y-146334476D01*
X122609937Y-146365780D01*
X122572496Y-146393548D01*
X122532513Y-146417513D01*
X122490375Y-146437443D01*
X122446485Y-146453147D01*
X122401268Y-146464473D01*
X122355158Y-146471313D01*
X122308600Y-146473600D01*
X121358600Y-146473600D01*
X121312042Y-146471313D01*
X121265932Y-146464473D01*
X121220715Y-146453147D01*
X121176825Y-146437443D01*
X121134687Y-146417513D01*
X121094704Y-146393548D01*
X121057263Y-146365780D01*
X121022724Y-146334476D01*
X120991420Y-146299937D01*
X120963652Y-146262496D01*
X120939687Y-146222513D01*
X120919757Y-146180375D01*
X120904053Y-146136485D01*
X120892727Y-146091268D01*
X120885887Y-146045158D01*
X120883600Y-145998600D01*
X120883600Y-138448600D01*
X120885887Y-138402042D01*
X120892727Y-138355932D01*
X120904053Y-138310715D01*
X120919757Y-138266825D01*
X120939687Y-138224687D01*
X120963652Y-138184704D01*
X120991420Y-138147263D01*
X121022724Y-138112724D01*
X121057263Y-138081420D01*
X121094704Y-138053652D01*
X121134687Y-138029687D01*
X121176825Y-138009757D01*
X121220715Y-137994053D01*
X121265932Y-137982727D01*
X121312042Y-137975887D01*
X121358600Y-137973600D01*
X122308600Y-137973600D01*
X122355158Y-137975887D01*
X122355158Y-137975887D01*
G37*
D18*
X121833600Y-142223600D03*
D17*
G36*
X124895158Y-137975887D02*
G01*
X124941268Y-137982727D01*
X124986485Y-137994053D01*
X125030375Y-138009757D01*
X125072513Y-138029687D01*
X125112496Y-138053652D01*
X125149937Y-138081420D01*
X125184476Y-138112724D01*
X125215780Y-138147263D01*
X125243548Y-138184704D01*
X125267513Y-138224687D01*
X125287443Y-138266825D01*
X125303147Y-138310715D01*
X125314473Y-138355932D01*
X125321313Y-138402042D01*
X125323600Y-138448600D01*
X125323600Y-145998600D01*
X125321313Y-146045158D01*
X125314473Y-146091268D01*
X125303147Y-146136485D01*
X125287443Y-146180375D01*
X125267513Y-146222513D01*
X125243548Y-146262496D01*
X125215780Y-146299937D01*
X125184476Y-146334476D01*
X125149937Y-146365780D01*
X125112496Y-146393548D01*
X125072513Y-146417513D01*
X125030375Y-146437443D01*
X124986485Y-146453147D01*
X124941268Y-146464473D01*
X124895158Y-146471313D01*
X124848600Y-146473600D01*
X123898600Y-146473600D01*
X123852042Y-146471313D01*
X123805932Y-146464473D01*
X123760715Y-146453147D01*
X123716825Y-146437443D01*
X123674687Y-146417513D01*
X123634704Y-146393548D01*
X123597263Y-146365780D01*
X123562724Y-146334476D01*
X123531420Y-146299937D01*
X123503652Y-146262496D01*
X123479687Y-146222513D01*
X123459757Y-146180375D01*
X123444053Y-146136485D01*
X123432727Y-146091268D01*
X123425887Y-146045158D01*
X123423600Y-145998600D01*
X123423600Y-138448600D01*
X123425887Y-138402042D01*
X123432727Y-138355932D01*
X123444053Y-138310715D01*
X123459757Y-138266825D01*
X123479687Y-138224687D01*
X123503652Y-138184704D01*
X123531420Y-138147263D01*
X123562724Y-138112724D01*
X123597263Y-138081420D01*
X123634704Y-138053652D01*
X123674687Y-138029687D01*
X123716825Y-138009757D01*
X123760715Y-137994053D01*
X123805932Y-137982727D01*
X123852042Y-137975887D01*
X123898600Y-137973600D01*
X124848600Y-137973600D01*
X124895158Y-137975887D01*
X124895158Y-137975887D01*
G37*
D18*
X124373600Y-142223600D03*
D17*
G36*
X127435158Y-137975887D02*
G01*
X127481268Y-137982727D01*
X127526485Y-137994053D01*
X127570375Y-138009757D01*
X127612513Y-138029687D01*
X127652496Y-138053652D01*
X127689937Y-138081420D01*
X127724476Y-138112724D01*
X127755780Y-138147263D01*
X127783548Y-138184704D01*
X127807513Y-138224687D01*
X127827443Y-138266825D01*
X127843147Y-138310715D01*
X127854473Y-138355932D01*
X127861313Y-138402042D01*
X127863600Y-138448600D01*
X127863600Y-145998600D01*
X127861313Y-146045158D01*
X127854473Y-146091268D01*
X127843147Y-146136485D01*
X127827443Y-146180375D01*
X127807513Y-146222513D01*
X127783548Y-146262496D01*
X127755780Y-146299937D01*
X127724476Y-146334476D01*
X127689937Y-146365780D01*
X127652496Y-146393548D01*
X127612513Y-146417513D01*
X127570375Y-146437443D01*
X127526485Y-146453147D01*
X127481268Y-146464473D01*
X127435158Y-146471313D01*
X127388600Y-146473600D01*
X126438600Y-146473600D01*
X126392042Y-146471313D01*
X126345932Y-146464473D01*
X126300715Y-146453147D01*
X126256825Y-146437443D01*
X126214687Y-146417513D01*
X126174704Y-146393548D01*
X126137263Y-146365780D01*
X126102724Y-146334476D01*
X126071420Y-146299937D01*
X126043652Y-146262496D01*
X126019687Y-146222513D01*
X125999757Y-146180375D01*
X125984053Y-146136485D01*
X125972727Y-146091268D01*
X125965887Y-146045158D01*
X125963600Y-145998600D01*
X125963600Y-138448600D01*
X125965887Y-138402042D01*
X125972727Y-138355932D01*
X125984053Y-138310715D01*
X125999757Y-138266825D01*
X126019687Y-138224687D01*
X126043652Y-138184704D01*
X126071420Y-138147263D01*
X126102724Y-138112724D01*
X126137263Y-138081420D01*
X126174704Y-138053652D01*
X126214687Y-138029687D01*
X126256825Y-138009757D01*
X126300715Y-137994053D01*
X126345932Y-137982727D01*
X126392042Y-137975887D01*
X126438600Y-137973600D01*
X127388600Y-137973600D01*
X127435158Y-137975887D01*
X127435158Y-137975887D01*
G37*
D18*
X126913600Y-142223600D03*
D17*
G36*
X129975158Y-137975887D02*
G01*
X130021268Y-137982727D01*
X130066485Y-137994053D01*
X130110375Y-138009757D01*
X130152513Y-138029687D01*
X130192496Y-138053652D01*
X130229937Y-138081420D01*
X130264476Y-138112724D01*
X130295780Y-138147263D01*
X130323548Y-138184704D01*
X130347513Y-138224687D01*
X130367443Y-138266825D01*
X130383147Y-138310715D01*
X130394473Y-138355932D01*
X130401313Y-138402042D01*
X130403600Y-138448600D01*
X130403600Y-145998600D01*
X130401313Y-146045158D01*
X130394473Y-146091268D01*
X130383147Y-146136485D01*
X130367443Y-146180375D01*
X130347513Y-146222513D01*
X130323548Y-146262496D01*
X130295780Y-146299937D01*
X130264476Y-146334476D01*
X130229937Y-146365780D01*
X130192496Y-146393548D01*
X130152513Y-146417513D01*
X130110375Y-146437443D01*
X130066485Y-146453147D01*
X130021268Y-146464473D01*
X129975158Y-146471313D01*
X129928600Y-146473600D01*
X128978600Y-146473600D01*
X128932042Y-146471313D01*
X128885932Y-146464473D01*
X128840715Y-146453147D01*
X128796825Y-146437443D01*
X128754687Y-146417513D01*
X128714704Y-146393548D01*
X128677263Y-146365780D01*
X128642724Y-146334476D01*
X128611420Y-146299937D01*
X128583652Y-146262496D01*
X128559687Y-146222513D01*
X128539757Y-146180375D01*
X128524053Y-146136485D01*
X128512727Y-146091268D01*
X128505887Y-146045158D01*
X128503600Y-145998600D01*
X128503600Y-138448600D01*
X128505887Y-138402042D01*
X128512727Y-138355932D01*
X128524053Y-138310715D01*
X128539757Y-138266825D01*
X128559687Y-138224687D01*
X128583652Y-138184704D01*
X128611420Y-138147263D01*
X128642724Y-138112724D01*
X128677263Y-138081420D01*
X128714704Y-138053652D01*
X128754687Y-138029687D01*
X128796825Y-138009757D01*
X128840715Y-137994053D01*
X128885932Y-137982727D01*
X128932042Y-137975887D01*
X128978600Y-137973600D01*
X129928600Y-137973600D01*
X129975158Y-137975887D01*
X129975158Y-137975887D01*
G37*
D18*
X129453600Y-142223600D03*
D17*
G36*
X132515158Y-137975887D02*
G01*
X132561268Y-137982727D01*
X132606485Y-137994053D01*
X132650375Y-138009757D01*
X132692513Y-138029687D01*
X132732496Y-138053652D01*
X132769937Y-138081420D01*
X132804476Y-138112724D01*
X132835780Y-138147263D01*
X132863548Y-138184704D01*
X132887513Y-138224687D01*
X132907443Y-138266825D01*
X132923147Y-138310715D01*
X132934473Y-138355932D01*
X132941313Y-138402042D01*
X132943600Y-138448600D01*
X132943600Y-145998600D01*
X132941313Y-146045158D01*
X132934473Y-146091268D01*
X132923147Y-146136485D01*
X132907443Y-146180375D01*
X132887513Y-146222513D01*
X132863548Y-146262496D01*
X132835780Y-146299937D01*
X132804476Y-146334476D01*
X132769937Y-146365780D01*
X132732496Y-146393548D01*
X132692513Y-146417513D01*
X132650375Y-146437443D01*
X132606485Y-146453147D01*
X132561268Y-146464473D01*
X132515158Y-146471313D01*
X132468600Y-146473600D01*
X131518600Y-146473600D01*
X131472042Y-146471313D01*
X131425932Y-146464473D01*
X131380715Y-146453147D01*
X131336825Y-146437443D01*
X131294687Y-146417513D01*
X131254704Y-146393548D01*
X131217263Y-146365780D01*
X131182724Y-146334476D01*
X131151420Y-146299937D01*
X131123652Y-146262496D01*
X131099687Y-146222513D01*
X131079757Y-146180375D01*
X131064053Y-146136485D01*
X131052727Y-146091268D01*
X131045887Y-146045158D01*
X131043600Y-145998600D01*
X131043600Y-138448600D01*
X131045887Y-138402042D01*
X131052727Y-138355932D01*
X131064053Y-138310715D01*
X131079757Y-138266825D01*
X131099687Y-138224687D01*
X131123652Y-138184704D01*
X131151420Y-138147263D01*
X131182724Y-138112724D01*
X131217263Y-138081420D01*
X131254704Y-138053652D01*
X131294687Y-138029687D01*
X131336825Y-138009757D01*
X131380715Y-137994053D01*
X131425932Y-137982727D01*
X131472042Y-137975887D01*
X131518600Y-137973600D01*
X132468600Y-137973600D01*
X132515158Y-137975887D01*
X132515158Y-137975887D01*
G37*
D18*
X131993600Y-142223600D03*
D17*
G36*
X135055158Y-137975887D02*
G01*
X135101268Y-137982727D01*
X135146485Y-137994053D01*
X135190375Y-138009757D01*
X135232513Y-138029687D01*
X135272496Y-138053652D01*
X135309937Y-138081420D01*
X135344476Y-138112724D01*
X135375780Y-138147263D01*
X135403548Y-138184704D01*
X135427513Y-138224687D01*
X135447443Y-138266825D01*
X135463147Y-138310715D01*
X135474473Y-138355932D01*
X135481313Y-138402042D01*
X135483600Y-138448600D01*
X135483600Y-145998600D01*
X135481313Y-146045158D01*
X135474473Y-146091268D01*
X135463147Y-146136485D01*
X135447443Y-146180375D01*
X135427513Y-146222513D01*
X135403548Y-146262496D01*
X135375780Y-146299937D01*
X135344476Y-146334476D01*
X135309937Y-146365780D01*
X135272496Y-146393548D01*
X135232513Y-146417513D01*
X135190375Y-146437443D01*
X135146485Y-146453147D01*
X135101268Y-146464473D01*
X135055158Y-146471313D01*
X135008600Y-146473600D01*
X134058600Y-146473600D01*
X134012042Y-146471313D01*
X133965932Y-146464473D01*
X133920715Y-146453147D01*
X133876825Y-146437443D01*
X133834687Y-146417513D01*
X133794704Y-146393548D01*
X133757263Y-146365780D01*
X133722724Y-146334476D01*
X133691420Y-146299937D01*
X133663652Y-146262496D01*
X133639687Y-146222513D01*
X133619757Y-146180375D01*
X133604053Y-146136485D01*
X133592727Y-146091268D01*
X133585887Y-146045158D01*
X133583600Y-145998600D01*
X133583600Y-138448600D01*
X133585887Y-138402042D01*
X133592727Y-138355932D01*
X133604053Y-138310715D01*
X133619757Y-138266825D01*
X133639687Y-138224687D01*
X133663652Y-138184704D01*
X133691420Y-138147263D01*
X133722724Y-138112724D01*
X133757263Y-138081420D01*
X133794704Y-138053652D01*
X133834687Y-138029687D01*
X133876825Y-138009757D01*
X133920715Y-137994053D01*
X133965932Y-137982727D01*
X134012042Y-137975887D01*
X134058600Y-137973600D01*
X135008600Y-137973600D01*
X135055158Y-137975887D01*
X135055158Y-137975887D01*
G37*
D18*
X134533600Y-142223600D03*
D17*
G36*
X137595158Y-137975887D02*
G01*
X137641268Y-137982727D01*
X137686485Y-137994053D01*
X137730375Y-138009757D01*
X137772513Y-138029687D01*
X137812496Y-138053652D01*
X137849937Y-138081420D01*
X137884476Y-138112724D01*
X137915780Y-138147263D01*
X137943548Y-138184704D01*
X137967513Y-138224687D01*
X137987443Y-138266825D01*
X138003147Y-138310715D01*
X138014473Y-138355932D01*
X138021313Y-138402042D01*
X138023600Y-138448600D01*
X138023600Y-145998600D01*
X138021313Y-146045158D01*
X138014473Y-146091268D01*
X138003147Y-146136485D01*
X137987443Y-146180375D01*
X137967513Y-146222513D01*
X137943548Y-146262496D01*
X137915780Y-146299937D01*
X137884476Y-146334476D01*
X137849937Y-146365780D01*
X137812496Y-146393548D01*
X137772513Y-146417513D01*
X137730375Y-146437443D01*
X137686485Y-146453147D01*
X137641268Y-146464473D01*
X137595158Y-146471313D01*
X137548600Y-146473600D01*
X136598600Y-146473600D01*
X136552042Y-146471313D01*
X136505932Y-146464473D01*
X136460715Y-146453147D01*
X136416825Y-146437443D01*
X136374687Y-146417513D01*
X136334704Y-146393548D01*
X136297263Y-146365780D01*
X136262724Y-146334476D01*
X136231420Y-146299937D01*
X136203652Y-146262496D01*
X136179687Y-146222513D01*
X136159757Y-146180375D01*
X136144053Y-146136485D01*
X136132727Y-146091268D01*
X136125887Y-146045158D01*
X136123600Y-145998600D01*
X136123600Y-138448600D01*
X136125887Y-138402042D01*
X136132727Y-138355932D01*
X136144053Y-138310715D01*
X136159757Y-138266825D01*
X136179687Y-138224687D01*
X136203652Y-138184704D01*
X136231420Y-138147263D01*
X136262724Y-138112724D01*
X136297263Y-138081420D01*
X136334704Y-138053652D01*
X136374687Y-138029687D01*
X136416825Y-138009757D01*
X136460715Y-137994053D01*
X136505932Y-137982727D01*
X136552042Y-137975887D01*
X136598600Y-137973600D01*
X137548600Y-137973600D01*
X137595158Y-137975887D01*
X137595158Y-137975887D01*
G37*
D18*
X137073600Y-142223600D03*
D17*
G36*
X140135158Y-137975887D02*
G01*
X140181268Y-137982727D01*
X140226485Y-137994053D01*
X140270375Y-138009757D01*
X140312513Y-138029687D01*
X140352496Y-138053652D01*
X140389937Y-138081420D01*
X140424476Y-138112724D01*
X140455780Y-138147263D01*
X140483548Y-138184704D01*
X140507513Y-138224687D01*
X140527443Y-138266825D01*
X140543147Y-138310715D01*
X140554473Y-138355932D01*
X140561313Y-138402042D01*
X140563600Y-138448600D01*
X140563600Y-145998600D01*
X140561313Y-146045158D01*
X140554473Y-146091268D01*
X140543147Y-146136485D01*
X140527443Y-146180375D01*
X140507513Y-146222513D01*
X140483548Y-146262496D01*
X140455780Y-146299937D01*
X140424476Y-146334476D01*
X140389937Y-146365780D01*
X140352496Y-146393548D01*
X140312513Y-146417513D01*
X140270375Y-146437443D01*
X140226485Y-146453147D01*
X140181268Y-146464473D01*
X140135158Y-146471313D01*
X140088600Y-146473600D01*
X139138600Y-146473600D01*
X139092042Y-146471313D01*
X139045932Y-146464473D01*
X139000715Y-146453147D01*
X138956825Y-146437443D01*
X138914687Y-146417513D01*
X138874704Y-146393548D01*
X138837263Y-146365780D01*
X138802724Y-146334476D01*
X138771420Y-146299937D01*
X138743652Y-146262496D01*
X138719687Y-146222513D01*
X138699757Y-146180375D01*
X138684053Y-146136485D01*
X138672727Y-146091268D01*
X138665887Y-146045158D01*
X138663600Y-145998600D01*
X138663600Y-138448600D01*
X138665887Y-138402042D01*
X138672727Y-138355932D01*
X138684053Y-138310715D01*
X138699757Y-138266825D01*
X138719687Y-138224687D01*
X138743652Y-138184704D01*
X138771420Y-138147263D01*
X138802724Y-138112724D01*
X138837263Y-138081420D01*
X138874704Y-138053652D01*
X138914687Y-138029687D01*
X138956825Y-138009757D01*
X139000715Y-137994053D01*
X139045932Y-137982727D01*
X139092042Y-137975887D01*
X139138600Y-137973600D01*
X140088600Y-137973600D01*
X140135158Y-137975887D01*
X140135158Y-137975887D01*
G37*
D18*
X139613600Y-142223600D03*
D17*
G36*
X142675158Y-137975887D02*
G01*
X142721268Y-137982727D01*
X142766485Y-137994053D01*
X142810375Y-138009757D01*
X142852513Y-138029687D01*
X142892496Y-138053652D01*
X142929937Y-138081420D01*
X142964476Y-138112724D01*
X142995780Y-138147263D01*
X143023548Y-138184704D01*
X143047513Y-138224687D01*
X143067443Y-138266825D01*
X143083147Y-138310715D01*
X143094473Y-138355932D01*
X143101313Y-138402042D01*
X143103600Y-138448600D01*
X143103600Y-145998600D01*
X143101313Y-146045158D01*
X143094473Y-146091268D01*
X143083147Y-146136485D01*
X143067443Y-146180375D01*
X143047513Y-146222513D01*
X143023548Y-146262496D01*
X142995780Y-146299937D01*
X142964476Y-146334476D01*
X142929937Y-146365780D01*
X142892496Y-146393548D01*
X142852513Y-146417513D01*
X142810375Y-146437443D01*
X142766485Y-146453147D01*
X142721268Y-146464473D01*
X142675158Y-146471313D01*
X142628600Y-146473600D01*
X141678600Y-146473600D01*
X141632042Y-146471313D01*
X141585932Y-146464473D01*
X141540715Y-146453147D01*
X141496825Y-146437443D01*
X141454687Y-146417513D01*
X141414704Y-146393548D01*
X141377263Y-146365780D01*
X141342724Y-146334476D01*
X141311420Y-146299937D01*
X141283652Y-146262496D01*
X141259687Y-146222513D01*
X141239757Y-146180375D01*
X141224053Y-146136485D01*
X141212727Y-146091268D01*
X141205887Y-146045158D01*
X141203600Y-145998600D01*
X141203600Y-138448600D01*
X141205887Y-138402042D01*
X141212727Y-138355932D01*
X141224053Y-138310715D01*
X141239757Y-138266825D01*
X141259687Y-138224687D01*
X141283652Y-138184704D01*
X141311420Y-138147263D01*
X141342724Y-138112724D01*
X141377263Y-138081420D01*
X141414704Y-138053652D01*
X141454687Y-138029687D01*
X141496825Y-138009757D01*
X141540715Y-137994053D01*
X141585932Y-137982727D01*
X141632042Y-137975887D01*
X141678600Y-137973600D01*
X142628600Y-137973600D01*
X142675158Y-137975887D01*
X142675158Y-137975887D01*
G37*
D18*
X142153600Y-142223600D03*
D17*
G36*
X145215158Y-137975887D02*
G01*
X145261268Y-137982727D01*
X145306485Y-137994053D01*
X145350375Y-138009757D01*
X145392513Y-138029687D01*
X145432496Y-138053652D01*
X145469937Y-138081420D01*
X145504476Y-138112724D01*
X145535780Y-138147263D01*
X145563548Y-138184704D01*
X145587513Y-138224687D01*
X145607443Y-138266825D01*
X145623147Y-138310715D01*
X145634473Y-138355932D01*
X145641313Y-138402042D01*
X145643600Y-138448600D01*
X145643600Y-145998600D01*
X145641313Y-146045158D01*
X145634473Y-146091268D01*
X145623147Y-146136485D01*
X145607443Y-146180375D01*
X145587513Y-146222513D01*
X145563548Y-146262496D01*
X145535780Y-146299937D01*
X145504476Y-146334476D01*
X145469937Y-146365780D01*
X145432496Y-146393548D01*
X145392513Y-146417513D01*
X145350375Y-146437443D01*
X145306485Y-146453147D01*
X145261268Y-146464473D01*
X145215158Y-146471313D01*
X145168600Y-146473600D01*
X144218600Y-146473600D01*
X144172042Y-146471313D01*
X144125932Y-146464473D01*
X144080715Y-146453147D01*
X144036825Y-146437443D01*
X143994687Y-146417513D01*
X143954704Y-146393548D01*
X143917263Y-146365780D01*
X143882724Y-146334476D01*
X143851420Y-146299937D01*
X143823652Y-146262496D01*
X143799687Y-146222513D01*
X143779757Y-146180375D01*
X143764053Y-146136485D01*
X143752727Y-146091268D01*
X143745887Y-146045158D01*
X143743600Y-145998600D01*
X143743600Y-138448600D01*
X143745887Y-138402042D01*
X143752727Y-138355932D01*
X143764053Y-138310715D01*
X143779757Y-138266825D01*
X143799687Y-138224687D01*
X143823652Y-138184704D01*
X143851420Y-138147263D01*
X143882724Y-138112724D01*
X143917263Y-138081420D01*
X143954704Y-138053652D01*
X143994687Y-138029687D01*
X144036825Y-138009757D01*
X144080715Y-137994053D01*
X144125932Y-137982727D01*
X144172042Y-137975887D01*
X144218600Y-137973600D01*
X145168600Y-137973600D01*
X145215158Y-137975887D01*
X145215158Y-137975887D01*
G37*
D18*
X144693600Y-142223600D03*
D17*
G36*
X175695158Y-137975887D02*
G01*
X175741268Y-137982727D01*
X175786485Y-137994053D01*
X175830375Y-138009757D01*
X175872513Y-138029687D01*
X175912496Y-138053652D01*
X175949937Y-138081420D01*
X175984476Y-138112724D01*
X176015780Y-138147263D01*
X176043548Y-138184704D01*
X176067513Y-138224687D01*
X176087443Y-138266825D01*
X176103147Y-138310715D01*
X176114473Y-138355932D01*
X176121313Y-138402042D01*
X176123600Y-138448600D01*
X176123600Y-145998600D01*
X176121313Y-146045158D01*
X176114473Y-146091268D01*
X176103147Y-146136485D01*
X176087443Y-146180375D01*
X176067513Y-146222513D01*
X176043548Y-146262496D01*
X176015780Y-146299937D01*
X175984476Y-146334476D01*
X175949937Y-146365780D01*
X175912496Y-146393548D01*
X175872513Y-146417513D01*
X175830375Y-146437443D01*
X175786485Y-146453147D01*
X175741268Y-146464473D01*
X175695158Y-146471313D01*
X175648600Y-146473600D01*
X174698600Y-146473600D01*
X174652042Y-146471313D01*
X174605932Y-146464473D01*
X174560715Y-146453147D01*
X174516825Y-146437443D01*
X174474687Y-146417513D01*
X174434704Y-146393548D01*
X174397263Y-146365780D01*
X174362724Y-146334476D01*
X174331420Y-146299937D01*
X174303652Y-146262496D01*
X174279687Y-146222513D01*
X174259757Y-146180375D01*
X174244053Y-146136485D01*
X174232727Y-146091268D01*
X174225887Y-146045158D01*
X174223600Y-145998600D01*
X174223600Y-138448600D01*
X174225887Y-138402042D01*
X174232727Y-138355932D01*
X174244053Y-138310715D01*
X174259757Y-138266825D01*
X174279687Y-138224687D01*
X174303652Y-138184704D01*
X174331420Y-138147263D01*
X174362724Y-138112724D01*
X174397263Y-138081420D01*
X174434704Y-138053652D01*
X174474687Y-138029687D01*
X174516825Y-138009757D01*
X174560715Y-137994053D01*
X174605932Y-137982727D01*
X174652042Y-137975887D01*
X174698600Y-137973600D01*
X175648600Y-137973600D01*
X175695158Y-137975887D01*
X175695158Y-137975887D01*
G37*
D18*
X175173600Y-142223600D03*
D17*
G36*
X173155158Y-137975887D02*
G01*
X173201268Y-137982727D01*
X173246485Y-137994053D01*
X173290375Y-138009757D01*
X173332513Y-138029687D01*
X173372496Y-138053652D01*
X173409937Y-138081420D01*
X173444476Y-138112724D01*
X173475780Y-138147263D01*
X173503548Y-138184704D01*
X173527513Y-138224687D01*
X173547443Y-138266825D01*
X173563147Y-138310715D01*
X173574473Y-138355932D01*
X173581313Y-138402042D01*
X173583600Y-138448600D01*
X173583600Y-145998600D01*
X173581313Y-146045158D01*
X173574473Y-146091268D01*
X173563147Y-146136485D01*
X173547443Y-146180375D01*
X173527513Y-146222513D01*
X173503548Y-146262496D01*
X173475780Y-146299937D01*
X173444476Y-146334476D01*
X173409937Y-146365780D01*
X173372496Y-146393548D01*
X173332513Y-146417513D01*
X173290375Y-146437443D01*
X173246485Y-146453147D01*
X173201268Y-146464473D01*
X173155158Y-146471313D01*
X173108600Y-146473600D01*
X172158600Y-146473600D01*
X172112042Y-146471313D01*
X172065932Y-146464473D01*
X172020715Y-146453147D01*
X171976825Y-146437443D01*
X171934687Y-146417513D01*
X171894704Y-146393548D01*
X171857263Y-146365780D01*
X171822724Y-146334476D01*
X171791420Y-146299937D01*
X171763652Y-146262496D01*
X171739687Y-146222513D01*
X171719757Y-146180375D01*
X171704053Y-146136485D01*
X171692727Y-146091268D01*
X171685887Y-146045158D01*
X171683600Y-145998600D01*
X171683600Y-138448600D01*
X171685887Y-138402042D01*
X171692727Y-138355932D01*
X171704053Y-138310715D01*
X171719757Y-138266825D01*
X171739687Y-138224687D01*
X171763652Y-138184704D01*
X171791420Y-138147263D01*
X171822724Y-138112724D01*
X171857263Y-138081420D01*
X171894704Y-138053652D01*
X171934687Y-138029687D01*
X171976825Y-138009757D01*
X172020715Y-137994053D01*
X172065932Y-137982727D01*
X172112042Y-137975887D01*
X172158600Y-137973600D01*
X173108600Y-137973600D01*
X173155158Y-137975887D01*
X173155158Y-137975887D01*
G37*
D18*
X172633600Y-142223600D03*
D17*
G36*
X170615158Y-137975887D02*
G01*
X170661268Y-137982727D01*
X170706485Y-137994053D01*
X170750375Y-138009757D01*
X170792513Y-138029687D01*
X170832496Y-138053652D01*
X170869937Y-138081420D01*
X170904476Y-138112724D01*
X170935780Y-138147263D01*
X170963548Y-138184704D01*
X170987513Y-138224687D01*
X171007443Y-138266825D01*
X171023147Y-138310715D01*
X171034473Y-138355932D01*
X171041313Y-138402042D01*
X171043600Y-138448600D01*
X171043600Y-145998600D01*
X171041313Y-146045158D01*
X171034473Y-146091268D01*
X171023147Y-146136485D01*
X171007443Y-146180375D01*
X170987513Y-146222513D01*
X170963548Y-146262496D01*
X170935780Y-146299937D01*
X170904476Y-146334476D01*
X170869937Y-146365780D01*
X170832496Y-146393548D01*
X170792513Y-146417513D01*
X170750375Y-146437443D01*
X170706485Y-146453147D01*
X170661268Y-146464473D01*
X170615158Y-146471313D01*
X170568600Y-146473600D01*
X169618600Y-146473600D01*
X169572042Y-146471313D01*
X169525932Y-146464473D01*
X169480715Y-146453147D01*
X169436825Y-146437443D01*
X169394687Y-146417513D01*
X169354704Y-146393548D01*
X169317263Y-146365780D01*
X169282724Y-146334476D01*
X169251420Y-146299937D01*
X169223652Y-146262496D01*
X169199687Y-146222513D01*
X169179757Y-146180375D01*
X169164053Y-146136485D01*
X169152727Y-146091268D01*
X169145887Y-146045158D01*
X169143600Y-145998600D01*
X169143600Y-138448600D01*
X169145887Y-138402042D01*
X169152727Y-138355932D01*
X169164053Y-138310715D01*
X169179757Y-138266825D01*
X169199687Y-138224687D01*
X169223652Y-138184704D01*
X169251420Y-138147263D01*
X169282724Y-138112724D01*
X169317263Y-138081420D01*
X169354704Y-138053652D01*
X169394687Y-138029687D01*
X169436825Y-138009757D01*
X169480715Y-137994053D01*
X169525932Y-137982727D01*
X169572042Y-137975887D01*
X169618600Y-137973600D01*
X170568600Y-137973600D01*
X170615158Y-137975887D01*
X170615158Y-137975887D01*
G37*
D18*
X170093600Y-142223600D03*
D17*
G36*
X168075158Y-137975887D02*
G01*
X168121268Y-137982727D01*
X168166485Y-137994053D01*
X168210375Y-138009757D01*
X168252513Y-138029687D01*
X168292496Y-138053652D01*
X168329937Y-138081420D01*
X168364476Y-138112724D01*
X168395780Y-138147263D01*
X168423548Y-138184704D01*
X168447513Y-138224687D01*
X168467443Y-138266825D01*
X168483147Y-138310715D01*
X168494473Y-138355932D01*
X168501313Y-138402042D01*
X168503600Y-138448600D01*
X168503600Y-145998600D01*
X168501313Y-146045158D01*
X168494473Y-146091268D01*
X168483147Y-146136485D01*
X168467443Y-146180375D01*
X168447513Y-146222513D01*
X168423548Y-146262496D01*
X168395780Y-146299937D01*
X168364476Y-146334476D01*
X168329937Y-146365780D01*
X168292496Y-146393548D01*
X168252513Y-146417513D01*
X168210375Y-146437443D01*
X168166485Y-146453147D01*
X168121268Y-146464473D01*
X168075158Y-146471313D01*
X168028600Y-146473600D01*
X167078600Y-146473600D01*
X167032042Y-146471313D01*
X166985932Y-146464473D01*
X166940715Y-146453147D01*
X166896825Y-146437443D01*
X166854687Y-146417513D01*
X166814704Y-146393548D01*
X166777263Y-146365780D01*
X166742724Y-146334476D01*
X166711420Y-146299937D01*
X166683652Y-146262496D01*
X166659687Y-146222513D01*
X166639757Y-146180375D01*
X166624053Y-146136485D01*
X166612727Y-146091268D01*
X166605887Y-146045158D01*
X166603600Y-145998600D01*
X166603600Y-138448600D01*
X166605887Y-138402042D01*
X166612727Y-138355932D01*
X166624053Y-138310715D01*
X166639757Y-138266825D01*
X166659687Y-138224687D01*
X166683652Y-138184704D01*
X166711420Y-138147263D01*
X166742724Y-138112724D01*
X166777263Y-138081420D01*
X166814704Y-138053652D01*
X166854687Y-138029687D01*
X166896825Y-138009757D01*
X166940715Y-137994053D01*
X166985932Y-137982727D01*
X167032042Y-137975887D01*
X167078600Y-137973600D01*
X168028600Y-137973600D01*
X168075158Y-137975887D01*
X168075158Y-137975887D01*
G37*
D18*
X167553600Y-142223600D03*
D17*
G36*
X165535158Y-137975887D02*
G01*
X165581268Y-137982727D01*
X165626485Y-137994053D01*
X165670375Y-138009757D01*
X165712513Y-138029687D01*
X165752496Y-138053652D01*
X165789937Y-138081420D01*
X165824476Y-138112724D01*
X165855780Y-138147263D01*
X165883548Y-138184704D01*
X165907513Y-138224687D01*
X165927443Y-138266825D01*
X165943147Y-138310715D01*
X165954473Y-138355932D01*
X165961313Y-138402042D01*
X165963600Y-138448600D01*
X165963600Y-145998600D01*
X165961313Y-146045158D01*
X165954473Y-146091268D01*
X165943147Y-146136485D01*
X165927443Y-146180375D01*
X165907513Y-146222513D01*
X165883548Y-146262496D01*
X165855780Y-146299937D01*
X165824476Y-146334476D01*
X165789937Y-146365780D01*
X165752496Y-146393548D01*
X165712513Y-146417513D01*
X165670375Y-146437443D01*
X165626485Y-146453147D01*
X165581268Y-146464473D01*
X165535158Y-146471313D01*
X165488600Y-146473600D01*
X164538600Y-146473600D01*
X164492042Y-146471313D01*
X164445932Y-146464473D01*
X164400715Y-146453147D01*
X164356825Y-146437443D01*
X164314687Y-146417513D01*
X164274704Y-146393548D01*
X164237263Y-146365780D01*
X164202724Y-146334476D01*
X164171420Y-146299937D01*
X164143652Y-146262496D01*
X164119687Y-146222513D01*
X164099757Y-146180375D01*
X164084053Y-146136485D01*
X164072727Y-146091268D01*
X164065887Y-146045158D01*
X164063600Y-145998600D01*
X164063600Y-138448600D01*
X164065887Y-138402042D01*
X164072727Y-138355932D01*
X164084053Y-138310715D01*
X164099757Y-138266825D01*
X164119687Y-138224687D01*
X164143652Y-138184704D01*
X164171420Y-138147263D01*
X164202724Y-138112724D01*
X164237263Y-138081420D01*
X164274704Y-138053652D01*
X164314687Y-138029687D01*
X164356825Y-138009757D01*
X164400715Y-137994053D01*
X164445932Y-137982727D01*
X164492042Y-137975887D01*
X164538600Y-137973600D01*
X165488600Y-137973600D01*
X165535158Y-137975887D01*
X165535158Y-137975887D01*
G37*
D18*
X165013600Y-142223600D03*
D17*
G36*
X162995158Y-137975887D02*
G01*
X163041268Y-137982727D01*
X163086485Y-137994053D01*
X163130375Y-138009757D01*
X163172513Y-138029687D01*
X163212496Y-138053652D01*
X163249937Y-138081420D01*
X163284476Y-138112724D01*
X163315780Y-138147263D01*
X163343548Y-138184704D01*
X163367513Y-138224687D01*
X163387443Y-138266825D01*
X163403147Y-138310715D01*
X163414473Y-138355932D01*
X163421313Y-138402042D01*
X163423600Y-138448600D01*
X163423600Y-145998600D01*
X163421313Y-146045158D01*
X163414473Y-146091268D01*
X163403147Y-146136485D01*
X163387443Y-146180375D01*
X163367513Y-146222513D01*
X163343548Y-146262496D01*
X163315780Y-146299937D01*
X163284476Y-146334476D01*
X163249937Y-146365780D01*
X163212496Y-146393548D01*
X163172513Y-146417513D01*
X163130375Y-146437443D01*
X163086485Y-146453147D01*
X163041268Y-146464473D01*
X162995158Y-146471313D01*
X162948600Y-146473600D01*
X161998600Y-146473600D01*
X161952042Y-146471313D01*
X161905932Y-146464473D01*
X161860715Y-146453147D01*
X161816825Y-146437443D01*
X161774687Y-146417513D01*
X161734704Y-146393548D01*
X161697263Y-146365780D01*
X161662724Y-146334476D01*
X161631420Y-146299937D01*
X161603652Y-146262496D01*
X161579687Y-146222513D01*
X161559757Y-146180375D01*
X161544053Y-146136485D01*
X161532727Y-146091268D01*
X161525887Y-146045158D01*
X161523600Y-145998600D01*
X161523600Y-138448600D01*
X161525887Y-138402042D01*
X161532727Y-138355932D01*
X161544053Y-138310715D01*
X161559757Y-138266825D01*
X161579687Y-138224687D01*
X161603652Y-138184704D01*
X161631420Y-138147263D01*
X161662724Y-138112724D01*
X161697263Y-138081420D01*
X161734704Y-138053652D01*
X161774687Y-138029687D01*
X161816825Y-138009757D01*
X161860715Y-137994053D01*
X161905932Y-137982727D01*
X161952042Y-137975887D01*
X161998600Y-137973600D01*
X162948600Y-137973600D01*
X162995158Y-137975887D01*
X162995158Y-137975887D01*
G37*
D18*
X162473600Y-142223600D03*
D17*
G36*
X160455158Y-137975887D02*
G01*
X160501268Y-137982727D01*
X160546485Y-137994053D01*
X160590375Y-138009757D01*
X160632513Y-138029687D01*
X160672496Y-138053652D01*
X160709937Y-138081420D01*
X160744476Y-138112724D01*
X160775780Y-138147263D01*
X160803548Y-138184704D01*
X160827513Y-138224687D01*
X160847443Y-138266825D01*
X160863147Y-138310715D01*
X160874473Y-138355932D01*
X160881313Y-138402042D01*
X160883600Y-138448600D01*
X160883600Y-145998600D01*
X160881313Y-146045158D01*
X160874473Y-146091268D01*
X160863147Y-146136485D01*
X160847443Y-146180375D01*
X160827513Y-146222513D01*
X160803548Y-146262496D01*
X160775780Y-146299937D01*
X160744476Y-146334476D01*
X160709937Y-146365780D01*
X160672496Y-146393548D01*
X160632513Y-146417513D01*
X160590375Y-146437443D01*
X160546485Y-146453147D01*
X160501268Y-146464473D01*
X160455158Y-146471313D01*
X160408600Y-146473600D01*
X159458600Y-146473600D01*
X159412042Y-146471313D01*
X159365932Y-146464473D01*
X159320715Y-146453147D01*
X159276825Y-146437443D01*
X159234687Y-146417513D01*
X159194704Y-146393548D01*
X159157263Y-146365780D01*
X159122724Y-146334476D01*
X159091420Y-146299937D01*
X159063652Y-146262496D01*
X159039687Y-146222513D01*
X159019757Y-146180375D01*
X159004053Y-146136485D01*
X158992727Y-146091268D01*
X158985887Y-146045158D01*
X158983600Y-145998600D01*
X158983600Y-138448600D01*
X158985887Y-138402042D01*
X158992727Y-138355932D01*
X159004053Y-138310715D01*
X159019757Y-138266825D01*
X159039687Y-138224687D01*
X159063652Y-138184704D01*
X159091420Y-138147263D01*
X159122724Y-138112724D01*
X159157263Y-138081420D01*
X159194704Y-138053652D01*
X159234687Y-138029687D01*
X159276825Y-138009757D01*
X159320715Y-137994053D01*
X159365932Y-137982727D01*
X159412042Y-137975887D01*
X159458600Y-137973600D01*
X160408600Y-137973600D01*
X160455158Y-137975887D01*
X160455158Y-137975887D01*
G37*
D18*
X159933600Y-142223600D03*
D17*
G36*
X157915158Y-137975887D02*
G01*
X157961268Y-137982727D01*
X158006485Y-137994053D01*
X158050375Y-138009757D01*
X158092513Y-138029687D01*
X158132496Y-138053652D01*
X158169937Y-138081420D01*
X158204476Y-138112724D01*
X158235780Y-138147263D01*
X158263548Y-138184704D01*
X158287513Y-138224687D01*
X158307443Y-138266825D01*
X158323147Y-138310715D01*
X158334473Y-138355932D01*
X158341313Y-138402042D01*
X158343600Y-138448600D01*
X158343600Y-145998600D01*
X158341313Y-146045158D01*
X158334473Y-146091268D01*
X158323147Y-146136485D01*
X158307443Y-146180375D01*
X158287513Y-146222513D01*
X158263548Y-146262496D01*
X158235780Y-146299937D01*
X158204476Y-146334476D01*
X158169937Y-146365780D01*
X158132496Y-146393548D01*
X158092513Y-146417513D01*
X158050375Y-146437443D01*
X158006485Y-146453147D01*
X157961268Y-146464473D01*
X157915158Y-146471313D01*
X157868600Y-146473600D01*
X156918600Y-146473600D01*
X156872042Y-146471313D01*
X156825932Y-146464473D01*
X156780715Y-146453147D01*
X156736825Y-146437443D01*
X156694687Y-146417513D01*
X156654704Y-146393548D01*
X156617263Y-146365780D01*
X156582724Y-146334476D01*
X156551420Y-146299937D01*
X156523652Y-146262496D01*
X156499687Y-146222513D01*
X156479757Y-146180375D01*
X156464053Y-146136485D01*
X156452727Y-146091268D01*
X156445887Y-146045158D01*
X156443600Y-145998600D01*
X156443600Y-138448600D01*
X156445887Y-138402042D01*
X156452727Y-138355932D01*
X156464053Y-138310715D01*
X156479757Y-138266825D01*
X156499687Y-138224687D01*
X156523652Y-138184704D01*
X156551420Y-138147263D01*
X156582724Y-138112724D01*
X156617263Y-138081420D01*
X156654704Y-138053652D01*
X156694687Y-138029687D01*
X156736825Y-138009757D01*
X156780715Y-137994053D01*
X156825932Y-137982727D01*
X156872042Y-137975887D01*
X156918600Y-137973600D01*
X157868600Y-137973600D01*
X157915158Y-137975887D01*
X157915158Y-137975887D01*
G37*
D18*
X157393600Y-142223600D03*
D17*
G36*
X155375158Y-137975887D02*
G01*
X155421268Y-137982727D01*
X155466485Y-137994053D01*
X155510375Y-138009757D01*
X155552513Y-138029687D01*
X155592496Y-138053652D01*
X155629937Y-138081420D01*
X155664476Y-138112724D01*
X155695780Y-138147263D01*
X155723548Y-138184704D01*
X155747513Y-138224687D01*
X155767443Y-138266825D01*
X155783147Y-138310715D01*
X155794473Y-138355932D01*
X155801313Y-138402042D01*
X155803600Y-138448600D01*
X155803600Y-145998600D01*
X155801313Y-146045158D01*
X155794473Y-146091268D01*
X155783147Y-146136485D01*
X155767443Y-146180375D01*
X155747513Y-146222513D01*
X155723548Y-146262496D01*
X155695780Y-146299937D01*
X155664476Y-146334476D01*
X155629937Y-146365780D01*
X155592496Y-146393548D01*
X155552513Y-146417513D01*
X155510375Y-146437443D01*
X155466485Y-146453147D01*
X155421268Y-146464473D01*
X155375158Y-146471313D01*
X155328600Y-146473600D01*
X154378600Y-146473600D01*
X154332042Y-146471313D01*
X154285932Y-146464473D01*
X154240715Y-146453147D01*
X154196825Y-146437443D01*
X154154687Y-146417513D01*
X154114704Y-146393548D01*
X154077263Y-146365780D01*
X154042724Y-146334476D01*
X154011420Y-146299937D01*
X153983652Y-146262496D01*
X153959687Y-146222513D01*
X153939757Y-146180375D01*
X153924053Y-146136485D01*
X153912727Y-146091268D01*
X153905887Y-146045158D01*
X153903600Y-145998600D01*
X153903600Y-138448600D01*
X153905887Y-138402042D01*
X153912727Y-138355932D01*
X153924053Y-138310715D01*
X153939757Y-138266825D01*
X153959687Y-138224687D01*
X153983652Y-138184704D01*
X154011420Y-138147263D01*
X154042724Y-138112724D01*
X154077263Y-138081420D01*
X154114704Y-138053652D01*
X154154687Y-138029687D01*
X154196825Y-138009757D01*
X154240715Y-137994053D01*
X154285932Y-137982727D01*
X154332042Y-137975887D01*
X154378600Y-137973600D01*
X155328600Y-137973600D01*
X155375158Y-137975887D01*
X155375158Y-137975887D01*
G37*
D18*
X154853600Y-142223600D03*
D17*
G36*
X152835158Y-137975887D02*
G01*
X152881268Y-137982727D01*
X152926485Y-137994053D01*
X152970375Y-138009757D01*
X153012513Y-138029687D01*
X153052496Y-138053652D01*
X153089937Y-138081420D01*
X153124476Y-138112724D01*
X153155780Y-138147263D01*
X153183548Y-138184704D01*
X153207513Y-138224687D01*
X153227443Y-138266825D01*
X153243147Y-138310715D01*
X153254473Y-138355932D01*
X153261313Y-138402042D01*
X153263600Y-138448600D01*
X153263600Y-145998600D01*
X153261313Y-146045158D01*
X153254473Y-146091268D01*
X153243147Y-146136485D01*
X153227443Y-146180375D01*
X153207513Y-146222513D01*
X153183548Y-146262496D01*
X153155780Y-146299937D01*
X153124476Y-146334476D01*
X153089937Y-146365780D01*
X153052496Y-146393548D01*
X153012513Y-146417513D01*
X152970375Y-146437443D01*
X152926485Y-146453147D01*
X152881268Y-146464473D01*
X152835158Y-146471313D01*
X152788600Y-146473600D01*
X151838600Y-146473600D01*
X151792042Y-146471313D01*
X151745932Y-146464473D01*
X151700715Y-146453147D01*
X151656825Y-146437443D01*
X151614687Y-146417513D01*
X151574704Y-146393548D01*
X151537263Y-146365780D01*
X151502724Y-146334476D01*
X151471420Y-146299937D01*
X151443652Y-146262496D01*
X151419687Y-146222513D01*
X151399757Y-146180375D01*
X151384053Y-146136485D01*
X151372727Y-146091268D01*
X151365887Y-146045158D01*
X151363600Y-145998600D01*
X151363600Y-138448600D01*
X151365887Y-138402042D01*
X151372727Y-138355932D01*
X151384053Y-138310715D01*
X151399757Y-138266825D01*
X151419687Y-138224687D01*
X151443652Y-138184704D01*
X151471420Y-138147263D01*
X151502724Y-138112724D01*
X151537263Y-138081420D01*
X151574704Y-138053652D01*
X151614687Y-138029687D01*
X151656825Y-138009757D01*
X151700715Y-137994053D01*
X151745932Y-137982727D01*
X151792042Y-137975887D01*
X151838600Y-137973600D01*
X152788600Y-137973600D01*
X152835158Y-137975887D01*
X152835158Y-137975887D01*
G37*
D18*
X152313600Y-142223600D03*
D17*
G36*
X150295158Y-137975887D02*
G01*
X150341268Y-137982727D01*
X150386485Y-137994053D01*
X150430375Y-138009757D01*
X150472513Y-138029687D01*
X150512496Y-138053652D01*
X150549937Y-138081420D01*
X150584476Y-138112724D01*
X150615780Y-138147263D01*
X150643548Y-138184704D01*
X150667513Y-138224687D01*
X150687443Y-138266825D01*
X150703147Y-138310715D01*
X150714473Y-138355932D01*
X150721313Y-138402042D01*
X150723600Y-138448600D01*
X150723600Y-145998600D01*
X150721313Y-146045158D01*
X150714473Y-146091268D01*
X150703147Y-146136485D01*
X150687443Y-146180375D01*
X150667513Y-146222513D01*
X150643548Y-146262496D01*
X150615780Y-146299937D01*
X150584476Y-146334476D01*
X150549937Y-146365780D01*
X150512496Y-146393548D01*
X150472513Y-146417513D01*
X150430375Y-146437443D01*
X150386485Y-146453147D01*
X150341268Y-146464473D01*
X150295158Y-146471313D01*
X150248600Y-146473600D01*
X149298600Y-146473600D01*
X149252042Y-146471313D01*
X149205932Y-146464473D01*
X149160715Y-146453147D01*
X149116825Y-146437443D01*
X149074687Y-146417513D01*
X149034704Y-146393548D01*
X148997263Y-146365780D01*
X148962724Y-146334476D01*
X148931420Y-146299937D01*
X148903652Y-146262496D01*
X148879687Y-146222513D01*
X148859757Y-146180375D01*
X148844053Y-146136485D01*
X148832727Y-146091268D01*
X148825887Y-146045158D01*
X148823600Y-145998600D01*
X148823600Y-138448600D01*
X148825887Y-138402042D01*
X148832727Y-138355932D01*
X148844053Y-138310715D01*
X148859757Y-138266825D01*
X148879687Y-138224687D01*
X148903652Y-138184704D01*
X148931420Y-138147263D01*
X148962724Y-138112724D01*
X148997263Y-138081420D01*
X149034704Y-138053652D01*
X149074687Y-138029687D01*
X149116825Y-138009757D01*
X149160715Y-137994053D01*
X149205932Y-137982727D01*
X149252042Y-137975887D01*
X149298600Y-137973600D01*
X150248600Y-137973600D01*
X150295158Y-137975887D01*
X150295158Y-137975887D01*
G37*
D18*
X149773600Y-142223600D03*
D17*
G36*
X147755158Y-137975887D02*
G01*
X147801268Y-137982727D01*
X147846485Y-137994053D01*
X147890375Y-138009757D01*
X147932513Y-138029687D01*
X147972496Y-138053652D01*
X148009937Y-138081420D01*
X148044476Y-138112724D01*
X148075780Y-138147263D01*
X148103548Y-138184704D01*
X148127513Y-138224687D01*
X148147443Y-138266825D01*
X148163147Y-138310715D01*
X148174473Y-138355932D01*
X148181313Y-138402042D01*
X148183600Y-138448600D01*
X148183600Y-145998600D01*
X148181313Y-146045158D01*
X148174473Y-146091268D01*
X148163147Y-146136485D01*
X148147443Y-146180375D01*
X148127513Y-146222513D01*
X148103548Y-146262496D01*
X148075780Y-146299937D01*
X148044476Y-146334476D01*
X148009937Y-146365780D01*
X147972496Y-146393548D01*
X147932513Y-146417513D01*
X147890375Y-146437443D01*
X147846485Y-146453147D01*
X147801268Y-146464473D01*
X147755158Y-146471313D01*
X147708600Y-146473600D01*
X146758600Y-146473600D01*
X146712042Y-146471313D01*
X146665932Y-146464473D01*
X146620715Y-146453147D01*
X146576825Y-146437443D01*
X146534687Y-146417513D01*
X146494704Y-146393548D01*
X146457263Y-146365780D01*
X146422724Y-146334476D01*
X146391420Y-146299937D01*
X146363652Y-146262496D01*
X146339687Y-146222513D01*
X146319757Y-146180375D01*
X146304053Y-146136485D01*
X146292727Y-146091268D01*
X146285887Y-146045158D01*
X146283600Y-145998600D01*
X146283600Y-138448600D01*
X146285887Y-138402042D01*
X146292727Y-138355932D01*
X146304053Y-138310715D01*
X146319757Y-138266825D01*
X146339687Y-138224687D01*
X146363652Y-138184704D01*
X146391420Y-138147263D01*
X146422724Y-138112724D01*
X146457263Y-138081420D01*
X146494704Y-138053652D01*
X146534687Y-138029687D01*
X146576825Y-138009757D01*
X146620715Y-137994053D01*
X146665932Y-137982727D01*
X146712042Y-137975887D01*
X146758600Y-137973600D01*
X147708600Y-137973600D01*
X147755158Y-137975887D01*
X147755158Y-137975887D01*
G37*
D18*
X147233600Y-142223600D03*
D19*
X166705900Y-68273200D03*
X173716300Y-68273200D03*
D20*
X167950500Y-65784000D03*
X172471700Y-65784000D03*
D21*
X139400000Y-92600000D03*
X134000000Y-92600000D03*
X121800000Y-134000000D03*
X175199996Y-134000000D03*
X144600000Y-134600000D03*
X147200000Y-136200000D03*
X162471100Y-106271100D03*
X171800000Y-106200000D03*
X170600000Y-110800000D03*
X169013599Y-111786401D03*
X169013599Y-93413599D03*
X166088601Y-111711399D03*
X166000000Y-93399994D03*
X161200000Y-111400000D03*
X142200000Y-133400000D03*
X128800000Y-131000000D03*
X175800000Y-109800000D03*
X148400000Y-109800000D03*
X126400000Y-131000000D03*
X125702499Y-87897501D03*
X148300000Y-88300000D03*
X162800002Y-88400000D03*
X143800000Y-108600000D03*
X165000000Y-107800000D03*
X143600000Y-98200000D03*
X172200000Y-97200000D03*
D10*
X122800000Y-106800000D03*
D22*
X139480000Y-87880000D02*
X139480000Y-90010000D01*
X138400000Y-86800000D02*
X139480000Y-87880000D01*
X130000000Y-86800000D02*
X138400000Y-86800000D01*
X127590099Y-89209901D02*
X130000000Y-86800000D01*
X126780000Y-90010000D02*
X127580099Y-89209901D01*
X127580099Y-89209901D02*
X127590099Y-89209901D01*
X132991512Y-82390000D02*
X134400000Y-82390000D01*
X131860000Y-82390000D02*
X132991512Y-82390000D01*
X139400000Y-92600000D02*
X134000000Y-92600000D01*
X140888488Y-82390000D02*
X139480000Y-82390000D01*
X142020000Y-82390000D02*
X140888488Y-82390000D01*
X129320000Y-81258488D02*
X129320000Y-82390000D01*
X129320000Y-81080000D02*
X129320000Y-81258488D01*
X129800000Y-80600000D02*
X129320000Y-81080000D01*
X172400000Y-80600000D02*
X129800000Y-80600000D01*
X173430000Y-82590000D02*
X173430000Y-81630000D01*
X173430000Y-81630000D02*
X172400000Y-80600000D01*
D23*
X121831100Y-142221100D02*
X121833600Y-142223600D01*
X121831100Y-142221100D02*
X121833600Y-142223600D01*
X175171100Y-142221100D02*
X175173600Y-142223600D01*
X167950500Y-65784000D02*
X167950500Y-64323000D01*
X167950500Y-64323000D02*
X167868600Y-64241100D01*
D24*
X121833600Y-134033600D02*
X121800000Y-134000000D01*
X121833600Y-142223600D02*
X121833600Y-134033600D01*
X175199996Y-142197204D02*
X175173600Y-142223600D01*
X175199996Y-134000000D02*
X175199996Y-142197204D01*
X120400000Y-132600000D02*
X121800000Y-134000000D01*
X175199996Y-134000000D02*
X176800000Y-132399996D01*
X176800000Y-65200000D02*
X175841100Y-64241100D01*
X121758900Y-64241100D02*
X120400000Y-65600000D01*
X174571512Y-90200000D02*
X176800000Y-90200000D01*
X174561512Y-90210000D02*
X174571512Y-90200000D01*
X173430000Y-90210000D02*
X174561512Y-90210000D01*
X176728600Y-129328600D02*
X176800000Y-129400000D01*
X172631100Y-129328600D02*
X176728600Y-129328600D01*
X176800000Y-132399996D02*
X176800000Y-129400000D01*
X176800000Y-129400000D02*
X176800000Y-90200000D01*
X142020000Y-90010000D02*
X145030000Y-87000000D01*
X176600000Y-87000000D02*
X176800000Y-86800000D01*
X145030000Y-87000000D02*
X176600000Y-87000000D01*
X176800000Y-90200000D02*
X176800000Y-86800000D01*
X176800000Y-86800000D02*
X176800000Y-65200000D01*
X120600000Y-66800000D02*
X120400000Y-67000000D01*
X122730000Y-66800000D02*
X120600000Y-66800000D01*
X120400000Y-65600000D02*
X120400000Y-67000000D01*
X120400000Y-67000000D02*
X120400000Y-132600000D01*
X149758900Y-66372470D02*
X149758900Y-64241100D01*
X149331370Y-66800000D02*
X149758900Y-66372470D01*
X148200000Y-66800000D02*
X149331370Y-66800000D01*
X175841100Y-64241100D02*
X149758900Y-64241100D01*
X149758900Y-64241100D02*
X121758900Y-64241100D01*
D23*
X139611100Y-142221100D02*
X139613600Y-142223600D01*
X152311100Y-142221100D02*
X152313600Y-142223600D01*
D22*
X152313600Y-142223600D02*
X152400000Y-142137200D01*
X152400000Y-142137200D02*
X152400000Y-137500000D01*
X152400000Y-137500000D02*
X145900000Y-131000000D01*
X145900000Y-131000000D02*
X144000000Y-131000000D01*
X144000000Y-131000000D02*
X143400000Y-130400000D01*
X143400000Y-130400000D02*
X143400000Y-125200000D01*
X143400000Y-125200000D02*
X147231100Y-121368900D01*
X147231100Y-121368900D02*
X147231100Y-114088600D01*
D23*
X149771100Y-142221100D02*
X149773600Y-142223600D01*
D22*
X149771100Y-112957088D02*
X149771100Y-114088600D01*
X146600000Y-112400000D02*
X149214012Y-112400000D01*
X145800000Y-119800000D02*
X145800000Y-113200000D01*
X140800000Y-124800000D02*
X145800000Y-119800000D01*
X149214012Y-112400000D02*
X149771100Y-112957088D01*
X145800000Y-113200000D02*
X146600000Y-112400000D01*
X149773600Y-142223600D02*
X149800000Y-142197200D01*
X149800000Y-136200000D02*
X145600000Y-132000000D01*
X149800000Y-142197200D02*
X149800000Y-136200000D01*
X145600000Y-132000000D02*
X141800000Y-132000000D01*
X141800000Y-132000000D02*
X140800000Y-131000000D01*
X140800000Y-131000000D02*
X140800000Y-124800000D01*
D23*
X144691100Y-142221100D02*
X144693600Y-142223600D01*
D22*
X144600000Y-142130000D02*
X144600000Y-134600000D01*
X144693600Y-142223600D02*
X144600000Y-142130000D01*
D23*
X147231100Y-142221100D02*
X147233600Y-142223600D01*
D22*
X147233600Y-136233600D02*
X147200000Y-136200000D01*
X147233600Y-142223600D02*
X147233600Y-136233600D01*
X171728900Y-106271100D02*
X171800000Y-106200000D01*
X162471100Y-106271100D02*
X171728900Y-106271100D01*
X170600000Y-112057500D02*
X172631100Y-114088600D01*
X170600000Y-110800000D02*
X170600000Y-112057500D01*
X166610099Y-91010099D02*
X165810000Y-90210000D01*
X169013599Y-93413599D02*
X169013599Y-93413599D01*
X169013599Y-128251099D02*
X169013599Y-111786401D01*
X170091100Y-129328600D02*
X169013599Y-128251099D01*
X169013599Y-93413599D02*
X166610099Y-91010099D01*
X166088601Y-116088601D02*
X166088601Y-111711399D01*
X167551100Y-129328600D02*
X167551100Y-117551100D01*
X167551100Y-117551100D02*
X166088601Y-116088601D01*
X158190000Y-90210000D02*
X161379994Y-93399994D01*
X161379994Y-93399994D02*
X165434315Y-93399994D01*
X165434315Y-93399994D02*
X166000000Y-93399994D01*
X161199999Y-125517499D02*
X161199999Y-111243090D01*
X165011100Y-129328600D02*
X161199999Y-125517499D01*
D23*
X142151100Y-142221100D02*
X142153600Y-142223600D01*
D22*
X142200000Y-142177200D02*
X142200000Y-133400000D01*
X142153600Y-142223600D02*
X142200000Y-142177200D01*
D23*
X131991100Y-142221100D02*
X131993600Y-142223600D01*
D22*
X130728488Y-90010000D02*
X129320000Y-90010000D01*
X131860000Y-90010000D02*
X130728488Y-90010000D01*
X131993600Y-134393600D02*
X131993600Y-142223600D01*
X128800000Y-131200000D02*
X131993600Y-134393600D01*
X128800000Y-131000000D02*
X128800000Y-131200000D01*
X175234315Y-109800000D02*
X175800000Y-109800000D01*
X148400000Y-109800000D02*
X175234315Y-109800000D01*
D23*
X124371100Y-142221100D02*
X124373600Y-142223600D01*
X129451100Y-142221100D02*
X129453600Y-142223600D01*
X172471700Y-65828600D02*
X172471700Y-65784000D01*
X126911100Y-142221100D02*
X126913600Y-142223600D01*
D22*
X148380000Y-92400000D02*
X150570000Y-90210000D01*
X141800000Y-92400000D02*
X148380000Y-92400000D01*
X140800000Y-91400000D02*
X141800000Y-92400000D01*
X140800000Y-87000000D02*
X140800000Y-91400000D01*
X139400000Y-85600000D02*
X140800000Y-87000000D01*
X128000000Y-85600000D02*
X139400000Y-85600000D01*
X126400000Y-137360000D02*
X126400000Y-131000000D01*
X126913600Y-137873600D02*
X126400000Y-137360000D01*
X126913600Y-142223600D02*
X126913600Y-137873600D01*
X125702499Y-87897501D02*
X125702499Y-87897501D01*
X125702499Y-87897501D02*
X128000000Y-85600000D01*
X125702499Y-87897501D02*
X124604998Y-86800000D01*
X124604998Y-86800000D02*
X124604998Y-79795002D01*
X124604998Y-79795002D02*
X125800000Y-78600000D01*
X125800000Y-78600000D02*
X170800000Y-78600000D01*
X170800000Y-78600000D02*
X171600000Y-77800000D01*
X171600000Y-66655700D02*
X172471700Y-65784000D01*
X171600000Y-77800000D02*
X171600000Y-66655700D01*
X162100000Y-88300000D02*
X162100000Y-88300000D01*
X148300000Y-88300000D02*
X162700002Y-88300000D01*
X162700002Y-88300000D02*
X162800002Y-88400000D01*
D23*
X162471100Y-129963600D02*
X162471100Y-129328600D01*
X172631100Y-142221100D02*
X172633600Y-142223600D01*
D22*
X163548601Y-130406101D02*
X170406101Y-130406101D01*
X162471100Y-129328600D02*
X163548601Y-130406101D01*
X172633600Y-132633600D02*
X172633600Y-142223600D01*
X170406101Y-130406101D02*
X172633600Y-132633600D01*
D23*
X159931100Y-129963600D02*
X159931100Y-129328600D01*
X170091100Y-142221100D02*
X170093600Y-142223600D01*
D22*
X170093600Y-132693600D02*
X170093600Y-142223600D01*
X168400000Y-131000000D02*
X170093600Y-132693600D01*
X160470988Y-131000000D02*
X168400000Y-131000000D01*
X159931100Y-129328600D02*
X159931100Y-130460112D01*
X159931100Y-130460112D02*
X160470988Y-131000000D01*
D23*
X157391100Y-129963600D02*
X157391100Y-129328600D01*
X167551100Y-142221100D02*
X167553600Y-142223600D01*
D22*
X167553600Y-133153600D02*
X167553600Y-142223600D01*
X166200000Y-131800000D02*
X167553600Y-133153600D01*
X157391100Y-129328600D02*
X159862500Y-131800000D01*
X159862500Y-131800000D02*
X166200000Y-131800000D01*
D23*
X154851100Y-129963600D02*
X154851100Y-129328600D01*
X165011100Y-142221100D02*
X165013600Y-142223600D01*
D22*
X154851100Y-130460112D02*
X156990988Y-132600000D01*
X154851100Y-129328600D02*
X154851100Y-130460112D01*
X156990988Y-132600000D02*
X163600000Y-132600000D01*
X165013600Y-134013600D02*
X165013600Y-142223600D01*
X163600000Y-132600000D02*
X165013600Y-134013600D01*
D23*
X152311100Y-129963600D02*
X152311100Y-129328600D01*
X162471100Y-142221100D02*
X162473600Y-142223600D01*
D22*
X162473600Y-134673600D02*
X162473600Y-142223600D01*
X161400000Y-133600000D02*
X162473600Y-134673600D01*
X152311100Y-129328600D02*
X156582500Y-133600000D01*
X156582500Y-133600000D02*
X161400000Y-133600000D01*
D23*
X149771100Y-129963600D02*
X149771100Y-129328600D01*
X159931100Y-142221100D02*
X159933600Y-142223600D01*
D22*
X159933600Y-135333600D02*
X159933600Y-142223600D01*
X159000000Y-134400000D02*
X159933600Y-135333600D01*
X153710988Y-134400000D02*
X159000000Y-134400000D01*
X149771100Y-129328600D02*
X149771100Y-130460112D01*
X149771100Y-130460112D02*
X153710988Y-134400000D01*
D23*
X147231100Y-129963600D02*
X147231100Y-129328600D01*
X157391100Y-142221100D02*
X157393600Y-142223600D01*
D22*
X147231100Y-129328600D02*
X153502500Y-135600000D01*
X153502500Y-135600000D02*
X156400000Y-135600000D01*
X157393600Y-136593600D02*
X157393600Y-142223600D01*
X156400000Y-135600000D02*
X157393600Y-136593600D01*
D23*
X144691100Y-129963600D02*
X144691100Y-129328600D01*
X154851100Y-142221100D02*
X154853600Y-142223600D01*
D22*
X154800000Y-142170000D02*
X154853600Y-142223600D01*
X154800000Y-138600000D02*
X154800000Y-142170000D01*
X146328699Y-130128699D02*
X154800000Y-138600000D01*
X144691100Y-129328600D02*
X145491199Y-130128699D01*
X145491199Y-130128699D02*
X146328699Y-130128699D01*
X165000000Y-107800000D02*
X165000000Y-107800000D01*
X144600000Y-107800000D02*
X165000000Y-107800000D01*
X143800000Y-108600000D02*
X144600000Y-107800000D01*
X172200000Y-97200000D02*
X172200000Y-97200000D01*
X143600000Y-98200000D02*
X171200000Y-98200000D01*
X171200000Y-98200000D02*
X172200000Y-97200000D01*
D24*
X132250000Y-106800000D02*
X122800000Y-106800000D01*
X133600000Y-106800000D02*
X132250000Y-106800000D01*
M02*
