G04 #@! TF.GenerationSoftware,KiCad,Pcbnew,(5.1.2)-2*
G04 #@! TF.CreationDate,2020-09-20T10:45:48+02:00*
G04 #@! TF.ProjectId,FCIII+e5frog134_double_holes_HCT04,46434949-492b-4653-9566-726f67313334,rev?*
G04 #@! TF.SameCoordinates,Original*
G04 #@! TF.FileFunction,Soldermask,Top*
G04 #@! TF.FilePolarity,Negative*
%FSLAX46Y46*%
G04 Gerber Fmt 4.6, Leading zero omitted, Abs format (unit mm)*
G04 Created by KiCad (PCBNEW (5.1.2)-2) date 2020-09-20 10:45:48*
%MOMM*%
%LPD*%
G04 APERTURE LIST*
%ADD10C,0.100000*%
G04 APERTURE END LIST*
D10*
G36*
X150436986Y-137906651D02*
G01*
X150521410Y-137932261D01*
X150599204Y-137973842D01*
X150667395Y-138029805D01*
X150723358Y-138097996D01*
X150764939Y-138175790D01*
X150790549Y-138260214D01*
X150799800Y-138354140D01*
X150799800Y-146093060D01*
X150790549Y-146186986D01*
X150764939Y-146271410D01*
X150723358Y-146349204D01*
X150667395Y-146417395D01*
X150599204Y-146473358D01*
X150521410Y-146514939D01*
X150436986Y-146540549D01*
X150343060Y-146549800D01*
X149204140Y-146549800D01*
X149110214Y-146540549D01*
X149025790Y-146514939D01*
X148947996Y-146473358D01*
X148879805Y-146417395D01*
X148823842Y-146349204D01*
X148782261Y-146271410D01*
X148756651Y-146186986D01*
X148747400Y-146093060D01*
X148747400Y-138354140D01*
X148756651Y-138260214D01*
X148782261Y-138175790D01*
X148823842Y-138097996D01*
X148879805Y-138029805D01*
X148947996Y-137973842D01*
X149025790Y-137932261D01*
X149110214Y-137906651D01*
X149204140Y-137897400D01*
X150343060Y-137897400D01*
X150436986Y-137906651D01*
X150436986Y-137906651D01*
G37*
G36*
X168216986Y-137906651D02*
G01*
X168301410Y-137932261D01*
X168379204Y-137973842D01*
X168447395Y-138029805D01*
X168503358Y-138097996D01*
X168544939Y-138175790D01*
X168570549Y-138260214D01*
X168579800Y-138354140D01*
X168579800Y-146093060D01*
X168570549Y-146186986D01*
X168544939Y-146271410D01*
X168503358Y-146349204D01*
X168447395Y-146417395D01*
X168379204Y-146473358D01*
X168301410Y-146514939D01*
X168216986Y-146540549D01*
X168123060Y-146549800D01*
X166984140Y-146549800D01*
X166890214Y-146540549D01*
X166805790Y-146514939D01*
X166727996Y-146473358D01*
X166659805Y-146417395D01*
X166603842Y-146349204D01*
X166562261Y-146271410D01*
X166536651Y-146186986D01*
X166527400Y-146093060D01*
X166527400Y-138354140D01*
X166536651Y-138260214D01*
X166562261Y-138175790D01*
X166603842Y-138097996D01*
X166659805Y-138029805D01*
X166727996Y-137973842D01*
X166805790Y-137932261D01*
X166890214Y-137906651D01*
X166984140Y-137897400D01*
X168123060Y-137897400D01*
X168216986Y-137906651D01*
X168216986Y-137906651D01*
G37*
G36*
X132656986Y-137906651D02*
G01*
X132741410Y-137932261D01*
X132819204Y-137973842D01*
X132887395Y-138029805D01*
X132943358Y-138097996D01*
X132984939Y-138175790D01*
X133010549Y-138260214D01*
X133019800Y-138354140D01*
X133019800Y-146093060D01*
X133010549Y-146186986D01*
X132984939Y-146271410D01*
X132943358Y-146349204D01*
X132887395Y-146417395D01*
X132819204Y-146473358D01*
X132741410Y-146514939D01*
X132656986Y-146540549D01*
X132563060Y-146549800D01*
X131424140Y-146549800D01*
X131330214Y-146540549D01*
X131245790Y-146514939D01*
X131167996Y-146473358D01*
X131099805Y-146417395D01*
X131043842Y-146349204D01*
X131002261Y-146271410D01*
X130976651Y-146186986D01*
X130967400Y-146093060D01*
X130967400Y-138354140D01*
X130976651Y-138260214D01*
X131002261Y-138175790D01*
X131043842Y-138097996D01*
X131099805Y-138029805D01*
X131167996Y-137973842D01*
X131245790Y-137932261D01*
X131330214Y-137906651D01*
X131424140Y-137897400D01*
X132563060Y-137897400D01*
X132656986Y-137906651D01*
X132656986Y-137906651D01*
G37*
G36*
X130116986Y-137906651D02*
G01*
X130201410Y-137932261D01*
X130279204Y-137973842D01*
X130347395Y-138029805D01*
X130403358Y-138097996D01*
X130444939Y-138175790D01*
X130470549Y-138260214D01*
X130479800Y-138354140D01*
X130479800Y-146093060D01*
X130470549Y-146186986D01*
X130444939Y-146271410D01*
X130403358Y-146349204D01*
X130347395Y-146417395D01*
X130279204Y-146473358D01*
X130201410Y-146514939D01*
X130116986Y-146540549D01*
X130023060Y-146549800D01*
X128884140Y-146549800D01*
X128790214Y-146540549D01*
X128705790Y-146514939D01*
X128627996Y-146473358D01*
X128559805Y-146417395D01*
X128503842Y-146349204D01*
X128462261Y-146271410D01*
X128436651Y-146186986D01*
X128427400Y-146093060D01*
X128427400Y-138354140D01*
X128436651Y-138260214D01*
X128462261Y-138175790D01*
X128503842Y-138097996D01*
X128559805Y-138029805D01*
X128627996Y-137973842D01*
X128705790Y-137932261D01*
X128790214Y-137906651D01*
X128884140Y-137897400D01*
X130023060Y-137897400D01*
X130116986Y-137906651D01*
X130116986Y-137906651D01*
G37*
G36*
X127576986Y-137906651D02*
G01*
X127661410Y-137932261D01*
X127739204Y-137973842D01*
X127807395Y-138029805D01*
X127863358Y-138097996D01*
X127904939Y-138175790D01*
X127930549Y-138260214D01*
X127939800Y-138354140D01*
X127939800Y-146093060D01*
X127930549Y-146186986D01*
X127904939Y-146271410D01*
X127863358Y-146349204D01*
X127807395Y-146417395D01*
X127739204Y-146473358D01*
X127661410Y-146514939D01*
X127576986Y-146540549D01*
X127483060Y-146549800D01*
X126344140Y-146549800D01*
X126250214Y-146540549D01*
X126165790Y-146514939D01*
X126087996Y-146473358D01*
X126019805Y-146417395D01*
X125963842Y-146349204D01*
X125922261Y-146271410D01*
X125896651Y-146186986D01*
X125887400Y-146093060D01*
X125887400Y-138354140D01*
X125896651Y-138260214D01*
X125922261Y-138175790D01*
X125963842Y-138097996D01*
X126019805Y-138029805D01*
X126087996Y-137973842D01*
X126165790Y-137932261D01*
X126250214Y-137906651D01*
X126344140Y-137897400D01*
X127483060Y-137897400D01*
X127576986Y-137906651D01*
X127576986Y-137906651D01*
G37*
G36*
X125036986Y-137906651D02*
G01*
X125121410Y-137932261D01*
X125199204Y-137973842D01*
X125267395Y-138029805D01*
X125323358Y-138097996D01*
X125364939Y-138175790D01*
X125390549Y-138260214D01*
X125399800Y-138354140D01*
X125399800Y-146093060D01*
X125390549Y-146186986D01*
X125364939Y-146271410D01*
X125323358Y-146349204D01*
X125267395Y-146417395D01*
X125199204Y-146473358D01*
X125121410Y-146514939D01*
X125036986Y-146540549D01*
X124943060Y-146549800D01*
X123804140Y-146549800D01*
X123710214Y-146540549D01*
X123625790Y-146514939D01*
X123547996Y-146473358D01*
X123479805Y-146417395D01*
X123423842Y-146349204D01*
X123382261Y-146271410D01*
X123356651Y-146186986D01*
X123347400Y-146093060D01*
X123347400Y-138354140D01*
X123356651Y-138260214D01*
X123382261Y-138175790D01*
X123423842Y-138097996D01*
X123479805Y-138029805D01*
X123547996Y-137973842D01*
X123625790Y-137932261D01*
X123710214Y-137906651D01*
X123804140Y-137897400D01*
X124943060Y-137897400D01*
X125036986Y-137906651D01*
X125036986Y-137906651D01*
G37*
G36*
X122496986Y-137906651D02*
G01*
X122581410Y-137932261D01*
X122659204Y-137973842D01*
X122727395Y-138029805D01*
X122783358Y-138097996D01*
X122824939Y-138175790D01*
X122850549Y-138260214D01*
X122859800Y-138354140D01*
X122859800Y-146093060D01*
X122850549Y-146186986D01*
X122824939Y-146271410D01*
X122783358Y-146349204D01*
X122727395Y-146417395D01*
X122659204Y-146473358D01*
X122581410Y-146514939D01*
X122496986Y-146540549D01*
X122403060Y-146549800D01*
X121264140Y-146549800D01*
X121170214Y-146540549D01*
X121085790Y-146514939D01*
X121007996Y-146473358D01*
X120939805Y-146417395D01*
X120883842Y-146349204D01*
X120842261Y-146271410D01*
X120816651Y-146186986D01*
X120807400Y-146093060D01*
X120807400Y-138354140D01*
X120816651Y-138260214D01*
X120842261Y-138175790D01*
X120883842Y-138097996D01*
X120939805Y-138029805D01*
X121007996Y-137973842D01*
X121085790Y-137932261D01*
X121170214Y-137906651D01*
X121264140Y-137897400D01*
X122403060Y-137897400D01*
X122496986Y-137906651D01*
X122496986Y-137906651D01*
G37*
G36*
X152976986Y-137906651D02*
G01*
X153061410Y-137932261D01*
X153139204Y-137973842D01*
X153207395Y-138029805D01*
X153263358Y-138097996D01*
X153304939Y-138175790D01*
X153330549Y-138260214D01*
X153339800Y-138354140D01*
X153339800Y-146093060D01*
X153330549Y-146186986D01*
X153304939Y-146271410D01*
X153263358Y-146349204D01*
X153207395Y-146417395D01*
X153139204Y-146473358D01*
X153061410Y-146514939D01*
X152976986Y-146540549D01*
X152883060Y-146549800D01*
X151744140Y-146549800D01*
X151650214Y-146540549D01*
X151565790Y-146514939D01*
X151487996Y-146473358D01*
X151419805Y-146417395D01*
X151363842Y-146349204D01*
X151322261Y-146271410D01*
X151296651Y-146186986D01*
X151287400Y-146093060D01*
X151287400Y-138354140D01*
X151296651Y-138260214D01*
X151322261Y-138175790D01*
X151363842Y-138097996D01*
X151419805Y-138029805D01*
X151487996Y-137973842D01*
X151565790Y-137932261D01*
X151650214Y-137906651D01*
X151744140Y-137897400D01*
X152883060Y-137897400D01*
X152976986Y-137906651D01*
X152976986Y-137906651D01*
G37*
G36*
X155516986Y-137906651D02*
G01*
X155601410Y-137932261D01*
X155679204Y-137973842D01*
X155747395Y-138029805D01*
X155803358Y-138097996D01*
X155844939Y-138175790D01*
X155870549Y-138260214D01*
X155879800Y-138354140D01*
X155879800Y-146093060D01*
X155870549Y-146186986D01*
X155844939Y-146271410D01*
X155803358Y-146349204D01*
X155747395Y-146417395D01*
X155679204Y-146473358D01*
X155601410Y-146514939D01*
X155516986Y-146540549D01*
X155423060Y-146549800D01*
X154284140Y-146549800D01*
X154190214Y-146540549D01*
X154105790Y-146514939D01*
X154027996Y-146473358D01*
X153959805Y-146417395D01*
X153903842Y-146349204D01*
X153862261Y-146271410D01*
X153836651Y-146186986D01*
X153827400Y-146093060D01*
X153827400Y-138354140D01*
X153836651Y-138260214D01*
X153862261Y-138175790D01*
X153903842Y-138097996D01*
X153959805Y-138029805D01*
X154027996Y-137973842D01*
X154105790Y-137932261D01*
X154190214Y-137906651D01*
X154284140Y-137897400D01*
X155423060Y-137897400D01*
X155516986Y-137906651D01*
X155516986Y-137906651D01*
G37*
G36*
X158056986Y-137906651D02*
G01*
X158141410Y-137932261D01*
X158219204Y-137973842D01*
X158287395Y-138029805D01*
X158343358Y-138097996D01*
X158384939Y-138175790D01*
X158410549Y-138260214D01*
X158419800Y-138354140D01*
X158419800Y-146093060D01*
X158410549Y-146186986D01*
X158384939Y-146271410D01*
X158343358Y-146349204D01*
X158287395Y-146417395D01*
X158219204Y-146473358D01*
X158141410Y-146514939D01*
X158056986Y-146540549D01*
X157963060Y-146549800D01*
X156824140Y-146549800D01*
X156730214Y-146540549D01*
X156645790Y-146514939D01*
X156567996Y-146473358D01*
X156499805Y-146417395D01*
X156443842Y-146349204D01*
X156402261Y-146271410D01*
X156376651Y-146186986D01*
X156367400Y-146093060D01*
X156367400Y-138354140D01*
X156376651Y-138260214D01*
X156402261Y-138175790D01*
X156443842Y-138097996D01*
X156499805Y-138029805D01*
X156567996Y-137973842D01*
X156645790Y-137932261D01*
X156730214Y-137906651D01*
X156824140Y-137897400D01*
X157963060Y-137897400D01*
X158056986Y-137906651D01*
X158056986Y-137906651D01*
G37*
G36*
X160596986Y-137906651D02*
G01*
X160681410Y-137932261D01*
X160759204Y-137973842D01*
X160827395Y-138029805D01*
X160883358Y-138097996D01*
X160924939Y-138175790D01*
X160950549Y-138260214D01*
X160959800Y-138354140D01*
X160959800Y-146093060D01*
X160950549Y-146186986D01*
X160924939Y-146271410D01*
X160883358Y-146349204D01*
X160827395Y-146417395D01*
X160759204Y-146473358D01*
X160681410Y-146514939D01*
X160596986Y-146540549D01*
X160503060Y-146549800D01*
X159364140Y-146549800D01*
X159270214Y-146540549D01*
X159185790Y-146514939D01*
X159107996Y-146473358D01*
X159039805Y-146417395D01*
X158983842Y-146349204D01*
X158942261Y-146271410D01*
X158916651Y-146186986D01*
X158907400Y-146093060D01*
X158907400Y-138354140D01*
X158916651Y-138260214D01*
X158942261Y-138175790D01*
X158983842Y-138097996D01*
X159039805Y-138029805D01*
X159107996Y-137973842D01*
X159185790Y-137932261D01*
X159270214Y-137906651D01*
X159364140Y-137897400D01*
X160503060Y-137897400D01*
X160596986Y-137906651D01*
X160596986Y-137906651D01*
G37*
G36*
X163136986Y-137906651D02*
G01*
X163221410Y-137932261D01*
X163299204Y-137973842D01*
X163367395Y-138029805D01*
X163423358Y-138097996D01*
X163464939Y-138175790D01*
X163490549Y-138260214D01*
X163499800Y-138354140D01*
X163499800Y-146093060D01*
X163490549Y-146186986D01*
X163464939Y-146271410D01*
X163423358Y-146349204D01*
X163367395Y-146417395D01*
X163299204Y-146473358D01*
X163221410Y-146514939D01*
X163136986Y-146540549D01*
X163043060Y-146549800D01*
X161904140Y-146549800D01*
X161810214Y-146540549D01*
X161725790Y-146514939D01*
X161647996Y-146473358D01*
X161579805Y-146417395D01*
X161523842Y-146349204D01*
X161482261Y-146271410D01*
X161456651Y-146186986D01*
X161447400Y-146093060D01*
X161447400Y-138354140D01*
X161456651Y-138260214D01*
X161482261Y-138175790D01*
X161523842Y-138097996D01*
X161579805Y-138029805D01*
X161647996Y-137973842D01*
X161725790Y-137932261D01*
X161810214Y-137906651D01*
X161904140Y-137897400D01*
X163043060Y-137897400D01*
X163136986Y-137906651D01*
X163136986Y-137906651D01*
G37*
G36*
X170756986Y-137906651D02*
G01*
X170841410Y-137932261D01*
X170919204Y-137973842D01*
X170987395Y-138029805D01*
X171043358Y-138097996D01*
X171084939Y-138175790D01*
X171110549Y-138260214D01*
X171119800Y-138354140D01*
X171119800Y-146093060D01*
X171110549Y-146186986D01*
X171084939Y-146271410D01*
X171043358Y-146349204D01*
X170987395Y-146417395D01*
X170919204Y-146473358D01*
X170841410Y-146514939D01*
X170756986Y-146540549D01*
X170663060Y-146549800D01*
X169524140Y-146549800D01*
X169430214Y-146540549D01*
X169345790Y-146514939D01*
X169267996Y-146473358D01*
X169199805Y-146417395D01*
X169143842Y-146349204D01*
X169102261Y-146271410D01*
X169076651Y-146186986D01*
X169067400Y-146093060D01*
X169067400Y-138354140D01*
X169076651Y-138260214D01*
X169102261Y-138175790D01*
X169143842Y-138097996D01*
X169199805Y-138029805D01*
X169267996Y-137973842D01*
X169345790Y-137932261D01*
X169430214Y-137906651D01*
X169524140Y-137897400D01*
X170663060Y-137897400D01*
X170756986Y-137906651D01*
X170756986Y-137906651D01*
G37*
G36*
X147896986Y-137906651D02*
G01*
X147981410Y-137932261D01*
X148059204Y-137973842D01*
X148127395Y-138029805D01*
X148183358Y-138097996D01*
X148224939Y-138175790D01*
X148250549Y-138260214D01*
X148259800Y-138354140D01*
X148259800Y-146093060D01*
X148250549Y-146186986D01*
X148224939Y-146271410D01*
X148183358Y-146349204D01*
X148127395Y-146417395D01*
X148059204Y-146473358D01*
X147981410Y-146514939D01*
X147896986Y-146540549D01*
X147803060Y-146549800D01*
X146664140Y-146549800D01*
X146570214Y-146540549D01*
X146485790Y-146514939D01*
X146407996Y-146473358D01*
X146339805Y-146417395D01*
X146283842Y-146349204D01*
X146242261Y-146271410D01*
X146216651Y-146186986D01*
X146207400Y-146093060D01*
X146207400Y-138354140D01*
X146216651Y-138260214D01*
X146242261Y-138175790D01*
X146283842Y-138097996D01*
X146339805Y-138029805D01*
X146407996Y-137973842D01*
X146485790Y-137932261D01*
X146570214Y-137906651D01*
X146664140Y-137897400D01*
X147803060Y-137897400D01*
X147896986Y-137906651D01*
X147896986Y-137906651D01*
G37*
G36*
X145356986Y-137906651D02*
G01*
X145441410Y-137932261D01*
X145519204Y-137973842D01*
X145587395Y-138029805D01*
X145643358Y-138097996D01*
X145684939Y-138175790D01*
X145710549Y-138260214D01*
X145719800Y-138354140D01*
X145719800Y-146093060D01*
X145710549Y-146186986D01*
X145684939Y-146271410D01*
X145643358Y-146349204D01*
X145587395Y-146417395D01*
X145519204Y-146473358D01*
X145441410Y-146514939D01*
X145356986Y-146540549D01*
X145263060Y-146549800D01*
X144124140Y-146549800D01*
X144030214Y-146540549D01*
X143945790Y-146514939D01*
X143867996Y-146473358D01*
X143799805Y-146417395D01*
X143743842Y-146349204D01*
X143702261Y-146271410D01*
X143676651Y-146186986D01*
X143667400Y-146093060D01*
X143667400Y-138354140D01*
X143676651Y-138260214D01*
X143702261Y-138175790D01*
X143743842Y-138097996D01*
X143799805Y-138029805D01*
X143867996Y-137973842D01*
X143945790Y-137932261D01*
X144030214Y-137906651D01*
X144124140Y-137897400D01*
X145263060Y-137897400D01*
X145356986Y-137906651D01*
X145356986Y-137906651D01*
G37*
G36*
X142816986Y-137906651D02*
G01*
X142901410Y-137932261D01*
X142979204Y-137973842D01*
X143047395Y-138029805D01*
X143103358Y-138097996D01*
X143144939Y-138175790D01*
X143170549Y-138260214D01*
X143179800Y-138354140D01*
X143179800Y-146093060D01*
X143170549Y-146186986D01*
X143144939Y-146271410D01*
X143103358Y-146349204D01*
X143047395Y-146417395D01*
X142979204Y-146473358D01*
X142901410Y-146514939D01*
X142816986Y-146540549D01*
X142723060Y-146549800D01*
X141584140Y-146549800D01*
X141490214Y-146540549D01*
X141405790Y-146514939D01*
X141327996Y-146473358D01*
X141259805Y-146417395D01*
X141203842Y-146349204D01*
X141162261Y-146271410D01*
X141136651Y-146186986D01*
X141127400Y-146093060D01*
X141127400Y-138354140D01*
X141136651Y-138260214D01*
X141162261Y-138175790D01*
X141203842Y-138097996D01*
X141259805Y-138029805D01*
X141327996Y-137973842D01*
X141405790Y-137932261D01*
X141490214Y-137906651D01*
X141584140Y-137897400D01*
X142723060Y-137897400D01*
X142816986Y-137906651D01*
X142816986Y-137906651D01*
G37*
G36*
X175836986Y-137906651D02*
G01*
X175921410Y-137932261D01*
X175999204Y-137973842D01*
X176067395Y-138029805D01*
X176123358Y-138097996D01*
X176164939Y-138175790D01*
X176190549Y-138260214D01*
X176199800Y-138354140D01*
X176199800Y-146093060D01*
X176190549Y-146186986D01*
X176164939Y-146271410D01*
X176123358Y-146349204D01*
X176067395Y-146417395D01*
X175999204Y-146473358D01*
X175921410Y-146514939D01*
X175836986Y-146540549D01*
X175743060Y-146549800D01*
X174604140Y-146549800D01*
X174510214Y-146540549D01*
X174425790Y-146514939D01*
X174347996Y-146473358D01*
X174279805Y-146417395D01*
X174223842Y-146349204D01*
X174182261Y-146271410D01*
X174156651Y-146186986D01*
X174147400Y-146093060D01*
X174147400Y-138354140D01*
X174156651Y-138260214D01*
X174182261Y-138175790D01*
X174223842Y-138097996D01*
X174279805Y-138029805D01*
X174347996Y-137973842D01*
X174425790Y-137932261D01*
X174510214Y-137906651D01*
X174604140Y-137897400D01*
X175743060Y-137897400D01*
X175836986Y-137906651D01*
X175836986Y-137906651D01*
G37*
G36*
X140276986Y-137906651D02*
G01*
X140361410Y-137932261D01*
X140439204Y-137973842D01*
X140507395Y-138029805D01*
X140563358Y-138097996D01*
X140604939Y-138175790D01*
X140630549Y-138260214D01*
X140639800Y-138354140D01*
X140639800Y-146093060D01*
X140630549Y-146186986D01*
X140604939Y-146271410D01*
X140563358Y-146349204D01*
X140507395Y-146417395D01*
X140439204Y-146473358D01*
X140361410Y-146514939D01*
X140276986Y-146540549D01*
X140183060Y-146549800D01*
X139044140Y-146549800D01*
X138950214Y-146540549D01*
X138865790Y-146514939D01*
X138787996Y-146473358D01*
X138719805Y-146417395D01*
X138663842Y-146349204D01*
X138622261Y-146271410D01*
X138596651Y-146186986D01*
X138587400Y-146093060D01*
X138587400Y-138354140D01*
X138596651Y-138260214D01*
X138622261Y-138175790D01*
X138663842Y-138097996D01*
X138719805Y-138029805D01*
X138787996Y-137973842D01*
X138865790Y-137932261D01*
X138950214Y-137906651D01*
X139044140Y-137897400D01*
X140183060Y-137897400D01*
X140276986Y-137906651D01*
X140276986Y-137906651D01*
G37*
G36*
X137736986Y-137906651D02*
G01*
X137821410Y-137932261D01*
X137899204Y-137973842D01*
X137967395Y-138029805D01*
X138023358Y-138097996D01*
X138064939Y-138175790D01*
X138090549Y-138260214D01*
X138099800Y-138354140D01*
X138099800Y-146093060D01*
X138090549Y-146186986D01*
X138064939Y-146271410D01*
X138023358Y-146349204D01*
X137967395Y-146417395D01*
X137899204Y-146473358D01*
X137821410Y-146514939D01*
X137736986Y-146540549D01*
X137643060Y-146549800D01*
X136504140Y-146549800D01*
X136410214Y-146540549D01*
X136325790Y-146514939D01*
X136247996Y-146473358D01*
X136179805Y-146417395D01*
X136123842Y-146349204D01*
X136082261Y-146271410D01*
X136056651Y-146186986D01*
X136047400Y-146093060D01*
X136047400Y-138354140D01*
X136056651Y-138260214D01*
X136082261Y-138175790D01*
X136123842Y-138097996D01*
X136179805Y-138029805D01*
X136247996Y-137973842D01*
X136325790Y-137932261D01*
X136410214Y-137906651D01*
X136504140Y-137897400D01*
X137643060Y-137897400D01*
X137736986Y-137906651D01*
X137736986Y-137906651D01*
G37*
G36*
X135196986Y-137906651D02*
G01*
X135281410Y-137932261D01*
X135359204Y-137973842D01*
X135427395Y-138029805D01*
X135483358Y-138097996D01*
X135524939Y-138175790D01*
X135550549Y-138260214D01*
X135559800Y-138354140D01*
X135559800Y-146093060D01*
X135550549Y-146186986D01*
X135524939Y-146271410D01*
X135483358Y-146349204D01*
X135427395Y-146417395D01*
X135359204Y-146473358D01*
X135281410Y-146514939D01*
X135196986Y-146540549D01*
X135103060Y-146549800D01*
X133964140Y-146549800D01*
X133870214Y-146540549D01*
X133785790Y-146514939D01*
X133707996Y-146473358D01*
X133639805Y-146417395D01*
X133583842Y-146349204D01*
X133542261Y-146271410D01*
X133516651Y-146186986D01*
X133507400Y-146093060D01*
X133507400Y-138354140D01*
X133516651Y-138260214D01*
X133542261Y-138175790D01*
X133583842Y-138097996D01*
X133639805Y-138029805D01*
X133707996Y-137973842D01*
X133785790Y-137932261D01*
X133870214Y-137906651D01*
X133964140Y-137897400D01*
X135103060Y-137897400D01*
X135196986Y-137906651D01*
X135196986Y-137906651D01*
G37*
G36*
X173296986Y-137906651D02*
G01*
X173381410Y-137932261D01*
X173459204Y-137973842D01*
X173527395Y-138029805D01*
X173583358Y-138097996D01*
X173624939Y-138175790D01*
X173650549Y-138260214D01*
X173659800Y-138354140D01*
X173659800Y-146093060D01*
X173650549Y-146186986D01*
X173624939Y-146271410D01*
X173583358Y-146349204D01*
X173527395Y-146417395D01*
X173459204Y-146473358D01*
X173381410Y-146514939D01*
X173296986Y-146540549D01*
X173203060Y-146549800D01*
X172064140Y-146549800D01*
X171970214Y-146540549D01*
X171885790Y-146514939D01*
X171807996Y-146473358D01*
X171739805Y-146417395D01*
X171683842Y-146349204D01*
X171642261Y-146271410D01*
X171616651Y-146186986D01*
X171607400Y-146093060D01*
X171607400Y-138354140D01*
X171616651Y-138260214D01*
X171642261Y-138175790D01*
X171683842Y-138097996D01*
X171739805Y-138029805D01*
X171807996Y-137973842D01*
X171885790Y-137932261D01*
X171970214Y-137906651D01*
X172064140Y-137897400D01*
X173203060Y-137897400D01*
X173296986Y-137906651D01*
X173296986Y-137906651D01*
G37*
G36*
X165676986Y-137906651D02*
G01*
X165761410Y-137932261D01*
X165839204Y-137973842D01*
X165907395Y-138029805D01*
X165963358Y-138097996D01*
X166004939Y-138175790D01*
X166030549Y-138260214D01*
X166039800Y-138354140D01*
X166039800Y-146093060D01*
X166030549Y-146186986D01*
X166004939Y-146271410D01*
X165963358Y-146349204D01*
X165907395Y-146417395D01*
X165839204Y-146473358D01*
X165761410Y-146514939D01*
X165676986Y-146540549D01*
X165583060Y-146549800D01*
X164444140Y-146549800D01*
X164350214Y-146540549D01*
X164265790Y-146514939D01*
X164187996Y-146473358D01*
X164119805Y-146417395D01*
X164063842Y-146349204D01*
X164022261Y-146271410D01*
X163996651Y-146186986D01*
X163987400Y-146093060D01*
X163987400Y-138354140D01*
X163996651Y-138260214D01*
X164022261Y-138175790D01*
X164063842Y-138097996D01*
X164119805Y-138029805D01*
X164187996Y-137973842D01*
X164265790Y-137932261D01*
X164350214Y-137906651D01*
X164444140Y-137897400D01*
X165583060Y-137897400D01*
X165676986Y-137906651D01*
X165676986Y-137906651D01*
G37*
G36*
X162726707Y-128485975D02*
G01*
X162886182Y-128552032D01*
X162886184Y-128552033D01*
X163029709Y-128647933D01*
X163151767Y-128769991D01*
X163247667Y-128913516D01*
X163247668Y-128913518D01*
X163313725Y-129072993D01*
X163347400Y-129242291D01*
X163347400Y-129414909D01*
X163313725Y-129584207D01*
X163247668Y-129743682D01*
X163247667Y-129743684D01*
X163151767Y-129887209D01*
X163029709Y-130009267D01*
X162886184Y-130105167D01*
X162886183Y-130105168D01*
X162886182Y-130105168D01*
X162726707Y-130171225D01*
X162557409Y-130204900D01*
X162384791Y-130204900D01*
X162215493Y-130171225D01*
X162056018Y-130105168D01*
X162056017Y-130105168D01*
X162056016Y-130105167D01*
X161912491Y-130009267D01*
X161790433Y-129887209D01*
X161694533Y-129743684D01*
X161694532Y-129743682D01*
X161628475Y-129584207D01*
X161594800Y-129414909D01*
X161594800Y-129242291D01*
X161628475Y-129072993D01*
X161694532Y-128913518D01*
X161694533Y-128913516D01*
X161790433Y-128769991D01*
X161912491Y-128647933D01*
X162056016Y-128552033D01*
X162056018Y-128552032D01*
X162215493Y-128485975D01*
X162384791Y-128452300D01*
X162557409Y-128452300D01*
X162726707Y-128485975D01*
X162726707Y-128485975D01*
G37*
G36*
X134786707Y-128485975D02*
G01*
X134946182Y-128552032D01*
X134946184Y-128552033D01*
X135089709Y-128647933D01*
X135211767Y-128769991D01*
X135307667Y-128913516D01*
X135307668Y-128913518D01*
X135373725Y-129072993D01*
X135407400Y-129242291D01*
X135407400Y-129414909D01*
X135373725Y-129584207D01*
X135307668Y-129743682D01*
X135307667Y-129743684D01*
X135211767Y-129887209D01*
X135089709Y-130009267D01*
X134946184Y-130105167D01*
X134946183Y-130105168D01*
X134946182Y-130105168D01*
X134786707Y-130171225D01*
X134617409Y-130204900D01*
X134444791Y-130204900D01*
X134275493Y-130171225D01*
X134116018Y-130105168D01*
X134116017Y-130105168D01*
X134116016Y-130105167D01*
X133972491Y-130009267D01*
X133850433Y-129887209D01*
X133754533Y-129743684D01*
X133754532Y-129743682D01*
X133688475Y-129584207D01*
X133654800Y-129414909D01*
X133654800Y-129242291D01*
X133688475Y-129072993D01*
X133754532Y-128913518D01*
X133754533Y-128913516D01*
X133850433Y-128769991D01*
X133972491Y-128647933D01*
X134116016Y-128552033D01*
X134116018Y-128552032D01*
X134275493Y-128485975D01*
X134444791Y-128452300D01*
X134617409Y-128452300D01*
X134786707Y-128485975D01*
X134786707Y-128485975D01*
G37*
G36*
X137326707Y-128485975D02*
G01*
X137486182Y-128552032D01*
X137486184Y-128552033D01*
X137629709Y-128647933D01*
X137751767Y-128769991D01*
X137847667Y-128913516D01*
X137847668Y-128913518D01*
X137913725Y-129072993D01*
X137947400Y-129242291D01*
X137947400Y-129414909D01*
X137913725Y-129584207D01*
X137847668Y-129743682D01*
X137847667Y-129743684D01*
X137751767Y-129887209D01*
X137629709Y-130009267D01*
X137486184Y-130105167D01*
X137486183Y-130105168D01*
X137486182Y-130105168D01*
X137326707Y-130171225D01*
X137157409Y-130204900D01*
X136984791Y-130204900D01*
X136815493Y-130171225D01*
X136656018Y-130105168D01*
X136656017Y-130105168D01*
X136656016Y-130105167D01*
X136512491Y-130009267D01*
X136390433Y-129887209D01*
X136294533Y-129743684D01*
X136294532Y-129743682D01*
X136228475Y-129584207D01*
X136194800Y-129414909D01*
X136194800Y-129242291D01*
X136228475Y-129072993D01*
X136294532Y-128913518D01*
X136294533Y-128913516D01*
X136390433Y-128769991D01*
X136512491Y-128647933D01*
X136656016Y-128552033D01*
X136656018Y-128552032D01*
X136815493Y-128485975D01*
X136984791Y-128452300D01*
X137157409Y-128452300D01*
X137326707Y-128485975D01*
X137326707Y-128485975D01*
G37*
G36*
X139866707Y-128485975D02*
G01*
X140026182Y-128552032D01*
X140026184Y-128552033D01*
X140169709Y-128647933D01*
X140291767Y-128769991D01*
X140387667Y-128913516D01*
X140387668Y-128913518D01*
X140453725Y-129072993D01*
X140487400Y-129242291D01*
X140487400Y-129414909D01*
X140453725Y-129584207D01*
X140387668Y-129743682D01*
X140387667Y-129743684D01*
X140291767Y-129887209D01*
X140169709Y-130009267D01*
X140026184Y-130105167D01*
X140026183Y-130105168D01*
X140026182Y-130105168D01*
X139866707Y-130171225D01*
X139697409Y-130204900D01*
X139524791Y-130204900D01*
X139355493Y-130171225D01*
X139196018Y-130105168D01*
X139196017Y-130105168D01*
X139196016Y-130105167D01*
X139052491Y-130009267D01*
X138930433Y-129887209D01*
X138834533Y-129743684D01*
X138834532Y-129743682D01*
X138768475Y-129584207D01*
X138734800Y-129414909D01*
X138734800Y-129242291D01*
X138768475Y-129072993D01*
X138834532Y-128913518D01*
X138834533Y-128913516D01*
X138930433Y-128769991D01*
X139052491Y-128647933D01*
X139196016Y-128552033D01*
X139196018Y-128552032D01*
X139355493Y-128485975D01*
X139524791Y-128452300D01*
X139697409Y-128452300D01*
X139866707Y-128485975D01*
X139866707Y-128485975D01*
G37*
G36*
X142406707Y-128485975D02*
G01*
X142566182Y-128552032D01*
X142566184Y-128552033D01*
X142709709Y-128647933D01*
X142831767Y-128769991D01*
X142927667Y-128913516D01*
X142927668Y-128913518D01*
X142993725Y-129072993D01*
X143027400Y-129242291D01*
X143027400Y-129414909D01*
X142993725Y-129584207D01*
X142927668Y-129743682D01*
X142927667Y-129743684D01*
X142831767Y-129887209D01*
X142709709Y-130009267D01*
X142566184Y-130105167D01*
X142566183Y-130105168D01*
X142566182Y-130105168D01*
X142406707Y-130171225D01*
X142237409Y-130204900D01*
X142064791Y-130204900D01*
X141895493Y-130171225D01*
X141736018Y-130105168D01*
X141736017Y-130105168D01*
X141736016Y-130105167D01*
X141592491Y-130009267D01*
X141470433Y-129887209D01*
X141374533Y-129743684D01*
X141374532Y-129743682D01*
X141308475Y-129584207D01*
X141274800Y-129414909D01*
X141274800Y-129242291D01*
X141308475Y-129072993D01*
X141374532Y-128913518D01*
X141374533Y-128913516D01*
X141470433Y-128769991D01*
X141592491Y-128647933D01*
X141736016Y-128552033D01*
X141736018Y-128552032D01*
X141895493Y-128485975D01*
X142064791Y-128452300D01*
X142237409Y-128452300D01*
X142406707Y-128485975D01*
X142406707Y-128485975D01*
G37*
G36*
X147486707Y-128485975D02*
G01*
X147646182Y-128552032D01*
X147646184Y-128552033D01*
X147789709Y-128647933D01*
X147911767Y-128769991D01*
X148007667Y-128913516D01*
X148007668Y-128913518D01*
X148073725Y-129072993D01*
X148107400Y-129242291D01*
X148107400Y-129414909D01*
X148073725Y-129584207D01*
X148007668Y-129743682D01*
X148007667Y-129743684D01*
X147911767Y-129887209D01*
X147789709Y-130009267D01*
X147646184Y-130105167D01*
X147646183Y-130105168D01*
X147646182Y-130105168D01*
X147486707Y-130171225D01*
X147317409Y-130204900D01*
X147144791Y-130204900D01*
X146975493Y-130171225D01*
X146816018Y-130105168D01*
X146816017Y-130105168D01*
X146816016Y-130105167D01*
X146672491Y-130009267D01*
X146550433Y-129887209D01*
X146454533Y-129743684D01*
X146454532Y-129743682D01*
X146388475Y-129584207D01*
X146354800Y-129414909D01*
X146354800Y-129242291D01*
X146388475Y-129072993D01*
X146454532Y-128913518D01*
X146454533Y-128913516D01*
X146550433Y-128769991D01*
X146672491Y-128647933D01*
X146816016Y-128552033D01*
X146816018Y-128552032D01*
X146975493Y-128485975D01*
X147144791Y-128452300D01*
X147317409Y-128452300D01*
X147486707Y-128485975D01*
X147486707Y-128485975D01*
G37*
G36*
X144946707Y-128485975D02*
G01*
X145106182Y-128552032D01*
X145106184Y-128552033D01*
X145249709Y-128647933D01*
X145371767Y-128769991D01*
X145467667Y-128913516D01*
X145467668Y-128913518D01*
X145533725Y-129072993D01*
X145567400Y-129242291D01*
X145567400Y-129414909D01*
X145533725Y-129584207D01*
X145467668Y-129743682D01*
X145467667Y-129743684D01*
X145371767Y-129887209D01*
X145249709Y-130009267D01*
X145106184Y-130105167D01*
X145106183Y-130105168D01*
X145106182Y-130105168D01*
X144946707Y-130171225D01*
X144777409Y-130204900D01*
X144604791Y-130204900D01*
X144435493Y-130171225D01*
X144276018Y-130105168D01*
X144276017Y-130105168D01*
X144276016Y-130105167D01*
X144132491Y-130009267D01*
X144010433Y-129887209D01*
X143914533Y-129743684D01*
X143914532Y-129743682D01*
X143848475Y-129584207D01*
X143814800Y-129414909D01*
X143814800Y-129242291D01*
X143848475Y-129072993D01*
X143914532Y-128913518D01*
X143914533Y-128913516D01*
X144010433Y-128769991D01*
X144132491Y-128647933D01*
X144276016Y-128552033D01*
X144276018Y-128552032D01*
X144435493Y-128485975D01*
X144604791Y-128452300D01*
X144777409Y-128452300D01*
X144946707Y-128485975D01*
X144946707Y-128485975D01*
G37*
G36*
X172886707Y-128485975D02*
G01*
X173046182Y-128552032D01*
X173046184Y-128552033D01*
X173189709Y-128647933D01*
X173311767Y-128769991D01*
X173407667Y-128913516D01*
X173407668Y-128913518D01*
X173473725Y-129072993D01*
X173507400Y-129242291D01*
X173507400Y-129414909D01*
X173473725Y-129584207D01*
X173407668Y-129743682D01*
X173407667Y-129743684D01*
X173311767Y-129887209D01*
X173189709Y-130009267D01*
X173046184Y-130105167D01*
X173046183Y-130105168D01*
X173046182Y-130105168D01*
X172886707Y-130171225D01*
X172717409Y-130204900D01*
X172544791Y-130204900D01*
X172375493Y-130171225D01*
X172216018Y-130105168D01*
X172216017Y-130105168D01*
X172216016Y-130105167D01*
X172072491Y-130009267D01*
X171950433Y-129887209D01*
X171854533Y-129743684D01*
X171854532Y-129743682D01*
X171788475Y-129584207D01*
X171754800Y-129414909D01*
X171754800Y-129242291D01*
X171788475Y-129072993D01*
X171854532Y-128913518D01*
X171854533Y-128913516D01*
X171950433Y-128769991D01*
X172072491Y-128647933D01*
X172216016Y-128552033D01*
X172216018Y-128552032D01*
X172375493Y-128485975D01*
X172544791Y-128452300D01*
X172717409Y-128452300D01*
X172886707Y-128485975D01*
X172886707Y-128485975D01*
G37*
G36*
X170346707Y-128485975D02*
G01*
X170506182Y-128552032D01*
X170506184Y-128552033D01*
X170649709Y-128647933D01*
X170771767Y-128769991D01*
X170867667Y-128913516D01*
X170867668Y-128913518D01*
X170933725Y-129072993D01*
X170967400Y-129242291D01*
X170967400Y-129414909D01*
X170933725Y-129584207D01*
X170867668Y-129743682D01*
X170867667Y-129743684D01*
X170771767Y-129887209D01*
X170649709Y-130009267D01*
X170506184Y-130105167D01*
X170506183Y-130105168D01*
X170506182Y-130105168D01*
X170346707Y-130171225D01*
X170177409Y-130204900D01*
X170004791Y-130204900D01*
X169835493Y-130171225D01*
X169676018Y-130105168D01*
X169676017Y-130105168D01*
X169676016Y-130105167D01*
X169532491Y-130009267D01*
X169410433Y-129887209D01*
X169314533Y-129743684D01*
X169314532Y-129743682D01*
X169248475Y-129584207D01*
X169214800Y-129414909D01*
X169214800Y-129242291D01*
X169248475Y-129072993D01*
X169314532Y-128913518D01*
X169314533Y-128913516D01*
X169410433Y-128769991D01*
X169532491Y-128647933D01*
X169676016Y-128552033D01*
X169676018Y-128552032D01*
X169835493Y-128485975D01*
X170004791Y-128452300D01*
X170177409Y-128452300D01*
X170346707Y-128485975D01*
X170346707Y-128485975D01*
G37*
G36*
X167806707Y-128485975D02*
G01*
X167966182Y-128552032D01*
X167966184Y-128552033D01*
X168109709Y-128647933D01*
X168231767Y-128769991D01*
X168327667Y-128913516D01*
X168327668Y-128913518D01*
X168393725Y-129072993D01*
X168427400Y-129242291D01*
X168427400Y-129414909D01*
X168393725Y-129584207D01*
X168327668Y-129743682D01*
X168327667Y-129743684D01*
X168231767Y-129887209D01*
X168109709Y-130009267D01*
X167966184Y-130105167D01*
X167966183Y-130105168D01*
X167966182Y-130105168D01*
X167806707Y-130171225D01*
X167637409Y-130204900D01*
X167464791Y-130204900D01*
X167295493Y-130171225D01*
X167136018Y-130105168D01*
X167136017Y-130105168D01*
X167136016Y-130105167D01*
X166992491Y-130009267D01*
X166870433Y-129887209D01*
X166774533Y-129743684D01*
X166774532Y-129743682D01*
X166708475Y-129584207D01*
X166674800Y-129414909D01*
X166674800Y-129242291D01*
X166708475Y-129072993D01*
X166774532Y-128913518D01*
X166774533Y-128913516D01*
X166870433Y-128769991D01*
X166992491Y-128647933D01*
X167136016Y-128552033D01*
X167136018Y-128552032D01*
X167295493Y-128485975D01*
X167464791Y-128452300D01*
X167637409Y-128452300D01*
X167806707Y-128485975D01*
X167806707Y-128485975D01*
G37*
G36*
X165266707Y-128485975D02*
G01*
X165426182Y-128552032D01*
X165426184Y-128552033D01*
X165569709Y-128647933D01*
X165691767Y-128769991D01*
X165787667Y-128913516D01*
X165787668Y-128913518D01*
X165853725Y-129072993D01*
X165887400Y-129242291D01*
X165887400Y-129414909D01*
X165853725Y-129584207D01*
X165787668Y-129743682D01*
X165787667Y-129743684D01*
X165691767Y-129887209D01*
X165569709Y-130009267D01*
X165426184Y-130105167D01*
X165426183Y-130105168D01*
X165426182Y-130105168D01*
X165266707Y-130171225D01*
X165097409Y-130204900D01*
X164924791Y-130204900D01*
X164755493Y-130171225D01*
X164596018Y-130105168D01*
X164596017Y-130105168D01*
X164596016Y-130105167D01*
X164452491Y-130009267D01*
X164330433Y-129887209D01*
X164234533Y-129743684D01*
X164234532Y-129743682D01*
X164168475Y-129584207D01*
X164134800Y-129414909D01*
X164134800Y-129242291D01*
X164168475Y-129072993D01*
X164234532Y-128913518D01*
X164234533Y-128913516D01*
X164330433Y-128769991D01*
X164452491Y-128647933D01*
X164596016Y-128552033D01*
X164596018Y-128552032D01*
X164755493Y-128485975D01*
X164924791Y-128452300D01*
X165097409Y-128452300D01*
X165266707Y-128485975D01*
X165266707Y-128485975D01*
G37*
G36*
X150026707Y-128485975D02*
G01*
X150186182Y-128552032D01*
X150186184Y-128552033D01*
X150329709Y-128647933D01*
X150451767Y-128769991D01*
X150547667Y-128913516D01*
X150547668Y-128913518D01*
X150613725Y-129072993D01*
X150647400Y-129242291D01*
X150647400Y-129414909D01*
X150613725Y-129584207D01*
X150547668Y-129743682D01*
X150547667Y-129743684D01*
X150451767Y-129887209D01*
X150329709Y-130009267D01*
X150186184Y-130105167D01*
X150186183Y-130105168D01*
X150186182Y-130105168D01*
X150026707Y-130171225D01*
X149857409Y-130204900D01*
X149684791Y-130204900D01*
X149515493Y-130171225D01*
X149356018Y-130105168D01*
X149356017Y-130105168D01*
X149356016Y-130105167D01*
X149212491Y-130009267D01*
X149090433Y-129887209D01*
X148994533Y-129743684D01*
X148994532Y-129743682D01*
X148928475Y-129584207D01*
X148894800Y-129414909D01*
X148894800Y-129242291D01*
X148928475Y-129072993D01*
X148994532Y-128913518D01*
X148994533Y-128913516D01*
X149090433Y-128769991D01*
X149212491Y-128647933D01*
X149356016Y-128552033D01*
X149356018Y-128552032D01*
X149515493Y-128485975D01*
X149684791Y-128452300D01*
X149857409Y-128452300D01*
X150026707Y-128485975D01*
X150026707Y-128485975D01*
G37*
G36*
X155106707Y-128485975D02*
G01*
X155266182Y-128552032D01*
X155266184Y-128552033D01*
X155409709Y-128647933D01*
X155531767Y-128769991D01*
X155627667Y-128913516D01*
X155627668Y-128913518D01*
X155693725Y-129072993D01*
X155727400Y-129242291D01*
X155727400Y-129414909D01*
X155693725Y-129584207D01*
X155627668Y-129743682D01*
X155627667Y-129743684D01*
X155531767Y-129887209D01*
X155409709Y-130009267D01*
X155266184Y-130105167D01*
X155266183Y-130105168D01*
X155266182Y-130105168D01*
X155106707Y-130171225D01*
X154937409Y-130204900D01*
X154764791Y-130204900D01*
X154595493Y-130171225D01*
X154436018Y-130105168D01*
X154436017Y-130105168D01*
X154436016Y-130105167D01*
X154292491Y-130009267D01*
X154170433Y-129887209D01*
X154074533Y-129743684D01*
X154074532Y-129743682D01*
X154008475Y-129584207D01*
X153974800Y-129414909D01*
X153974800Y-129242291D01*
X154008475Y-129072993D01*
X154074532Y-128913518D01*
X154074533Y-128913516D01*
X154170433Y-128769991D01*
X154292491Y-128647933D01*
X154436016Y-128552033D01*
X154436018Y-128552032D01*
X154595493Y-128485975D01*
X154764791Y-128452300D01*
X154937409Y-128452300D01*
X155106707Y-128485975D01*
X155106707Y-128485975D01*
G37*
G36*
X157646707Y-128485975D02*
G01*
X157806182Y-128552032D01*
X157806184Y-128552033D01*
X157949709Y-128647933D01*
X158071767Y-128769991D01*
X158167667Y-128913516D01*
X158167668Y-128913518D01*
X158233725Y-129072993D01*
X158267400Y-129242291D01*
X158267400Y-129414909D01*
X158233725Y-129584207D01*
X158167668Y-129743682D01*
X158167667Y-129743684D01*
X158071767Y-129887209D01*
X157949709Y-130009267D01*
X157806184Y-130105167D01*
X157806183Y-130105168D01*
X157806182Y-130105168D01*
X157646707Y-130171225D01*
X157477409Y-130204900D01*
X157304791Y-130204900D01*
X157135493Y-130171225D01*
X156976018Y-130105168D01*
X156976017Y-130105168D01*
X156976016Y-130105167D01*
X156832491Y-130009267D01*
X156710433Y-129887209D01*
X156614533Y-129743684D01*
X156614532Y-129743682D01*
X156548475Y-129584207D01*
X156514800Y-129414909D01*
X156514800Y-129242291D01*
X156548475Y-129072993D01*
X156614532Y-128913518D01*
X156614533Y-128913516D01*
X156710433Y-128769991D01*
X156832491Y-128647933D01*
X156976016Y-128552033D01*
X156976018Y-128552032D01*
X157135493Y-128485975D01*
X157304791Y-128452300D01*
X157477409Y-128452300D01*
X157646707Y-128485975D01*
X157646707Y-128485975D01*
G37*
G36*
X160186707Y-128485975D02*
G01*
X160346182Y-128552032D01*
X160346184Y-128552033D01*
X160489709Y-128647933D01*
X160611767Y-128769991D01*
X160707667Y-128913516D01*
X160707668Y-128913518D01*
X160773725Y-129072993D01*
X160807400Y-129242291D01*
X160807400Y-129414909D01*
X160773725Y-129584207D01*
X160707668Y-129743682D01*
X160707667Y-129743684D01*
X160611767Y-129887209D01*
X160489709Y-130009267D01*
X160346184Y-130105167D01*
X160346183Y-130105168D01*
X160346182Y-130105168D01*
X160186707Y-130171225D01*
X160017409Y-130204900D01*
X159844791Y-130204900D01*
X159675493Y-130171225D01*
X159516018Y-130105168D01*
X159516017Y-130105168D01*
X159516016Y-130105167D01*
X159372491Y-130009267D01*
X159250433Y-129887209D01*
X159154533Y-129743684D01*
X159154532Y-129743682D01*
X159088475Y-129584207D01*
X159054800Y-129414909D01*
X159054800Y-129242291D01*
X159088475Y-129072993D01*
X159154532Y-128913518D01*
X159154533Y-128913516D01*
X159250433Y-128769991D01*
X159372491Y-128647933D01*
X159516016Y-128552033D01*
X159516018Y-128552032D01*
X159675493Y-128485975D01*
X159844791Y-128452300D01*
X160017409Y-128452300D01*
X160186707Y-128485975D01*
X160186707Y-128485975D01*
G37*
G36*
X152566707Y-128485975D02*
G01*
X152726182Y-128552032D01*
X152726184Y-128552033D01*
X152869709Y-128647933D01*
X152991767Y-128769991D01*
X153087667Y-128913516D01*
X153087668Y-128913518D01*
X153153725Y-129072993D01*
X153187400Y-129242291D01*
X153187400Y-129414909D01*
X153153725Y-129584207D01*
X153087668Y-129743682D01*
X153087667Y-129743684D01*
X152991767Y-129887209D01*
X152869709Y-130009267D01*
X152726184Y-130105167D01*
X152726183Y-130105168D01*
X152726182Y-130105168D01*
X152566707Y-130171225D01*
X152397409Y-130204900D01*
X152224791Y-130204900D01*
X152055493Y-130171225D01*
X151896018Y-130105168D01*
X151896017Y-130105168D01*
X151896016Y-130105167D01*
X151752491Y-130009267D01*
X151630433Y-129887209D01*
X151534533Y-129743684D01*
X151534532Y-129743682D01*
X151468475Y-129584207D01*
X151434800Y-129414909D01*
X151434800Y-129242291D01*
X151468475Y-129072993D01*
X151534532Y-128913518D01*
X151534533Y-128913516D01*
X151630433Y-128769991D01*
X151752491Y-128647933D01*
X151896016Y-128552033D01*
X151896018Y-128552032D01*
X152055493Y-128485975D01*
X152224791Y-128452300D01*
X152397409Y-128452300D01*
X152566707Y-128485975D01*
X152566707Y-128485975D01*
G37*
G36*
X170346707Y-113245975D02*
G01*
X170506182Y-113312032D01*
X170506184Y-113312033D01*
X170649709Y-113407933D01*
X170771767Y-113529991D01*
X170867667Y-113673516D01*
X170867668Y-113673518D01*
X170933725Y-113832993D01*
X170967400Y-114002291D01*
X170967400Y-114174909D01*
X170933725Y-114344207D01*
X170867668Y-114503682D01*
X170867667Y-114503684D01*
X170771767Y-114647209D01*
X170649709Y-114769267D01*
X170506184Y-114865167D01*
X170506183Y-114865168D01*
X170506182Y-114865168D01*
X170346707Y-114931225D01*
X170177409Y-114964900D01*
X170004791Y-114964900D01*
X169835493Y-114931225D01*
X169676018Y-114865168D01*
X169676017Y-114865168D01*
X169676016Y-114865167D01*
X169532491Y-114769267D01*
X169410433Y-114647209D01*
X169314533Y-114503684D01*
X169314532Y-114503682D01*
X169248475Y-114344207D01*
X169214800Y-114174909D01*
X169214800Y-114002291D01*
X169248475Y-113832993D01*
X169314532Y-113673518D01*
X169314533Y-113673516D01*
X169410433Y-113529991D01*
X169532491Y-113407933D01*
X169676016Y-113312033D01*
X169676018Y-113312032D01*
X169835493Y-113245975D01*
X170004791Y-113212300D01*
X170177409Y-113212300D01*
X170346707Y-113245975D01*
X170346707Y-113245975D01*
G37*
G36*
X134786707Y-113245975D02*
G01*
X134946182Y-113312032D01*
X134946184Y-113312033D01*
X135089709Y-113407933D01*
X135211767Y-113529991D01*
X135307667Y-113673516D01*
X135307668Y-113673518D01*
X135373725Y-113832993D01*
X135407400Y-114002291D01*
X135407400Y-114174909D01*
X135373725Y-114344207D01*
X135307668Y-114503682D01*
X135307667Y-114503684D01*
X135211767Y-114647209D01*
X135089709Y-114769267D01*
X134946184Y-114865167D01*
X134946183Y-114865168D01*
X134946182Y-114865168D01*
X134786707Y-114931225D01*
X134617409Y-114964900D01*
X134444791Y-114964900D01*
X134275493Y-114931225D01*
X134116018Y-114865168D01*
X134116017Y-114865168D01*
X134116016Y-114865167D01*
X133972491Y-114769267D01*
X133850433Y-114647209D01*
X133754533Y-114503684D01*
X133754532Y-114503682D01*
X133688475Y-114344207D01*
X133654800Y-114174909D01*
X133654800Y-114002291D01*
X133688475Y-113832993D01*
X133754532Y-113673518D01*
X133754533Y-113673516D01*
X133850433Y-113529991D01*
X133972491Y-113407933D01*
X134116016Y-113312033D01*
X134116018Y-113312032D01*
X134275493Y-113245975D01*
X134444791Y-113212300D01*
X134617409Y-113212300D01*
X134786707Y-113245975D01*
X134786707Y-113245975D01*
G37*
G36*
X172886707Y-113245975D02*
G01*
X173046182Y-113312032D01*
X173046184Y-113312033D01*
X173189709Y-113407933D01*
X173311767Y-113529991D01*
X173407667Y-113673516D01*
X173407668Y-113673518D01*
X173473725Y-113832993D01*
X173507400Y-114002291D01*
X173507400Y-114174909D01*
X173473725Y-114344207D01*
X173407668Y-114503682D01*
X173407667Y-114503684D01*
X173311767Y-114647209D01*
X173189709Y-114769267D01*
X173046184Y-114865167D01*
X173046183Y-114865168D01*
X173046182Y-114865168D01*
X172886707Y-114931225D01*
X172717409Y-114964900D01*
X172544791Y-114964900D01*
X172375493Y-114931225D01*
X172216018Y-114865168D01*
X172216017Y-114865168D01*
X172216016Y-114865167D01*
X172072491Y-114769267D01*
X171950433Y-114647209D01*
X171854533Y-114503684D01*
X171854532Y-114503682D01*
X171788475Y-114344207D01*
X171754800Y-114174909D01*
X171754800Y-114002291D01*
X171788475Y-113832993D01*
X171854532Y-113673518D01*
X171854533Y-113673516D01*
X171950433Y-113529991D01*
X172072491Y-113407933D01*
X172216016Y-113312033D01*
X172216018Y-113312032D01*
X172375493Y-113245975D01*
X172544791Y-113212300D01*
X172717409Y-113212300D01*
X172886707Y-113245975D01*
X172886707Y-113245975D01*
G37*
G36*
X167806707Y-113245975D02*
G01*
X167966182Y-113312032D01*
X167966184Y-113312033D01*
X168109709Y-113407933D01*
X168231767Y-113529991D01*
X168327667Y-113673516D01*
X168327668Y-113673518D01*
X168393725Y-113832993D01*
X168427400Y-114002291D01*
X168427400Y-114174909D01*
X168393725Y-114344207D01*
X168327668Y-114503682D01*
X168327667Y-114503684D01*
X168231767Y-114647209D01*
X168109709Y-114769267D01*
X167966184Y-114865167D01*
X167966183Y-114865168D01*
X167966182Y-114865168D01*
X167806707Y-114931225D01*
X167637409Y-114964900D01*
X167464791Y-114964900D01*
X167295493Y-114931225D01*
X167136018Y-114865168D01*
X167136017Y-114865168D01*
X167136016Y-114865167D01*
X166992491Y-114769267D01*
X166870433Y-114647209D01*
X166774533Y-114503684D01*
X166774532Y-114503682D01*
X166708475Y-114344207D01*
X166674800Y-114174909D01*
X166674800Y-114002291D01*
X166708475Y-113832993D01*
X166774532Y-113673518D01*
X166774533Y-113673516D01*
X166870433Y-113529991D01*
X166992491Y-113407933D01*
X167136016Y-113312033D01*
X167136018Y-113312032D01*
X167295493Y-113245975D01*
X167464791Y-113212300D01*
X167637409Y-113212300D01*
X167806707Y-113245975D01*
X167806707Y-113245975D01*
G37*
G36*
X165266707Y-113245975D02*
G01*
X165426182Y-113312032D01*
X165426184Y-113312033D01*
X165569709Y-113407933D01*
X165691767Y-113529991D01*
X165787667Y-113673516D01*
X165787668Y-113673518D01*
X165853725Y-113832993D01*
X165887400Y-114002291D01*
X165887400Y-114174909D01*
X165853725Y-114344207D01*
X165787668Y-114503682D01*
X165787667Y-114503684D01*
X165691767Y-114647209D01*
X165569709Y-114769267D01*
X165426184Y-114865167D01*
X165426183Y-114865168D01*
X165426182Y-114865168D01*
X165266707Y-114931225D01*
X165097409Y-114964900D01*
X164924791Y-114964900D01*
X164755493Y-114931225D01*
X164596018Y-114865168D01*
X164596017Y-114865168D01*
X164596016Y-114865167D01*
X164452491Y-114769267D01*
X164330433Y-114647209D01*
X164234533Y-114503684D01*
X164234532Y-114503682D01*
X164168475Y-114344207D01*
X164134800Y-114174909D01*
X164134800Y-114002291D01*
X164168475Y-113832993D01*
X164234532Y-113673518D01*
X164234533Y-113673516D01*
X164330433Y-113529991D01*
X164452491Y-113407933D01*
X164596016Y-113312033D01*
X164596018Y-113312032D01*
X164755493Y-113245975D01*
X164924791Y-113212300D01*
X165097409Y-113212300D01*
X165266707Y-113245975D01*
X165266707Y-113245975D01*
G37*
G36*
X162726707Y-113245975D02*
G01*
X162886182Y-113312032D01*
X162886184Y-113312033D01*
X163029709Y-113407933D01*
X163151767Y-113529991D01*
X163247667Y-113673516D01*
X163247668Y-113673518D01*
X163313725Y-113832993D01*
X163347400Y-114002291D01*
X163347400Y-114174909D01*
X163313725Y-114344207D01*
X163247668Y-114503682D01*
X163247667Y-114503684D01*
X163151767Y-114647209D01*
X163029709Y-114769267D01*
X162886184Y-114865167D01*
X162886183Y-114865168D01*
X162886182Y-114865168D01*
X162726707Y-114931225D01*
X162557409Y-114964900D01*
X162384791Y-114964900D01*
X162215493Y-114931225D01*
X162056018Y-114865168D01*
X162056017Y-114865168D01*
X162056016Y-114865167D01*
X161912491Y-114769267D01*
X161790433Y-114647209D01*
X161694533Y-114503684D01*
X161694532Y-114503682D01*
X161628475Y-114344207D01*
X161594800Y-114174909D01*
X161594800Y-114002291D01*
X161628475Y-113832993D01*
X161694532Y-113673518D01*
X161694533Y-113673516D01*
X161790433Y-113529991D01*
X161912491Y-113407933D01*
X162056016Y-113312033D01*
X162056018Y-113312032D01*
X162215493Y-113245975D01*
X162384791Y-113212300D01*
X162557409Y-113212300D01*
X162726707Y-113245975D01*
X162726707Y-113245975D01*
G37*
G36*
X160186707Y-113245975D02*
G01*
X160346182Y-113312032D01*
X160346184Y-113312033D01*
X160489709Y-113407933D01*
X160611767Y-113529991D01*
X160707667Y-113673516D01*
X160707668Y-113673518D01*
X160773725Y-113832993D01*
X160807400Y-114002291D01*
X160807400Y-114174909D01*
X160773725Y-114344207D01*
X160707668Y-114503682D01*
X160707667Y-114503684D01*
X160611767Y-114647209D01*
X160489709Y-114769267D01*
X160346184Y-114865167D01*
X160346183Y-114865168D01*
X160346182Y-114865168D01*
X160186707Y-114931225D01*
X160017409Y-114964900D01*
X159844791Y-114964900D01*
X159675493Y-114931225D01*
X159516018Y-114865168D01*
X159516017Y-114865168D01*
X159516016Y-114865167D01*
X159372491Y-114769267D01*
X159250433Y-114647209D01*
X159154533Y-114503684D01*
X159154532Y-114503682D01*
X159088475Y-114344207D01*
X159054800Y-114174909D01*
X159054800Y-114002291D01*
X159088475Y-113832993D01*
X159154532Y-113673518D01*
X159154533Y-113673516D01*
X159250433Y-113529991D01*
X159372491Y-113407933D01*
X159516016Y-113312033D01*
X159516018Y-113312032D01*
X159675493Y-113245975D01*
X159844791Y-113212300D01*
X160017409Y-113212300D01*
X160186707Y-113245975D01*
X160186707Y-113245975D01*
G37*
G36*
X155106707Y-113245975D02*
G01*
X155266182Y-113312032D01*
X155266184Y-113312033D01*
X155409709Y-113407933D01*
X155531767Y-113529991D01*
X155627667Y-113673516D01*
X155627668Y-113673518D01*
X155693725Y-113832993D01*
X155727400Y-114002291D01*
X155727400Y-114174909D01*
X155693725Y-114344207D01*
X155627668Y-114503682D01*
X155627667Y-114503684D01*
X155531767Y-114647209D01*
X155409709Y-114769267D01*
X155266184Y-114865167D01*
X155266183Y-114865168D01*
X155266182Y-114865168D01*
X155106707Y-114931225D01*
X154937409Y-114964900D01*
X154764791Y-114964900D01*
X154595493Y-114931225D01*
X154436018Y-114865168D01*
X154436017Y-114865168D01*
X154436016Y-114865167D01*
X154292491Y-114769267D01*
X154170433Y-114647209D01*
X154074533Y-114503684D01*
X154074532Y-114503682D01*
X154008475Y-114344207D01*
X153974800Y-114174909D01*
X153974800Y-114002291D01*
X154008475Y-113832993D01*
X154074532Y-113673518D01*
X154074533Y-113673516D01*
X154170433Y-113529991D01*
X154292491Y-113407933D01*
X154436016Y-113312033D01*
X154436018Y-113312032D01*
X154595493Y-113245975D01*
X154764791Y-113212300D01*
X154937409Y-113212300D01*
X155106707Y-113245975D01*
X155106707Y-113245975D01*
G37*
G36*
X150026707Y-113245975D02*
G01*
X150186182Y-113312032D01*
X150186184Y-113312033D01*
X150329709Y-113407933D01*
X150451767Y-113529991D01*
X150547667Y-113673516D01*
X150547668Y-113673518D01*
X150613725Y-113832993D01*
X150647400Y-114002291D01*
X150647400Y-114174909D01*
X150613725Y-114344207D01*
X150547668Y-114503682D01*
X150547667Y-114503684D01*
X150451767Y-114647209D01*
X150329709Y-114769267D01*
X150186184Y-114865167D01*
X150186183Y-114865168D01*
X150186182Y-114865168D01*
X150026707Y-114931225D01*
X149857409Y-114964900D01*
X149684791Y-114964900D01*
X149515493Y-114931225D01*
X149356018Y-114865168D01*
X149356017Y-114865168D01*
X149356016Y-114865167D01*
X149212491Y-114769267D01*
X149090433Y-114647209D01*
X148994533Y-114503684D01*
X148994532Y-114503682D01*
X148928475Y-114344207D01*
X148894800Y-114174909D01*
X148894800Y-114002291D01*
X148928475Y-113832993D01*
X148994532Y-113673518D01*
X148994533Y-113673516D01*
X149090433Y-113529991D01*
X149212491Y-113407933D01*
X149356016Y-113312033D01*
X149356018Y-113312032D01*
X149515493Y-113245975D01*
X149684791Y-113212300D01*
X149857409Y-113212300D01*
X150026707Y-113245975D01*
X150026707Y-113245975D01*
G37*
G36*
X147486707Y-113245975D02*
G01*
X147646182Y-113312032D01*
X147646184Y-113312033D01*
X147789709Y-113407933D01*
X147911767Y-113529991D01*
X148007667Y-113673516D01*
X148007668Y-113673518D01*
X148073725Y-113832993D01*
X148107400Y-114002291D01*
X148107400Y-114174909D01*
X148073725Y-114344207D01*
X148007668Y-114503682D01*
X148007667Y-114503684D01*
X147911767Y-114647209D01*
X147789709Y-114769267D01*
X147646184Y-114865167D01*
X147646183Y-114865168D01*
X147646182Y-114865168D01*
X147486707Y-114931225D01*
X147317409Y-114964900D01*
X147144791Y-114964900D01*
X146975493Y-114931225D01*
X146816018Y-114865168D01*
X146816017Y-114865168D01*
X146816016Y-114865167D01*
X146672491Y-114769267D01*
X146550433Y-114647209D01*
X146454533Y-114503684D01*
X146454532Y-114503682D01*
X146388475Y-114344207D01*
X146354800Y-114174909D01*
X146354800Y-114002291D01*
X146388475Y-113832993D01*
X146454532Y-113673518D01*
X146454533Y-113673516D01*
X146550433Y-113529991D01*
X146672491Y-113407933D01*
X146816016Y-113312033D01*
X146816018Y-113312032D01*
X146975493Y-113245975D01*
X147144791Y-113212300D01*
X147317409Y-113212300D01*
X147486707Y-113245975D01*
X147486707Y-113245975D01*
G37*
G36*
X144946707Y-113245975D02*
G01*
X145106182Y-113312032D01*
X145106184Y-113312033D01*
X145249709Y-113407933D01*
X145371767Y-113529991D01*
X145467667Y-113673516D01*
X145467668Y-113673518D01*
X145533725Y-113832993D01*
X145567400Y-114002291D01*
X145567400Y-114174909D01*
X145533725Y-114344207D01*
X145467668Y-114503682D01*
X145467667Y-114503684D01*
X145371767Y-114647209D01*
X145249709Y-114769267D01*
X145106184Y-114865167D01*
X145106183Y-114865168D01*
X145106182Y-114865168D01*
X144946707Y-114931225D01*
X144777409Y-114964900D01*
X144604791Y-114964900D01*
X144435493Y-114931225D01*
X144276018Y-114865168D01*
X144276017Y-114865168D01*
X144276016Y-114865167D01*
X144132491Y-114769267D01*
X144010433Y-114647209D01*
X143914533Y-114503684D01*
X143914532Y-114503682D01*
X143848475Y-114344207D01*
X143814800Y-114174909D01*
X143814800Y-114002291D01*
X143848475Y-113832993D01*
X143914532Y-113673518D01*
X143914533Y-113673516D01*
X144010433Y-113529991D01*
X144132491Y-113407933D01*
X144276016Y-113312033D01*
X144276018Y-113312032D01*
X144435493Y-113245975D01*
X144604791Y-113212300D01*
X144777409Y-113212300D01*
X144946707Y-113245975D01*
X144946707Y-113245975D01*
G37*
G36*
X142406707Y-113245975D02*
G01*
X142566182Y-113312032D01*
X142566184Y-113312033D01*
X142709709Y-113407933D01*
X142831767Y-113529991D01*
X142927667Y-113673516D01*
X142927668Y-113673518D01*
X142993725Y-113832993D01*
X143027400Y-114002291D01*
X143027400Y-114174909D01*
X142993725Y-114344207D01*
X142927668Y-114503682D01*
X142927667Y-114503684D01*
X142831767Y-114647209D01*
X142709709Y-114769267D01*
X142566184Y-114865167D01*
X142566183Y-114865168D01*
X142566182Y-114865168D01*
X142406707Y-114931225D01*
X142237409Y-114964900D01*
X142064791Y-114964900D01*
X141895493Y-114931225D01*
X141736018Y-114865168D01*
X141736017Y-114865168D01*
X141736016Y-114865167D01*
X141592491Y-114769267D01*
X141470433Y-114647209D01*
X141374533Y-114503684D01*
X141374532Y-114503682D01*
X141308475Y-114344207D01*
X141274800Y-114174909D01*
X141274800Y-114002291D01*
X141308475Y-113832993D01*
X141374532Y-113673518D01*
X141374533Y-113673516D01*
X141470433Y-113529991D01*
X141592491Y-113407933D01*
X141736016Y-113312033D01*
X141736018Y-113312032D01*
X141895493Y-113245975D01*
X142064791Y-113212300D01*
X142237409Y-113212300D01*
X142406707Y-113245975D01*
X142406707Y-113245975D01*
G37*
G36*
X139866707Y-113245975D02*
G01*
X140026182Y-113312032D01*
X140026184Y-113312033D01*
X140169709Y-113407933D01*
X140291767Y-113529991D01*
X140387667Y-113673516D01*
X140387668Y-113673518D01*
X140453725Y-113832993D01*
X140487400Y-114002291D01*
X140487400Y-114174909D01*
X140453725Y-114344207D01*
X140387668Y-114503682D01*
X140387667Y-114503684D01*
X140291767Y-114647209D01*
X140169709Y-114769267D01*
X140026184Y-114865167D01*
X140026183Y-114865168D01*
X140026182Y-114865168D01*
X139866707Y-114931225D01*
X139697409Y-114964900D01*
X139524791Y-114964900D01*
X139355493Y-114931225D01*
X139196018Y-114865168D01*
X139196017Y-114865168D01*
X139196016Y-114865167D01*
X139052491Y-114769267D01*
X138930433Y-114647209D01*
X138834533Y-114503684D01*
X138834532Y-114503682D01*
X138768475Y-114344207D01*
X138734800Y-114174909D01*
X138734800Y-114002291D01*
X138768475Y-113832993D01*
X138834532Y-113673518D01*
X138834533Y-113673516D01*
X138930433Y-113529991D01*
X139052491Y-113407933D01*
X139196016Y-113312033D01*
X139196018Y-113312032D01*
X139355493Y-113245975D01*
X139524791Y-113212300D01*
X139697409Y-113212300D01*
X139866707Y-113245975D01*
X139866707Y-113245975D01*
G37*
G36*
X137326707Y-113245975D02*
G01*
X137486182Y-113312032D01*
X137486184Y-113312033D01*
X137629709Y-113407933D01*
X137751767Y-113529991D01*
X137847667Y-113673516D01*
X137847668Y-113673518D01*
X137913725Y-113832993D01*
X137947400Y-114002291D01*
X137947400Y-114174909D01*
X137913725Y-114344207D01*
X137847668Y-114503682D01*
X137847667Y-114503684D01*
X137751767Y-114647209D01*
X137629709Y-114769267D01*
X137486184Y-114865167D01*
X137486183Y-114865168D01*
X137486182Y-114865168D01*
X137326707Y-114931225D01*
X137157409Y-114964900D01*
X136984791Y-114964900D01*
X136815493Y-114931225D01*
X136656018Y-114865168D01*
X136656017Y-114865168D01*
X136656016Y-114865167D01*
X136512491Y-114769267D01*
X136390433Y-114647209D01*
X136294533Y-114503684D01*
X136294532Y-114503682D01*
X136228475Y-114344207D01*
X136194800Y-114174909D01*
X136194800Y-114002291D01*
X136228475Y-113832993D01*
X136294532Y-113673518D01*
X136294533Y-113673516D01*
X136390433Y-113529991D01*
X136512491Y-113407933D01*
X136656016Y-113312033D01*
X136656018Y-113312032D01*
X136815493Y-113245975D01*
X136984791Y-113212300D01*
X137157409Y-113212300D01*
X137326707Y-113245975D01*
X137326707Y-113245975D01*
G37*
G36*
X157646707Y-113245975D02*
G01*
X157806182Y-113312032D01*
X157806184Y-113312033D01*
X157949709Y-113407933D01*
X158071767Y-113529991D01*
X158167667Y-113673516D01*
X158167668Y-113673518D01*
X158233725Y-113832993D01*
X158267400Y-114002291D01*
X158267400Y-114174909D01*
X158233725Y-114344207D01*
X158167668Y-114503682D01*
X158167667Y-114503684D01*
X158071767Y-114647209D01*
X157949709Y-114769267D01*
X157806184Y-114865167D01*
X157806183Y-114865168D01*
X157806182Y-114865168D01*
X157646707Y-114931225D01*
X157477409Y-114964900D01*
X157304791Y-114964900D01*
X157135493Y-114931225D01*
X156976018Y-114865168D01*
X156976017Y-114865168D01*
X156976016Y-114865167D01*
X156832491Y-114769267D01*
X156710433Y-114647209D01*
X156614533Y-114503684D01*
X156614532Y-114503682D01*
X156548475Y-114344207D01*
X156514800Y-114174909D01*
X156514800Y-114002291D01*
X156548475Y-113832993D01*
X156614532Y-113673518D01*
X156614533Y-113673516D01*
X156710433Y-113529991D01*
X156832491Y-113407933D01*
X156976016Y-113312033D01*
X156976018Y-113312032D01*
X157135493Y-113245975D01*
X157304791Y-113212300D01*
X157477409Y-113212300D01*
X157646707Y-113245975D01*
X157646707Y-113245975D01*
G37*
G36*
X152566707Y-113245975D02*
G01*
X152726182Y-113312032D01*
X152726184Y-113312033D01*
X152869709Y-113407933D01*
X152991767Y-113529991D01*
X153087667Y-113673516D01*
X153087668Y-113673518D01*
X153153725Y-113832993D01*
X153187400Y-114002291D01*
X153187400Y-114174909D01*
X153153725Y-114344207D01*
X153087668Y-114503682D01*
X153087667Y-114503684D01*
X152991767Y-114647209D01*
X152869709Y-114769267D01*
X152726184Y-114865167D01*
X152726183Y-114865168D01*
X152726182Y-114865168D01*
X152566707Y-114931225D01*
X152397409Y-114964900D01*
X152224791Y-114964900D01*
X152055493Y-114931225D01*
X151896018Y-114865168D01*
X151896017Y-114865168D01*
X151896016Y-114865167D01*
X151752491Y-114769267D01*
X151630433Y-114647209D01*
X151534533Y-114503684D01*
X151534532Y-114503682D01*
X151468475Y-114344207D01*
X151434800Y-114174909D01*
X151434800Y-114002291D01*
X151468475Y-113832993D01*
X151534532Y-113673518D01*
X151534533Y-113673516D01*
X151630433Y-113529991D01*
X151752491Y-113407933D01*
X151896016Y-113312033D01*
X151896018Y-113312032D01*
X152055493Y-113245975D01*
X152224791Y-113212300D01*
X152397409Y-113212300D01*
X152566707Y-113245975D01*
X152566707Y-113245975D01*
G37*
G36*
X134501000Y-107701000D02*
G01*
X132699000Y-107701000D01*
X132699000Y-105899000D01*
X134501000Y-105899000D01*
X134501000Y-107701000D01*
X134501000Y-107701000D01*
G37*
G36*
X148997262Y-99692968D02*
G01*
X149306824Y-99821193D01*
X149306825Y-99821194D01*
X149585424Y-100007347D01*
X149822353Y-100244276D01*
X149946737Y-100430430D01*
X150008507Y-100522876D01*
X150136732Y-100832438D01*
X150202100Y-101161065D01*
X150202100Y-101496135D01*
X150136732Y-101824762D01*
X150103311Y-101905447D01*
X150096198Y-101928896D01*
X150093796Y-101953282D01*
X150096198Y-101977668D01*
X150103311Y-102001117D01*
X150114862Y-102022727D01*
X150130407Y-102041670D01*
X150404916Y-102316179D01*
X150673149Y-102717618D01*
X150857910Y-103163671D01*
X150952100Y-103637196D01*
X150952100Y-104120004D01*
X150857910Y-104593529D01*
X150684251Y-105012779D01*
X150673148Y-105039584D01*
X150404916Y-105441021D01*
X150063521Y-105782416D01*
X149662084Y-106050648D01*
X149662083Y-106050649D01*
X149662082Y-106050649D01*
X149216029Y-106235410D01*
X148742504Y-106329600D01*
X148259696Y-106329600D01*
X147786171Y-106235410D01*
X147340118Y-106050649D01*
X147340117Y-106050649D01*
X147340116Y-106050648D01*
X146938679Y-105782416D01*
X146597284Y-105441021D01*
X146329052Y-105039584D01*
X146317949Y-105012779D01*
X146144290Y-104593529D01*
X146050100Y-104120004D01*
X146050100Y-103637196D01*
X146144290Y-103163671D01*
X146329051Y-102717618D01*
X146597284Y-102316179D01*
X146871793Y-102041670D01*
X146887338Y-102022728D01*
X146898889Y-102001117D01*
X146906002Y-101977668D01*
X146908404Y-101953282D01*
X146906002Y-101928896D01*
X146898889Y-101905447D01*
X146865468Y-101824762D01*
X146800100Y-101496135D01*
X146800100Y-101161065D01*
X146865468Y-100832438D01*
X146993693Y-100522876D01*
X147055463Y-100430430D01*
X147179847Y-100244276D01*
X147416776Y-100007347D01*
X147695375Y-99821194D01*
X147695376Y-99821193D01*
X148004938Y-99692968D01*
X148333565Y-99627600D01*
X148668635Y-99627600D01*
X148997262Y-99692968D01*
X148997262Y-99692968D01*
G37*
G36*
X133710443Y-103365519D02*
G01*
X133776627Y-103372037D01*
X133946466Y-103423557D01*
X134102991Y-103507222D01*
X134138729Y-103536552D01*
X134240186Y-103619814D01*
X134323448Y-103721271D01*
X134352778Y-103757009D01*
X134436443Y-103913534D01*
X134487963Y-104083373D01*
X134505359Y-104260000D01*
X134487963Y-104436627D01*
X134436443Y-104606466D01*
X134352778Y-104762991D01*
X134323448Y-104798729D01*
X134240186Y-104900186D01*
X134138729Y-104983448D01*
X134102991Y-105012778D01*
X133946466Y-105096443D01*
X133776627Y-105147963D01*
X133710442Y-105154482D01*
X133644260Y-105161000D01*
X133555740Y-105161000D01*
X133489557Y-105154481D01*
X133423373Y-105147963D01*
X133253534Y-105096443D01*
X133097009Y-105012778D01*
X133061271Y-104983448D01*
X132959814Y-104900186D01*
X132876552Y-104798729D01*
X132847222Y-104762991D01*
X132763557Y-104606466D01*
X132712037Y-104436627D01*
X132694641Y-104260000D01*
X132712037Y-104083373D01*
X132763557Y-103913534D01*
X132847222Y-103757009D01*
X132876552Y-103721271D01*
X132959814Y-103619814D01*
X133061271Y-103536552D01*
X133097009Y-103507222D01*
X133253534Y-103423557D01*
X133423373Y-103372037D01*
X133489557Y-103365519D01*
X133555740Y-103359000D01*
X133644260Y-103359000D01*
X133710443Y-103365519D01*
X133710443Y-103365519D01*
G37*
G36*
X133710443Y-100825519D02*
G01*
X133776627Y-100832037D01*
X133946466Y-100883557D01*
X134102991Y-100967222D01*
X134138729Y-100996552D01*
X134240186Y-101079814D01*
X134323448Y-101181271D01*
X134352778Y-101217009D01*
X134436443Y-101373534D01*
X134487963Y-101543373D01*
X134505359Y-101720000D01*
X134487963Y-101896627D01*
X134436443Y-102066466D01*
X134352778Y-102222991D01*
X134323448Y-102258729D01*
X134240186Y-102360186D01*
X134138729Y-102443448D01*
X134102991Y-102472778D01*
X133946466Y-102556443D01*
X133776627Y-102607963D01*
X133710443Y-102614481D01*
X133644260Y-102621000D01*
X133555740Y-102621000D01*
X133489558Y-102614482D01*
X133423373Y-102607963D01*
X133253534Y-102556443D01*
X133097009Y-102472778D01*
X133061271Y-102443448D01*
X132959814Y-102360186D01*
X132876552Y-102258729D01*
X132847222Y-102222991D01*
X132763557Y-102066466D01*
X132712037Y-101896627D01*
X132694641Y-101720000D01*
X132712037Y-101543373D01*
X132763557Y-101373534D01*
X132847222Y-101217009D01*
X132876552Y-101181271D01*
X132959814Y-101079814D01*
X133061271Y-100996552D01*
X133097009Y-100967222D01*
X133253534Y-100883557D01*
X133423373Y-100832037D01*
X133489557Y-100825519D01*
X133555740Y-100819000D01*
X133644260Y-100819000D01*
X133710443Y-100825519D01*
X133710443Y-100825519D01*
G37*
G36*
X173685607Y-89367375D02*
G01*
X173845082Y-89433432D01*
X173845084Y-89433433D01*
X173988609Y-89529333D01*
X174110667Y-89651391D01*
X174179490Y-89754393D01*
X174206568Y-89794918D01*
X174272625Y-89954393D01*
X174306300Y-90123691D01*
X174306300Y-90296309D01*
X174272625Y-90465607D01*
X174229960Y-90568608D01*
X174206567Y-90625084D01*
X174110667Y-90768609D01*
X173988609Y-90890667D01*
X173845084Y-90986567D01*
X173845083Y-90986568D01*
X173845082Y-90986568D01*
X173685607Y-91052625D01*
X173516309Y-91086300D01*
X173343691Y-91086300D01*
X173174393Y-91052625D01*
X173014918Y-90986568D01*
X173014917Y-90986568D01*
X173014916Y-90986567D01*
X172871391Y-90890667D01*
X172749333Y-90768609D01*
X172653433Y-90625084D01*
X172630040Y-90568608D01*
X172587375Y-90465607D01*
X172553700Y-90296309D01*
X172553700Y-90123691D01*
X172587375Y-89954393D01*
X172653432Y-89794918D01*
X172680510Y-89754393D01*
X172749333Y-89651391D01*
X172871391Y-89529333D01*
X173014916Y-89433433D01*
X173014918Y-89433432D01*
X173174393Y-89367375D01*
X173343691Y-89333700D01*
X173516309Y-89333700D01*
X173685607Y-89367375D01*
X173685607Y-89367375D01*
G37*
G36*
X163525607Y-89367375D02*
G01*
X163685082Y-89433432D01*
X163685084Y-89433433D01*
X163828609Y-89529333D01*
X163950667Y-89651391D01*
X164019490Y-89754393D01*
X164046568Y-89794918D01*
X164112625Y-89954393D01*
X164146300Y-90123691D01*
X164146300Y-90296309D01*
X164112625Y-90465607D01*
X164069960Y-90568608D01*
X164046567Y-90625084D01*
X163950667Y-90768609D01*
X163828609Y-90890667D01*
X163685084Y-90986567D01*
X163685083Y-90986568D01*
X163685082Y-90986568D01*
X163525607Y-91052625D01*
X163356309Y-91086300D01*
X163183691Y-91086300D01*
X163014393Y-91052625D01*
X162854918Y-90986568D01*
X162854917Y-90986568D01*
X162854916Y-90986567D01*
X162711391Y-90890667D01*
X162589333Y-90768609D01*
X162493433Y-90625084D01*
X162470040Y-90568608D01*
X162427375Y-90465607D01*
X162393700Y-90296309D01*
X162393700Y-90123691D01*
X162427375Y-89954393D01*
X162493432Y-89794918D01*
X162520510Y-89754393D01*
X162589333Y-89651391D01*
X162711391Y-89529333D01*
X162854916Y-89433433D01*
X162854918Y-89433432D01*
X163014393Y-89367375D01*
X163183691Y-89333700D01*
X163356309Y-89333700D01*
X163525607Y-89367375D01*
X163525607Y-89367375D01*
G37*
G36*
X160985607Y-89367375D02*
G01*
X161145082Y-89433432D01*
X161145084Y-89433433D01*
X161288609Y-89529333D01*
X161410667Y-89651391D01*
X161479490Y-89754393D01*
X161506568Y-89794918D01*
X161572625Y-89954393D01*
X161606300Y-90123691D01*
X161606300Y-90296309D01*
X161572625Y-90465607D01*
X161529960Y-90568608D01*
X161506567Y-90625084D01*
X161410667Y-90768609D01*
X161288609Y-90890667D01*
X161145084Y-90986567D01*
X161145083Y-90986568D01*
X161145082Y-90986568D01*
X160985607Y-91052625D01*
X160816309Y-91086300D01*
X160643691Y-91086300D01*
X160474393Y-91052625D01*
X160314918Y-90986568D01*
X160314917Y-90986568D01*
X160314916Y-90986567D01*
X160171391Y-90890667D01*
X160049333Y-90768609D01*
X159953433Y-90625084D01*
X159930040Y-90568608D01*
X159887375Y-90465607D01*
X159853700Y-90296309D01*
X159853700Y-90123691D01*
X159887375Y-89954393D01*
X159953432Y-89794918D01*
X159980510Y-89754393D01*
X160049333Y-89651391D01*
X160171391Y-89529333D01*
X160314916Y-89433433D01*
X160314918Y-89433432D01*
X160474393Y-89367375D01*
X160643691Y-89333700D01*
X160816309Y-89333700D01*
X160985607Y-89367375D01*
X160985607Y-89367375D01*
G37*
G36*
X158445607Y-89367375D02*
G01*
X158605082Y-89433432D01*
X158605084Y-89433433D01*
X158748609Y-89529333D01*
X158870667Y-89651391D01*
X158939490Y-89754393D01*
X158966568Y-89794918D01*
X159032625Y-89954393D01*
X159066300Y-90123691D01*
X159066300Y-90296309D01*
X159032625Y-90465607D01*
X158989960Y-90568608D01*
X158966567Y-90625084D01*
X158870667Y-90768609D01*
X158748609Y-90890667D01*
X158605084Y-90986567D01*
X158605083Y-90986568D01*
X158605082Y-90986568D01*
X158445607Y-91052625D01*
X158276309Y-91086300D01*
X158103691Y-91086300D01*
X157934393Y-91052625D01*
X157774918Y-90986568D01*
X157774917Y-90986568D01*
X157774916Y-90986567D01*
X157631391Y-90890667D01*
X157509333Y-90768609D01*
X157413433Y-90625084D01*
X157390040Y-90568608D01*
X157347375Y-90465607D01*
X157313700Y-90296309D01*
X157313700Y-90123691D01*
X157347375Y-89954393D01*
X157413432Y-89794918D01*
X157440510Y-89754393D01*
X157509333Y-89651391D01*
X157631391Y-89529333D01*
X157774916Y-89433433D01*
X157774918Y-89433432D01*
X157934393Y-89367375D01*
X158103691Y-89333700D01*
X158276309Y-89333700D01*
X158445607Y-89367375D01*
X158445607Y-89367375D01*
G37*
G36*
X155905607Y-89367375D02*
G01*
X156065082Y-89433432D01*
X156065084Y-89433433D01*
X156208609Y-89529333D01*
X156330667Y-89651391D01*
X156399490Y-89754393D01*
X156426568Y-89794918D01*
X156492625Y-89954393D01*
X156526300Y-90123691D01*
X156526300Y-90296309D01*
X156492625Y-90465607D01*
X156449960Y-90568608D01*
X156426567Y-90625084D01*
X156330667Y-90768609D01*
X156208609Y-90890667D01*
X156065084Y-90986567D01*
X156065083Y-90986568D01*
X156065082Y-90986568D01*
X155905607Y-91052625D01*
X155736309Y-91086300D01*
X155563691Y-91086300D01*
X155394393Y-91052625D01*
X155234918Y-90986568D01*
X155234917Y-90986568D01*
X155234916Y-90986567D01*
X155091391Y-90890667D01*
X154969333Y-90768609D01*
X154873433Y-90625084D01*
X154850040Y-90568608D01*
X154807375Y-90465607D01*
X154773700Y-90296309D01*
X154773700Y-90123691D01*
X154807375Y-89954393D01*
X154873432Y-89794918D01*
X154900510Y-89754393D01*
X154969333Y-89651391D01*
X155091391Y-89529333D01*
X155234916Y-89433433D01*
X155234918Y-89433432D01*
X155394393Y-89367375D01*
X155563691Y-89333700D01*
X155736309Y-89333700D01*
X155905607Y-89367375D01*
X155905607Y-89367375D01*
G37*
G36*
X153365607Y-89367375D02*
G01*
X153525082Y-89433432D01*
X153525084Y-89433433D01*
X153668609Y-89529333D01*
X153790667Y-89651391D01*
X153859490Y-89754393D01*
X153886568Y-89794918D01*
X153952625Y-89954393D01*
X153986300Y-90123691D01*
X153986300Y-90296309D01*
X153952625Y-90465607D01*
X153909960Y-90568608D01*
X153886567Y-90625084D01*
X153790667Y-90768609D01*
X153668609Y-90890667D01*
X153525084Y-90986567D01*
X153525083Y-90986568D01*
X153525082Y-90986568D01*
X153365607Y-91052625D01*
X153196309Y-91086300D01*
X153023691Y-91086300D01*
X152854393Y-91052625D01*
X152694918Y-90986568D01*
X152694917Y-90986568D01*
X152694916Y-90986567D01*
X152551391Y-90890667D01*
X152429333Y-90768609D01*
X152333433Y-90625084D01*
X152310040Y-90568608D01*
X152267375Y-90465607D01*
X152233700Y-90296309D01*
X152233700Y-90123691D01*
X152267375Y-89954393D01*
X152333432Y-89794918D01*
X152360510Y-89754393D01*
X152429333Y-89651391D01*
X152551391Y-89529333D01*
X152694916Y-89433433D01*
X152694918Y-89433432D01*
X152854393Y-89367375D01*
X153023691Y-89333700D01*
X153196309Y-89333700D01*
X153365607Y-89367375D01*
X153365607Y-89367375D01*
G37*
G36*
X150825607Y-89367375D02*
G01*
X150985082Y-89433432D01*
X150985084Y-89433433D01*
X151128609Y-89529333D01*
X151250667Y-89651391D01*
X151319490Y-89754393D01*
X151346568Y-89794918D01*
X151412625Y-89954393D01*
X151446300Y-90123691D01*
X151446300Y-90296309D01*
X151412625Y-90465607D01*
X151369960Y-90568608D01*
X151346567Y-90625084D01*
X151250667Y-90768609D01*
X151128609Y-90890667D01*
X150985084Y-90986567D01*
X150985083Y-90986568D01*
X150985082Y-90986568D01*
X150825607Y-91052625D01*
X150656309Y-91086300D01*
X150483691Y-91086300D01*
X150314393Y-91052625D01*
X150154918Y-90986568D01*
X150154917Y-90986568D01*
X150154916Y-90986567D01*
X150011391Y-90890667D01*
X149889333Y-90768609D01*
X149793433Y-90625084D01*
X149770040Y-90568608D01*
X149727375Y-90465607D01*
X149693700Y-90296309D01*
X149693700Y-90123691D01*
X149727375Y-89954393D01*
X149793432Y-89794918D01*
X149820510Y-89754393D01*
X149889333Y-89651391D01*
X150011391Y-89529333D01*
X150154916Y-89433433D01*
X150154918Y-89433432D01*
X150314393Y-89367375D01*
X150483691Y-89333700D01*
X150656309Y-89333700D01*
X150825607Y-89367375D01*
X150825607Y-89367375D01*
G37*
G36*
X166065607Y-89367375D02*
G01*
X166225082Y-89433432D01*
X166225084Y-89433433D01*
X166368609Y-89529333D01*
X166490667Y-89651391D01*
X166559490Y-89754393D01*
X166586568Y-89794918D01*
X166652625Y-89954393D01*
X166686300Y-90123691D01*
X166686300Y-90296309D01*
X166652625Y-90465607D01*
X166609960Y-90568608D01*
X166586567Y-90625084D01*
X166490667Y-90768609D01*
X166368609Y-90890667D01*
X166225084Y-90986567D01*
X166225083Y-90986568D01*
X166225082Y-90986568D01*
X166065607Y-91052625D01*
X165896309Y-91086300D01*
X165723691Y-91086300D01*
X165554393Y-91052625D01*
X165394918Y-90986568D01*
X165394917Y-90986568D01*
X165394916Y-90986567D01*
X165251391Y-90890667D01*
X165129333Y-90768609D01*
X165033433Y-90625084D01*
X165010040Y-90568608D01*
X164967375Y-90465607D01*
X164933700Y-90296309D01*
X164933700Y-90123691D01*
X164967375Y-89954393D01*
X165033432Y-89794918D01*
X165060510Y-89754393D01*
X165129333Y-89651391D01*
X165251391Y-89529333D01*
X165394916Y-89433433D01*
X165394918Y-89433432D01*
X165554393Y-89367375D01*
X165723691Y-89333700D01*
X165896309Y-89333700D01*
X166065607Y-89367375D01*
X166065607Y-89367375D01*
G37*
G36*
X171145607Y-89367375D02*
G01*
X171305082Y-89433432D01*
X171305084Y-89433433D01*
X171448609Y-89529333D01*
X171570667Y-89651391D01*
X171639490Y-89754393D01*
X171666568Y-89794918D01*
X171732625Y-89954393D01*
X171766300Y-90123691D01*
X171766300Y-90296309D01*
X171732625Y-90465607D01*
X171689960Y-90568608D01*
X171666567Y-90625084D01*
X171570667Y-90768609D01*
X171448609Y-90890667D01*
X171305084Y-90986567D01*
X171305083Y-90986568D01*
X171305082Y-90986568D01*
X171145607Y-91052625D01*
X170976309Y-91086300D01*
X170803691Y-91086300D01*
X170634393Y-91052625D01*
X170474918Y-90986568D01*
X170474917Y-90986568D01*
X170474916Y-90986567D01*
X170331391Y-90890667D01*
X170209333Y-90768609D01*
X170113433Y-90625084D01*
X170090040Y-90568608D01*
X170047375Y-90465607D01*
X170013700Y-90296309D01*
X170013700Y-90123691D01*
X170047375Y-89954393D01*
X170113432Y-89794918D01*
X170140510Y-89754393D01*
X170209333Y-89651391D01*
X170331391Y-89529333D01*
X170474916Y-89433433D01*
X170474918Y-89433432D01*
X170634393Y-89367375D01*
X170803691Y-89333700D01*
X170976309Y-89333700D01*
X171145607Y-89367375D01*
X171145607Y-89367375D01*
G37*
G36*
X168605607Y-89367375D02*
G01*
X168765082Y-89433432D01*
X168765084Y-89433433D01*
X168908609Y-89529333D01*
X169030667Y-89651391D01*
X169099490Y-89754393D01*
X169126568Y-89794918D01*
X169192625Y-89954393D01*
X169226300Y-90123691D01*
X169226300Y-90296309D01*
X169192625Y-90465607D01*
X169149960Y-90568608D01*
X169126567Y-90625084D01*
X169030667Y-90768609D01*
X168908609Y-90890667D01*
X168765084Y-90986567D01*
X168765083Y-90986568D01*
X168765082Y-90986568D01*
X168605607Y-91052625D01*
X168436309Y-91086300D01*
X168263691Y-91086300D01*
X168094393Y-91052625D01*
X167934918Y-90986568D01*
X167934917Y-90986568D01*
X167934916Y-90986567D01*
X167791391Y-90890667D01*
X167669333Y-90768609D01*
X167573433Y-90625084D01*
X167550040Y-90568608D01*
X167507375Y-90465607D01*
X167473700Y-90296309D01*
X167473700Y-90123691D01*
X167507375Y-89954393D01*
X167573432Y-89794918D01*
X167600510Y-89754393D01*
X167669333Y-89651391D01*
X167791391Y-89529333D01*
X167934916Y-89433433D01*
X167934918Y-89433432D01*
X168094393Y-89367375D01*
X168263691Y-89333700D01*
X168436309Y-89333700D01*
X168605607Y-89367375D01*
X168605607Y-89367375D01*
G37*
G36*
X139735607Y-89167375D02*
G01*
X139895082Y-89233432D01*
X139895084Y-89233433D01*
X140038609Y-89329333D01*
X140160667Y-89451391D01*
X140212746Y-89529333D01*
X140256568Y-89594918D01*
X140322625Y-89754393D01*
X140356300Y-89923691D01*
X140356300Y-90096309D01*
X140322625Y-90265607D01*
X140256568Y-90425082D01*
X140256567Y-90425084D01*
X140160667Y-90568609D01*
X140038609Y-90690667D01*
X139895084Y-90786567D01*
X139895083Y-90786568D01*
X139895082Y-90786568D01*
X139735607Y-90852625D01*
X139566309Y-90886300D01*
X139393691Y-90886300D01*
X139224393Y-90852625D01*
X139064918Y-90786568D01*
X139064917Y-90786568D01*
X139064916Y-90786567D01*
X138921391Y-90690667D01*
X138799333Y-90568609D01*
X138703433Y-90425084D01*
X138703432Y-90425082D01*
X138637375Y-90265607D01*
X138603700Y-90096309D01*
X138603700Y-89923691D01*
X138637375Y-89754393D01*
X138703432Y-89594918D01*
X138747254Y-89529333D01*
X138799333Y-89451391D01*
X138921391Y-89329333D01*
X139064916Y-89233433D01*
X139064918Y-89233432D01*
X139224393Y-89167375D01*
X139393691Y-89133700D01*
X139566309Y-89133700D01*
X139735607Y-89167375D01*
X139735607Y-89167375D01*
G37*
G36*
X137195607Y-89167375D02*
G01*
X137355082Y-89233432D01*
X137355084Y-89233433D01*
X137498609Y-89329333D01*
X137620667Y-89451391D01*
X137672746Y-89529333D01*
X137716568Y-89594918D01*
X137782625Y-89754393D01*
X137816300Y-89923691D01*
X137816300Y-90096309D01*
X137782625Y-90265607D01*
X137716568Y-90425082D01*
X137716567Y-90425084D01*
X137620667Y-90568609D01*
X137498609Y-90690667D01*
X137355084Y-90786567D01*
X137355083Y-90786568D01*
X137355082Y-90786568D01*
X137195607Y-90852625D01*
X137026309Y-90886300D01*
X136853691Y-90886300D01*
X136684393Y-90852625D01*
X136524918Y-90786568D01*
X136524917Y-90786568D01*
X136524916Y-90786567D01*
X136381391Y-90690667D01*
X136259333Y-90568609D01*
X136163433Y-90425084D01*
X136163432Y-90425082D01*
X136097375Y-90265607D01*
X136063700Y-90096309D01*
X136063700Y-89923691D01*
X136097375Y-89754393D01*
X136163432Y-89594918D01*
X136207254Y-89529333D01*
X136259333Y-89451391D01*
X136381391Y-89329333D01*
X136524916Y-89233433D01*
X136524918Y-89233432D01*
X136684393Y-89167375D01*
X136853691Y-89133700D01*
X137026309Y-89133700D01*
X137195607Y-89167375D01*
X137195607Y-89167375D01*
G37*
G36*
X134655607Y-89167375D02*
G01*
X134815082Y-89233432D01*
X134815084Y-89233433D01*
X134958609Y-89329333D01*
X135080667Y-89451391D01*
X135132746Y-89529333D01*
X135176568Y-89594918D01*
X135242625Y-89754393D01*
X135276300Y-89923691D01*
X135276300Y-90096309D01*
X135242625Y-90265607D01*
X135176568Y-90425082D01*
X135176567Y-90425084D01*
X135080667Y-90568609D01*
X134958609Y-90690667D01*
X134815084Y-90786567D01*
X134815083Y-90786568D01*
X134815082Y-90786568D01*
X134655607Y-90852625D01*
X134486309Y-90886300D01*
X134313691Y-90886300D01*
X134144393Y-90852625D01*
X133984918Y-90786568D01*
X133984917Y-90786568D01*
X133984916Y-90786567D01*
X133841391Y-90690667D01*
X133719333Y-90568609D01*
X133623433Y-90425084D01*
X133623432Y-90425082D01*
X133557375Y-90265607D01*
X133523700Y-90096309D01*
X133523700Y-89923691D01*
X133557375Y-89754393D01*
X133623432Y-89594918D01*
X133667254Y-89529333D01*
X133719333Y-89451391D01*
X133841391Y-89329333D01*
X133984916Y-89233433D01*
X133984918Y-89233432D01*
X134144393Y-89167375D01*
X134313691Y-89133700D01*
X134486309Y-89133700D01*
X134655607Y-89167375D01*
X134655607Y-89167375D01*
G37*
G36*
X129575607Y-89167375D02*
G01*
X129735082Y-89233432D01*
X129735084Y-89233433D01*
X129878609Y-89329333D01*
X130000667Y-89451391D01*
X130052746Y-89529333D01*
X130096568Y-89594918D01*
X130162625Y-89754393D01*
X130196300Y-89923691D01*
X130196300Y-90096309D01*
X130162625Y-90265607D01*
X130096568Y-90425082D01*
X130096567Y-90425084D01*
X130000667Y-90568609D01*
X129878609Y-90690667D01*
X129735084Y-90786567D01*
X129735083Y-90786568D01*
X129735082Y-90786568D01*
X129575607Y-90852625D01*
X129406309Y-90886300D01*
X129233691Y-90886300D01*
X129064393Y-90852625D01*
X128904918Y-90786568D01*
X128904917Y-90786568D01*
X128904916Y-90786567D01*
X128761391Y-90690667D01*
X128639333Y-90568609D01*
X128543433Y-90425084D01*
X128543432Y-90425082D01*
X128477375Y-90265607D01*
X128443700Y-90096309D01*
X128443700Y-89923691D01*
X128477375Y-89754393D01*
X128543432Y-89594918D01*
X128587254Y-89529333D01*
X128639333Y-89451391D01*
X128761391Y-89329333D01*
X128904916Y-89233433D01*
X128904918Y-89233432D01*
X129064393Y-89167375D01*
X129233691Y-89133700D01*
X129406309Y-89133700D01*
X129575607Y-89167375D01*
X129575607Y-89167375D01*
G37*
G36*
X127035607Y-89167375D02*
G01*
X127195082Y-89233432D01*
X127195084Y-89233433D01*
X127338609Y-89329333D01*
X127460667Y-89451391D01*
X127512746Y-89529333D01*
X127556568Y-89594918D01*
X127622625Y-89754393D01*
X127656300Y-89923691D01*
X127656300Y-90096309D01*
X127622625Y-90265607D01*
X127556568Y-90425082D01*
X127556567Y-90425084D01*
X127460667Y-90568609D01*
X127338609Y-90690667D01*
X127195084Y-90786567D01*
X127195083Y-90786568D01*
X127195082Y-90786568D01*
X127035607Y-90852625D01*
X126866309Y-90886300D01*
X126693691Y-90886300D01*
X126524393Y-90852625D01*
X126364918Y-90786568D01*
X126364917Y-90786568D01*
X126364916Y-90786567D01*
X126221391Y-90690667D01*
X126099333Y-90568609D01*
X126003433Y-90425084D01*
X126003432Y-90425082D01*
X125937375Y-90265607D01*
X125903700Y-90096309D01*
X125903700Y-89923691D01*
X125937375Y-89754393D01*
X126003432Y-89594918D01*
X126047254Y-89529333D01*
X126099333Y-89451391D01*
X126221391Y-89329333D01*
X126364916Y-89233433D01*
X126364918Y-89233432D01*
X126524393Y-89167375D01*
X126693691Y-89133700D01*
X126866309Y-89133700D01*
X127035607Y-89167375D01*
X127035607Y-89167375D01*
G37*
G36*
X142275607Y-89167375D02*
G01*
X142435082Y-89233432D01*
X142435084Y-89233433D01*
X142578609Y-89329333D01*
X142700667Y-89451391D01*
X142752746Y-89529333D01*
X142796568Y-89594918D01*
X142862625Y-89754393D01*
X142896300Y-89923691D01*
X142896300Y-90096309D01*
X142862625Y-90265607D01*
X142796568Y-90425082D01*
X142796567Y-90425084D01*
X142700667Y-90568609D01*
X142578609Y-90690667D01*
X142435084Y-90786567D01*
X142435083Y-90786568D01*
X142435082Y-90786568D01*
X142275607Y-90852625D01*
X142106309Y-90886300D01*
X141933691Y-90886300D01*
X141764393Y-90852625D01*
X141604918Y-90786568D01*
X141604917Y-90786568D01*
X141604916Y-90786567D01*
X141461391Y-90690667D01*
X141339333Y-90568609D01*
X141243433Y-90425084D01*
X141243432Y-90425082D01*
X141177375Y-90265607D01*
X141143700Y-90096309D01*
X141143700Y-89923691D01*
X141177375Y-89754393D01*
X141243432Y-89594918D01*
X141287254Y-89529333D01*
X141339333Y-89451391D01*
X141461391Y-89329333D01*
X141604916Y-89233433D01*
X141604918Y-89233432D01*
X141764393Y-89167375D01*
X141933691Y-89133700D01*
X142106309Y-89133700D01*
X142275607Y-89167375D01*
X142275607Y-89167375D01*
G37*
G36*
X132115607Y-89167375D02*
G01*
X132275082Y-89233432D01*
X132275084Y-89233433D01*
X132418609Y-89329333D01*
X132540667Y-89451391D01*
X132592746Y-89529333D01*
X132636568Y-89594918D01*
X132702625Y-89754393D01*
X132736300Y-89923691D01*
X132736300Y-90096309D01*
X132702625Y-90265607D01*
X132636568Y-90425082D01*
X132636567Y-90425084D01*
X132540667Y-90568609D01*
X132418609Y-90690667D01*
X132275084Y-90786567D01*
X132275083Y-90786568D01*
X132275082Y-90786568D01*
X132115607Y-90852625D01*
X131946309Y-90886300D01*
X131773691Y-90886300D01*
X131604393Y-90852625D01*
X131444918Y-90786568D01*
X131444917Y-90786568D01*
X131444916Y-90786567D01*
X131301391Y-90690667D01*
X131179333Y-90568609D01*
X131083433Y-90425084D01*
X131083432Y-90425082D01*
X131017375Y-90265607D01*
X130983700Y-90096309D01*
X130983700Y-89923691D01*
X131017375Y-89754393D01*
X131083432Y-89594918D01*
X131127254Y-89529333D01*
X131179333Y-89451391D01*
X131301391Y-89329333D01*
X131444916Y-89233433D01*
X131444918Y-89233432D01*
X131604393Y-89167375D01*
X131773691Y-89133700D01*
X131946309Y-89133700D01*
X132115607Y-89167375D01*
X132115607Y-89167375D01*
G37*
G36*
X173685607Y-81747375D02*
G01*
X173845082Y-81813432D01*
X173845084Y-81813433D01*
X173988609Y-81909333D01*
X174110667Y-82031391D01*
X174179490Y-82134393D01*
X174206568Y-82174918D01*
X174272625Y-82334393D01*
X174306300Y-82503691D01*
X174306300Y-82676309D01*
X174272625Y-82845607D01*
X174229960Y-82948608D01*
X174206567Y-83005084D01*
X174110667Y-83148609D01*
X173988609Y-83270667D01*
X173845084Y-83366567D01*
X173845083Y-83366568D01*
X173845082Y-83366568D01*
X173685607Y-83432625D01*
X173516309Y-83466300D01*
X173343691Y-83466300D01*
X173174393Y-83432625D01*
X173014918Y-83366568D01*
X173014917Y-83366568D01*
X173014916Y-83366567D01*
X172871391Y-83270667D01*
X172749333Y-83148609D01*
X172653433Y-83005084D01*
X172630040Y-82948608D01*
X172587375Y-82845607D01*
X172553700Y-82676309D01*
X172553700Y-82503691D01*
X172587375Y-82334393D01*
X172653432Y-82174918D01*
X172680510Y-82134393D01*
X172749333Y-82031391D01*
X172871391Y-81909333D01*
X173014916Y-81813433D01*
X173014918Y-81813432D01*
X173174393Y-81747375D01*
X173343691Y-81713700D01*
X173516309Y-81713700D01*
X173685607Y-81747375D01*
X173685607Y-81747375D01*
G37*
G36*
X153365607Y-81747375D02*
G01*
X153525082Y-81813432D01*
X153525084Y-81813433D01*
X153668609Y-81909333D01*
X153790667Y-82031391D01*
X153859490Y-82134393D01*
X153886568Y-82174918D01*
X153952625Y-82334393D01*
X153986300Y-82503691D01*
X153986300Y-82676309D01*
X153952625Y-82845607D01*
X153909960Y-82948608D01*
X153886567Y-83005084D01*
X153790667Y-83148609D01*
X153668609Y-83270667D01*
X153525084Y-83366567D01*
X153525083Y-83366568D01*
X153525082Y-83366568D01*
X153365607Y-83432625D01*
X153196309Y-83466300D01*
X153023691Y-83466300D01*
X152854393Y-83432625D01*
X152694918Y-83366568D01*
X152694917Y-83366568D01*
X152694916Y-83366567D01*
X152551391Y-83270667D01*
X152429333Y-83148609D01*
X152333433Y-83005084D01*
X152310040Y-82948608D01*
X152267375Y-82845607D01*
X152233700Y-82676309D01*
X152233700Y-82503691D01*
X152267375Y-82334393D01*
X152333432Y-82174918D01*
X152360510Y-82134393D01*
X152429333Y-82031391D01*
X152551391Y-81909333D01*
X152694916Y-81813433D01*
X152694918Y-81813432D01*
X152854393Y-81747375D01*
X153023691Y-81713700D01*
X153196309Y-81713700D01*
X153365607Y-81747375D01*
X153365607Y-81747375D01*
G37*
G36*
X155905607Y-81747375D02*
G01*
X156065082Y-81813432D01*
X156065084Y-81813433D01*
X156208609Y-81909333D01*
X156330667Y-82031391D01*
X156399490Y-82134393D01*
X156426568Y-82174918D01*
X156492625Y-82334393D01*
X156526300Y-82503691D01*
X156526300Y-82676309D01*
X156492625Y-82845607D01*
X156449960Y-82948608D01*
X156426567Y-83005084D01*
X156330667Y-83148609D01*
X156208609Y-83270667D01*
X156065084Y-83366567D01*
X156065083Y-83366568D01*
X156065082Y-83366568D01*
X155905607Y-83432625D01*
X155736309Y-83466300D01*
X155563691Y-83466300D01*
X155394393Y-83432625D01*
X155234918Y-83366568D01*
X155234917Y-83366568D01*
X155234916Y-83366567D01*
X155091391Y-83270667D01*
X154969333Y-83148609D01*
X154873433Y-83005084D01*
X154850040Y-82948608D01*
X154807375Y-82845607D01*
X154773700Y-82676309D01*
X154773700Y-82503691D01*
X154807375Y-82334393D01*
X154873432Y-82174918D01*
X154900510Y-82134393D01*
X154969333Y-82031391D01*
X155091391Y-81909333D01*
X155234916Y-81813433D01*
X155234918Y-81813432D01*
X155394393Y-81747375D01*
X155563691Y-81713700D01*
X155736309Y-81713700D01*
X155905607Y-81747375D01*
X155905607Y-81747375D01*
G37*
G36*
X150825607Y-81747375D02*
G01*
X150985082Y-81813432D01*
X150985084Y-81813433D01*
X151128609Y-81909333D01*
X151250667Y-82031391D01*
X151319490Y-82134393D01*
X151346568Y-82174918D01*
X151412625Y-82334393D01*
X151446300Y-82503691D01*
X151446300Y-82676309D01*
X151412625Y-82845607D01*
X151369960Y-82948608D01*
X151346567Y-83005084D01*
X151250667Y-83148609D01*
X151128609Y-83270667D01*
X150985084Y-83366567D01*
X150985083Y-83366568D01*
X150985082Y-83366568D01*
X150825607Y-83432625D01*
X150656309Y-83466300D01*
X150483691Y-83466300D01*
X150314393Y-83432625D01*
X150154918Y-83366568D01*
X150154917Y-83366568D01*
X150154916Y-83366567D01*
X150011391Y-83270667D01*
X149889333Y-83148609D01*
X149793433Y-83005084D01*
X149770040Y-82948608D01*
X149727375Y-82845607D01*
X149693700Y-82676309D01*
X149693700Y-82503691D01*
X149727375Y-82334393D01*
X149793432Y-82174918D01*
X149820510Y-82134393D01*
X149889333Y-82031391D01*
X150011391Y-81909333D01*
X150154916Y-81813433D01*
X150154918Y-81813432D01*
X150314393Y-81747375D01*
X150483691Y-81713700D01*
X150656309Y-81713700D01*
X150825607Y-81747375D01*
X150825607Y-81747375D01*
G37*
G36*
X160985607Y-81747375D02*
G01*
X161145082Y-81813432D01*
X161145084Y-81813433D01*
X161288609Y-81909333D01*
X161410667Y-82031391D01*
X161479490Y-82134393D01*
X161506568Y-82174918D01*
X161572625Y-82334393D01*
X161606300Y-82503691D01*
X161606300Y-82676309D01*
X161572625Y-82845607D01*
X161529960Y-82948608D01*
X161506567Y-83005084D01*
X161410667Y-83148609D01*
X161288609Y-83270667D01*
X161145084Y-83366567D01*
X161145083Y-83366568D01*
X161145082Y-83366568D01*
X160985607Y-83432625D01*
X160816309Y-83466300D01*
X160643691Y-83466300D01*
X160474393Y-83432625D01*
X160314918Y-83366568D01*
X160314917Y-83366568D01*
X160314916Y-83366567D01*
X160171391Y-83270667D01*
X160049333Y-83148609D01*
X159953433Y-83005084D01*
X159930040Y-82948608D01*
X159887375Y-82845607D01*
X159853700Y-82676309D01*
X159853700Y-82503691D01*
X159887375Y-82334393D01*
X159953432Y-82174918D01*
X159980510Y-82134393D01*
X160049333Y-82031391D01*
X160171391Y-81909333D01*
X160314916Y-81813433D01*
X160314918Y-81813432D01*
X160474393Y-81747375D01*
X160643691Y-81713700D01*
X160816309Y-81713700D01*
X160985607Y-81747375D01*
X160985607Y-81747375D01*
G37*
G36*
X171145607Y-81747375D02*
G01*
X171305082Y-81813432D01*
X171305084Y-81813433D01*
X171448609Y-81909333D01*
X171570667Y-82031391D01*
X171639490Y-82134393D01*
X171666568Y-82174918D01*
X171732625Y-82334393D01*
X171766300Y-82503691D01*
X171766300Y-82676309D01*
X171732625Y-82845607D01*
X171689960Y-82948608D01*
X171666567Y-83005084D01*
X171570667Y-83148609D01*
X171448609Y-83270667D01*
X171305084Y-83366567D01*
X171305083Y-83366568D01*
X171305082Y-83366568D01*
X171145607Y-83432625D01*
X170976309Y-83466300D01*
X170803691Y-83466300D01*
X170634393Y-83432625D01*
X170474918Y-83366568D01*
X170474917Y-83366568D01*
X170474916Y-83366567D01*
X170331391Y-83270667D01*
X170209333Y-83148609D01*
X170113433Y-83005084D01*
X170090040Y-82948608D01*
X170047375Y-82845607D01*
X170013700Y-82676309D01*
X170013700Y-82503691D01*
X170047375Y-82334393D01*
X170113432Y-82174918D01*
X170140510Y-82134393D01*
X170209333Y-82031391D01*
X170331391Y-81909333D01*
X170474916Y-81813433D01*
X170474918Y-81813432D01*
X170634393Y-81747375D01*
X170803691Y-81713700D01*
X170976309Y-81713700D01*
X171145607Y-81747375D01*
X171145607Y-81747375D01*
G37*
G36*
X168605607Y-81747375D02*
G01*
X168765082Y-81813432D01*
X168765084Y-81813433D01*
X168908609Y-81909333D01*
X169030667Y-82031391D01*
X169099490Y-82134393D01*
X169126568Y-82174918D01*
X169192625Y-82334393D01*
X169226300Y-82503691D01*
X169226300Y-82676309D01*
X169192625Y-82845607D01*
X169149960Y-82948608D01*
X169126567Y-83005084D01*
X169030667Y-83148609D01*
X168908609Y-83270667D01*
X168765084Y-83366567D01*
X168765083Y-83366568D01*
X168765082Y-83366568D01*
X168605607Y-83432625D01*
X168436309Y-83466300D01*
X168263691Y-83466300D01*
X168094393Y-83432625D01*
X167934918Y-83366568D01*
X167934917Y-83366568D01*
X167934916Y-83366567D01*
X167791391Y-83270667D01*
X167669333Y-83148609D01*
X167573433Y-83005084D01*
X167550040Y-82948608D01*
X167507375Y-82845607D01*
X167473700Y-82676309D01*
X167473700Y-82503691D01*
X167507375Y-82334393D01*
X167573432Y-82174918D01*
X167600510Y-82134393D01*
X167669333Y-82031391D01*
X167791391Y-81909333D01*
X167934916Y-81813433D01*
X167934918Y-81813432D01*
X168094393Y-81747375D01*
X168263691Y-81713700D01*
X168436309Y-81713700D01*
X168605607Y-81747375D01*
X168605607Y-81747375D01*
G37*
G36*
X166065607Y-81747375D02*
G01*
X166225082Y-81813432D01*
X166225084Y-81813433D01*
X166368609Y-81909333D01*
X166490667Y-82031391D01*
X166559490Y-82134393D01*
X166586568Y-82174918D01*
X166652625Y-82334393D01*
X166686300Y-82503691D01*
X166686300Y-82676309D01*
X166652625Y-82845607D01*
X166609960Y-82948608D01*
X166586567Y-83005084D01*
X166490667Y-83148609D01*
X166368609Y-83270667D01*
X166225084Y-83366567D01*
X166225083Y-83366568D01*
X166225082Y-83366568D01*
X166065607Y-83432625D01*
X165896309Y-83466300D01*
X165723691Y-83466300D01*
X165554393Y-83432625D01*
X165394918Y-83366568D01*
X165394917Y-83366568D01*
X165394916Y-83366567D01*
X165251391Y-83270667D01*
X165129333Y-83148609D01*
X165033433Y-83005084D01*
X165010040Y-82948608D01*
X164967375Y-82845607D01*
X164933700Y-82676309D01*
X164933700Y-82503691D01*
X164967375Y-82334393D01*
X165033432Y-82174918D01*
X165060510Y-82134393D01*
X165129333Y-82031391D01*
X165251391Y-81909333D01*
X165394916Y-81813433D01*
X165394918Y-81813432D01*
X165554393Y-81747375D01*
X165723691Y-81713700D01*
X165896309Y-81713700D01*
X166065607Y-81747375D01*
X166065607Y-81747375D01*
G37*
G36*
X163525607Y-81747375D02*
G01*
X163685082Y-81813432D01*
X163685084Y-81813433D01*
X163828609Y-81909333D01*
X163950667Y-82031391D01*
X164019490Y-82134393D01*
X164046568Y-82174918D01*
X164112625Y-82334393D01*
X164146300Y-82503691D01*
X164146300Y-82676309D01*
X164112625Y-82845607D01*
X164069960Y-82948608D01*
X164046567Y-83005084D01*
X163950667Y-83148609D01*
X163828609Y-83270667D01*
X163685084Y-83366567D01*
X163685083Y-83366568D01*
X163685082Y-83366568D01*
X163525607Y-83432625D01*
X163356309Y-83466300D01*
X163183691Y-83466300D01*
X163014393Y-83432625D01*
X162854918Y-83366568D01*
X162854917Y-83366568D01*
X162854916Y-83366567D01*
X162711391Y-83270667D01*
X162589333Y-83148609D01*
X162493433Y-83005084D01*
X162470040Y-82948608D01*
X162427375Y-82845607D01*
X162393700Y-82676309D01*
X162393700Y-82503691D01*
X162427375Y-82334393D01*
X162493432Y-82174918D01*
X162520510Y-82134393D01*
X162589333Y-82031391D01*
X162711391Y-81909333D01*
X162854916Y-81813433D01*
X162854918Y-81813432D01*
X163014393Y-81747375D01*
X163183691Y-81713700D01*
X163356309Y-81713700D01*
X163525607Y-81747375D01*
X163525607Y-81747375D01*
G37*
G36*
X158445607Y-81747375D02*
G01*
X158605082Y-81813432D01*
X158605084Y-81813433D01*
X158748609Y-81909333D01*
X158870667Y-82031391D01*
X158939490Y-82134393D01*
X158966568Y-82174918D01*
X159032625Y-82334393D01*
X159066300Y-82503691D01*
X159066300Y-82676309D01*
X159032625Y-82845607D01*
X158989960Y-82948608D01*
X158966567Y-83005084D01*
X158870667Y-83148609D01*
X158748609Y-83270667D01*
X158605084Y-83366567D01*
X158605083Y-83366568D01*
X158605082Y-83366568D01*
X158445607Y-83432625D01*
X158276309Y-83466300D01*
X158103691Y-83466300D01*
X157934393Y-83432625D01*
X157774918Y-83366568D01*
X157774917Y-83366568D01*
X157774916Y-83366567D01*
X157631391Y-83270667D01*
X157509333Y-83148609D01*
X157413433Y-83005084D01*
X157390040Y-82948608D01*
X157347375Y-82845607D01*
X157313700Y-82676309D01*
X157313700Y-82503691D01*
X157347375Y-82334393D01*
X157413432Y-82174918D01*
X157440510Y-82134393D01*
X157509333Y-82031391D01*
X157631391Y-81909333D01*
X157774916Y-81813433D01*
X157774918Y-81813432D01*
X157934393Y-81747375D01*
X158103691Y-81713700D01*
X158276309Y-81713700D01*
X158445607Y-81747375D01*
X158445607Y-81747375D01*
G37*
G36*
X127035607Y-81547375D02*
G01*
X127195082Y-81613432D01*
X127195084Y-81613433D01*
X127338609Y-81709333D01*
X127460667Y-81831391D01*
X127512746Y-81909333D01*
X127556568Y-81974918D01*
X127622625Y-82134393D01*
X127656300Y-82303691D01*
X127656300Y-82476309D01*
X127622625Y-82645607D01*
X127556568Y-82805082D01*
X127556567Y-82805084D01*
X127460667Y-82948609D01*
X127338609Y-83070667D01*
X127195084Y-83166567D01*
X127195083Y-83166568D01*
X127195082Y-83166568D01*
X127035607Y-83232625D01*
X126866309Y-83266300D01*
X126693691Y-83266300D01*
X126524393Y-83232625D01*
X126364918Y-83166568D01*
X126364917Y-83166568D01*
X126364916Y-83166567D01*
X126221391Y-83070667D01*
X126099333Y-82948609D01*
X126003433Y-82805084D01*
X126003432Y-82805082D01*
X125937375Y-82645607D01*
X125903700Y-82476309D01*
X125903700Y-82303691D01*
X125937375Y-82134393D01*
X126003432Y-81974918D01*
X126047254Y-81909333D01*
X126099333Y-81831391D01*
X126221391Y-81709333D01*
X126364916Y-81613433D01*
X126364918Y-81613432D01*
X126524393Y-81547375D01*
X126693691Y-81513700D01*
X126866309Y-81513700D01*
X127035607Y-81547375D01*
X127035607Y-81547375D01*
G37*
G36*
X139735607Y-81547375D02*
G01*
X139895082Y-81613432D01*
X139895084Y-81613433D01*
X140038609Y-81709333D01*
X140160667Y-81831391D01*
X140212746Y-81909333D01*
X140256568Y-81974918D01*
X140322625Y-82134393D01*
X140356300Y-82303691D01*
X140356300Y-82476309D01*
X140322625Y-82645607D01*
X140256568Y-82805082D01*
X140256567Y-82805084D01*
X140160667Y-82948609D01*
X140038609Y-83070667D01*
X139895084Y-83166567D01*
X139895083Y-83166568D01*
X139895082Y-83166568D01*
X139735607Y-83232625D01*
X139566309Y-83266300D01*
X139393691Y-83266300D01*
X139224393Y-83232625D01*
X139064918Y-83166568D01*
X139064917Y-83166568D01*
X139064916Y-83166567D01*
X138921391Y-83070667D01*
X138799333Y-82948609D01*
X138703433Y-82805084D01*
X138703432Y-82805082D01*
X138637375Y-82645607D01*
X138603700Y-82476309D01*
X138603700Y-82303691D01*
X138637375Y-82134393D01*
X138703432Y-81974918D01*
X138747254Y-81909333D01*
X138799333Y-81831391D01*
X138921391Y-81709333D01*
X139064916Y-81613433D01*
X139064918Y-81613432D01*
X139224393Y-81547375D01*
X139393691Y-81513700D01*
X139566309Y-81513700D01*
X139735607Y-81547375D01*
X139735607Y-81547375D01*
G37*
G36*
X137195607Y-81547375D02*
G01*
X137355082Y-81613432D01*
X137355084Y-81613433D01*
X137498609Y-81709333D01*
X137620667Y-81831391D01*
X137672746Y-81909333D01*
X137716568Y-81974918D01*
X137782625Y-82134393D01*
X137816300Y-82303691D01*
X137816300Y-82476309D01*
X137782625Y-82645607D01*
X137716568Y-82805082D01*
X137716567Y-82805084D01*
X137620667Y-82948609D01*
X137498609Y-83070667D01*
X137355084Y-83166567D01*
X137355083Y-83166568D01*
X137355082Y-83166568D01*
X137195607Y-83232625D01*
X137026309Y-83266300D01*
X136853691Y-83266300D01*
X136684393Y-83232625D01*
X136524918Y-83166568D01*
X136524917Y-83166568D01*
X136524916Y-83166567D01*
X136381391Y-83070667D01*
X136259333Y-82948609D01*
X136163433Y-82805084D01*
X136163432Y-82805082D01*
X136097375Y-82645607D01*
X136063700Y-82476309D01*
X136063700Y-82303691D01*
X136097375Y-82134393D01*
X136163432Y-81974918D01*
X136207254Y-81909333D01*
X136259333Y-81831391D01*
X136381391Y-81709333D01*
X136524916Y-81613433D01*
X136524918Y-81613432D01*
X136684393Y-81547375D01*
X136853691Y-81513700D01*
X137026309Y-81513700D01*
X137195607Y-81547375D01*
X137195607Y-81547375D01*
G37*
G36*
X134655607Y-81547375D02*
G01*
X134815082Y-81613432D01*
X134815084Y-81613433D01*
X134958609Y-81709333D01*
X135080667Y-81831391D01*
X135132746Y-81909333D01*
X135176568Y-81974918D01*
X135242625Y-82134393D01*
X135276300Y-82303691D01*
X135276300Y-82476309D01*
X135242625Y-82645607D01*
X135176568Y-82805082D01*
X135176567Y-82805084D01*
X135080667Y-82948609D01*
X134958609Y-83070667D01*
X134815084Y-83166567D01*
X134815083Y-83166568D01*
X134815082Y-83166568D01*
X134655607Y-83232625D01*
X134486309Y-83266300D01*
X134313691Y-83266300D01*
X134144393Y-83232625D01*
X133984918Y-83166568D01*
X133984917Y-83166568D01*
X133984916Y-83166567D01*
X133841391Y-83070667D01*
X133719333Y-82948609D01*
X133623433Y-82805084D01*
X133623432Y-82805082D01*
X133557375Y-82645607D01*
X133523700Y-82476309D01*
X133523700Y-82303691D01*
X133557375Y-82134393D01*
X133623432Y-81974918D01*
X133667254Y-81909333D01*
X133719333Y-81831391D01*
X133841391Y-81709333D01*
X133984916Y-81613433D01*
X133984918Y-81613432D01*
X134144393Y-81547375D01*
X134313691Y-81513700D01*
X134486309Y-81513700D01*
X134655607Y-81547375D01*
X134655607Y-81547375D01*
G37*
G36*
X132115607Y-81547375D02*
G01*
X132275082Y-81613432D01*
X132275084Y-81613433D01*
X132418609Y-81709333D01*
X132540667Y-81831391D01*
X132592746Y-81909333D01*
X132636568Y-81974918D01*
X132702625Y-82134393D01*
X132736300Y-82303691D01*
X132736300Y-82476309D01*
X132702625Y-82645607D01*
X132636568Y-82805082D01*
X132636567Y-82805084D01*
X132540667Y-82948609D01*
X132418609Y-83070667D01*
X132275084Y-83166567D01*
X132275083Y-83166568D01*
X132275082Y-83166568D01*
X132115607Y-83232625D01*
X131946309Y-83266300D01*
X131773691Y-83266300D01*
X131604393Y-83232625D01*
X131444918Y-83166568D01*
X131444917Y-83166568D01*
X131444916Y-83166567D01*
X131301391Y-83070667D01*
X131179333Y-82948609D01*
X131083433Y-82805084D01*
X131083432Y-82805082D01*
X131017375Y-82645607D01*
X130983700Y-82476309D01*
X130983700Y-82303691D01*
X131017375Y-82134393D01*
X131083432Y-81974918D01*
X131127254Y-81909333D01*
X131179333Y-81831391D01*
X131301391Y-81709333D01*
X131444916Y-81613433D01*
X131444918Y-81613432D01*
X131604393Y-81547375D01*
X131773691Y-81513700D01*
X131946309Y-81513700D01*
X132115607Y-81547375D01*
X132115607Y-81547375D01*
G37*
G36*
X129575607Y-81547375D02*
G01*
X129735082Y-81613432D01*
X129735084Y-81613433D01*
X129878609Y-81709333D01*
X130000667Y-81831391D01*
X130052746Y-81909333D01*
X130096568Y-81974918D01*
X130162625Y-82134393D01*
X130196300Y-82303691D01*
X130196300Y-82476309D01*
X130162625Y-82645607D01*
X130096568Y-82805082D01*
X130096567Y-82805084D01*
X130000667Y-82948609D01*
X129878609Y-83070667D01*
X129735084Y-83166567D01*
X129735083Y-83166568D01*
X129735082Y-83166568D01*
X129575607Y-83232625D01*
X129406309Y-83266300D01*
X129233691Y-83266300D01*
X129064393Y-83232625D01*
X128904918Y-83166568D01*
X128904917Y-83166568D01*
X128904916Y-83166567D01*
X128761391Y-83070667D01*
X128639333Y-82948609D01*
X128543433Y-82805084D01*
X128543432Y-82805082D01*
X128477375Y-82645607D01*
X128443700Y-82476309D01*
X128443700Y-82303691D01*
X128477375Y-82134393D01*
X128543432Y-81974918D01*
X128587254Y-81909333D01*
X128639333Y-81831391D01*
X128761391Y-81709333D01*
X128904916Y-81613433D01*
X128904918Y-81613432D01*
X129064393Y-81547375D01*
X129233691Y-81513700D01*
X129406309Y-81513700D01*
X129575607Y-81547375D01*
X129575607Y-81547375D01*
G37*
G36*
X142275607Y-81547375D02*
G01*
X142435082Y-81613432D01*
X142435084Y-81613433D01*
X142578609Y-81709333D01*
X142700667Y-81831391D01*
X142752746Y-81909333D01*
X142796568Y-81974918D01*
X142862625Y-82134393D01*
X142896300Y-82303691D01*
X142896300Y-82476309D01*
X142862625Y-82645607D01*
X142796568Y-82805082D01*
X142796567Y-82805084D01*
X142700667Y-82948609D01*
X142578609Y-83070667D01*
X142435084Y-83166567D01*
X142435083Y-83166568D01*
X142435082Y-83166568D01*
X142275607Y-83232625D01*
X142106309Y-83266300D01*
X141933691Y-83266300D01*
X141764393Y-83232625D01*
X141604918Y-83166568D01*
X141604917Y-83166568D01*
X141604916Y-83166567D01*
X141461391Y-83070667D01*
X141339333Y-82948609D01*
X141243433Y-82805084D01*
X141243432Y-82805082D01*
X141177375Y-82645607D01*
X141143700Y-82476309D01*
X141143700Y-82303691D01*
X141177375Y-82134393D01*
X141243432Y-81974918D01*
X141287254Y-81909333D01*
X141339333Y-81831391D01*
X141461391Y-81709333D01*
X141604916Y-81613433D01*
X141604918Y-81613432D01*
X141764393Y-81547375D01*
X141933691Y-81513700D01*
X142106309Y-81513700D01*
X142275607Y-81547375D01*
X142275607Y-81547375D01*
G37*
G36*
X167043004Y-67161912D02*
G01*
X167253328Y-67249031D01*
X167253329Y-67249032D01*
X167442616Y-67375509D01*
X167603591Y-67536484D01*
X167658255Y-67618295D01*
X167730069Y-67725772D01*
X167817188Y-67936096D01*
X167861600Y-68159372D01*
X167861600Y-68387028D01*
X167817188Y-68610304D01*
X167730069Y-68820628D01*
X167730068Y-68820629D01*
X167603591Y-69009916D01*
X167442616Y-69170891D01*
X167347330Y-69234559D01*
X167253328Y-69297369D01*
X167043004Y-69384488D01*
X166819728Y-69428900D01*
X166592072Y-69428900D01*
X166368796Y-69384488D01*
X166158472Y-69297369D01*
X166064470Y-69234559D01*
X165969184Y-69170891D01*
X165808209Y-69009916D01*
X165681732Y-68820629D01*
X165681731Y-68820628D01*
X165594612Y-68610304D01*
X165550200Y-68387028D01*
X165550200Y-68159372D01*
X165594612Y-67936096D01*
X165681731Y-67725772D01*
X165753545Y-67618295D01*
X165808209Y-67536484D01*
X165969184Y-67375509D01*
X166158471Y-67249032D01*
X166158472Y-67249031D01*
X166368796Y-67161912D01*
X166592072Y-67117500D01*
X166819728Y-67117500D01*
X167043004Y-67161912D01*
X167043004Y-67161912D01*
G37*
G36*
X174053404Y-67161912D02*
G01*
X174263728Y-67249031D01*
X174263729Y-67249032D01*
X174453016Y-67375509D01*
X174613991Y-67536484D01*
X174668655Y-67618295D01*
X174740469Y-67725772D01*
X174827588Y-67936096D01*
X174872000Y-68159372D01*
X174872000Y-68387028D01*
X174827588Y-68610304D01*
X174740469Y-68820628D01*
X174740468Y-68820629D01*
X174613991Y-69009916D01*
X174453016Y-69170891D01*
X174357730Y-69234559D01*
X174263728Y-69297369D01*
X174053404Y-69384488D01*
X173830128Y-69428900D01*
X173602472Y-69428900D01*
X173379196Y-69384488D01*
X173168872Y-69297369D01*
X173074870Y-69234559D01*
X172979584Y-69170891D01*
X172818609Y-69009916D01*
X172692132Y-68820629D01*
X172692131Y-68820628D01*
X172605012Y-68610304D01*
X172560600Y-68387028D01*
X172560600Y-68159372D01*
X172605012Y-67936096D01*
X172692131Y-67725772D01*
X172763945Y-67618295D01*
X172818609Y-67536484D01*
X172979584Y-67375509D01*
X173168871Y-67249032D01*
X173168872Y-67249031D01*
X173379196Y-67161912D01*
X173602472Y-67117500D01*
X173830128Y-67117500D01*
X174053404Y-67161912D01*
X174053404Y-67161912D01*
G37*
G36*
X125424355Y-65312793D02*
G01*
X125498570Y-65335306D01*
X125572783Y-65357818D01*
X125572785Y-65357819D01*
X125709571Y-65430933D01*
X125829470Y-65529330D01*
X125927867Y-65649229D01*
X126000981Y-65786015D01*
X126046007Y-65934445D01*
X126057400Y-66050123D01*
X126057400Y-67549877D01*
X126046007Y-67665555D01*
X126000981Y-67813985D01*
X125927867Y-67950771D01*
X125829470Y-68070669D01*
X125709570Y-68169067D01*
X125572784Y-68242181D01*
X125572782Y-68242182D01*
X125498569Y-68264694D01*
X125424354Y-68287207D01*
X125270000Y-68302409D01*
X125115645Y-68287207D01*
X125041430Y-68264694D01*
X124967217Y-68242182D01*
X124967215Y-68242181D01*
X124830429Y-68169067D01*
X124710531Y-68070670D01*
X124612133Y-67950770D01*
X124539019Y-67813984D01*
X124493993Y-67665554D01*
X124482600Y-67549876D01*
X124482601Y-66050123D01*
X124493994Y-65934445D01*
X124539020Y-65786015D01*
X124612134Y-65649229D01*
X124710531Y-65529330D01*
X124830430Y-65430933D01*
X124967216Y-65357819D01*
X124967218Y-65357818D01*
X125041431Y-65335306D01*
X125115646Y-65312793D01*
X125270000Y-65297591D01*
X125424355Y-65312793D01*
X125424355Y-65312793D01*
G37*
G36*
X122884355Y-65312793D02*
G01*
X122958570Y-65335306D01*
X123032783Y-65357818D01*
X123032785Y-65357819D01*
X123169571Y-65430933D01*
X123289470Y-65529330D01*
X123387867Y-65649229D01*
X123460981Y-65786015D01*
X123506007Y-65934445D01*
X123517400Y-66050123D01*
X123517400Y-67549877D01*
X123506007Y-67665555D01*
X123460981Y-67813985D01*
X123387867Y-67950771D01*
X123289470Y-68070669D01*
X123169570Y-68169067D01*
X123032784Y-68242181D01*
X123032782Y-68242182D01*
X122958569Y-68264694D01*
X122884354Y-68287207D01*
X122730000Y-68302409D01*
X122575645Y-68287207D01*
X122501430Y-68264694D01*
X122427217Y-68242182D01*
X122427215Y-68242181D01*
X122290429Y-68169067D01*
X122170531Y-68070670D01*
X122072133Y-67950770D01*
X121999019Y-67813984D01*
X121953993Y-67665554D01*
X121942600Y-67549876D01*
X121942601Y-66050123D01*
X121953994Y-65934445D01*
X121999020Y-65786015D01*
X122072134Y-65649229D01*
X122170531Y-65529330D01*
X122290430Y-65430933D01*
X122427216Y-65357819D01*
X122427218Y-65357818D01*
X122501431Y-65335306D01*
X122575646Y-65312793D01*
X122730000Y-65297591D01*
X122884355Y-65312793D01*
X122884355Y-65312793D01*
G37*
G36*
X148448228Y-65981703D02*
G01*
X148603100Y-66045853D01*
X148742481Y-66138985D01*
X148861015Y-66257519D01*
X148954147Y-66396900D01*
X149018297Y-66551772D01*
X149051000Y-66716184D01*
X149051000Y-66883816D01*
X149018297Y-67048228D01*
X148954147Y-67203100D01*
X148861015Y-67342481D01*
X148742481Y-67461015D01*
X148603100Y-67554147D01*
X148448228Y-67618297D01*
X148283816Y-67651000D01*
X148116184Y-67651000D01*
X147951772Y-67618297D01*
X147796900Y-67554147D01*
X147657519Y-67461015D01*
X147538985Y-67342481D01*
X147445853Y-67203100D01*
X147381703Y-67048228D01*
X147349000Y-66883816D01*
X147349000Y-66716184D01*
X147381703Y-66551772D01*
X147445853Y-66396900D01*
X147538985Y-66257519D01*
X147657519Y-66138985D01*
X147796900Y-66045853D01*
X147951772Y-65981703D01*
X148116184Y-65949000D01*
X148283816Y-65949000D01*
X148448228Y-65981703D01*
X148448228Y-65981703D01*
G37*
G36*
X143448228Y-65981703D02*
G01*
X143603100Y-66045853D01*
X143742481Y-66138985D01*
X143861015Y-66257519D01*
X143954147Y-66396900D01*
X144018297Y-66551772D01*
X144051000Y-66716184D01*
X144051000Y-66883816D01*
X144018297Y-67048228D01*
X143954147Y-67203100D01*
X143861015Y-67342481D01*
X143742481Y-67461015D01*
X143603100Y-67554147D01*
X143448228Y-67618297D01*
X143283816Y-67651000D01*
X143116184Y-67651000D01*
X142951772Y-67618297D01*
X142796900Y-67554147D01*
X142657519Y-67461015D01*
X142538985Y-67342481D01*
X142445853Y-67203100D01*
X142381703Y-67048228D01*
X142349000Y-66883816D01*
X142349000Y-66716184D01*
X142381703Y-66551772D01*
X142445853Y-66396900D01*
X142538985Y-66257519D01*
X142657519Y-66138985D01*
X142796900Y-66045853D01*
X142951772Y-65981703D01*
X143116184Y-65949000D01*
X143283816Y-65949000D01*
X143448228Y-65981703D01*
X143448228Y-65981703D01*
G37*
G36*
X129419059Y-66077860D02*
G01*
X129479294Y-66102810D01*
X129555732Y-66134472D01*
X129678735Y-66216660D01*
X129783340Y-66321265D01*
X129865528Y-66444268D01*
X129922140Y-66580941D01*
X129951000Y-66726033D01*
X129951000Y-66873967D01*
X129922140Y-67019059D01*
X129865528Y-67155732D01*
X129783340Y-67278735D01*
X129678735Y-67383340D01*
X129555732Y-67465528D01*
X129555731Y-67465529D01*
X129555730Y-67465529D01*
X129419059Y-67522140D01*
X129273968Y-67551000D01*
X129126032Y-67551000D01*
X128980941Y-67522140D01*
X128844270Y-67465529D01*
X128844269Y-67465529D01*
X128844268Y-67465528D01*
X128721265Y-67383340D01*
X128616660Y-67278735D01*
X128534472Y-67155732D01*
X128477860Y-67019059D01*
X128449000Y-66873967D01*
X128449000Y-66726033D01*
X128477860Y-66580941D01*
X128534472Y-66444268D01*
X128616660Y-66321265D01*
X128721265Y-66216660D01*
X128844268Y-66134472D01*
X128920707Y-66102810D01*
X128980941Y-66077860D01*
X129126032Y-66049000D01*
X129273968Y-66049000D01*
X129419059Y-66077860D01*
X129419059Y-66077860D01*
G37*
G36*
X136868330Y-66050127D02*
G01*
X136967222Y-66059867D01*
X137108786Y-66102810D01*
X137239252Y-66172546D01*
X137269040Y-66196992D01*
X137353607Y-66266393D01*
X137423008Y-66350960D01*
X137447454Y-66380748D01*
X137517190Y-66511214D01*
X137560133Y-66652778D01*
X137574633Y-66800000D01*
X137560133Y-66947222D01*
X137517190Y-67088786D01*
X137447454Y-67219252D01*
X137423015Y-67249031D01*
X137353607Y-67333607D01*
X137293004Y-67383341D01*
X137239252Y-67427454D01*
X137108786Y-67497190D01*
X136967222Y-67540133D01*
X136893665Y-67547378D01*
X136856888Y-67551000D01*
X136783112Y-67551000D01*
X136746335Y-67547378D01*
X136672778Y-67540133D01*
X136531214Y-67497190D01*
X136400748Y-67427454D01*
X136346996Y-67383341D01*
X136286393Y-67333607D01*
X136216985Y-67249031D01*
X136192546Y-67219252D01*
X136122810Y-67088786D01*
X136079867Y-66947222D01*
X136065367Y-66800000D01*
X136079867Y-66652778D01*
X136122810Y-66511214D01*
X136192546Y-66380748D01*
X136216992Y-66350960D01*
X136286393Y-66266393D01*
X136370960Y-66196992D01*
X136400748Y-66172546D01*
X136531214Y-66102810D01*
X136672778Y-66059867D01*
X136771670Y-66050127D01*
X136783112Y-66049000D01*
X136856888Y-66049000D01*
X136868330Y-66050127D01*
X136868330Y-66050127D01*
G37*
G36*
X168114025Y-64961905D02*
G01*
X168194994Y-64978011D01*
X168271265Y-65009604D01*
X168347538Y-65041197D01*
X168483897Y-65132309D01*
X168484822Y-65132927D01*
X168601573Y-65249678D01*
X168601575Y-65249681D01*
X168693303Y-65386962D01*
X168693303Y-65386963D01*
X168756489Y-65539506D01*
X168788700Y-65701444D01*
X168788700Y-65866556D01*
X168756489Y-66028494D01*
X168747995Y-66049000D01*
X168693303Y-66181038D01*
X168669501Y-66216660D01*
X168601573Y-66318322D01*
X168484822Y-66435073D01*
X168484819Y-66435075D01*
X168347538Y-66526803D01*
X168287260Y-66551771D01*
X168194994Y-66589989D01*
X168114025Y-66606095D01*
X168033057Y-66622200D01*
X167867943Y-66622200D01*
X167786975Y-66606095D01*
X167706006Y-66589989D01*
X167613740Y-66551771D01*
X167553462Y-66526803D01*
X167416181Y-66435075D01*
X167416178Y-66435073D01*
X167299427Y-66318322D01*
X167231499Y-66216660D01*
X167207697Y-66181038D01*
X167153005Y-66049000D01*
X167144511Y-66028494D01*
X167112300Y-65866556D01*
X167112300Y-65701444D01*
X167144511Y-65539506D01*
X167207697Y-65386963D01*
X167207697Y-65386962D01*
X167299425Y-65249681D01*
X167299427Y-65249678D01*
X167416178Y-65132927D01*
X167417103Y-65132309D01*
X167553462Y-65041197D01*
X167629735Y-65009604D01*
X167706006Y-64978011D01*
X167786975Y-64961905D01*
X167867943Y-64945800D01*
X168033057Y-64945800D01*
X168114025Y-64961905D01*
X168114025Y-64961905D01*
G37*
G36*
X172635225Y-64961905D02*
G01*
X172716194Y-64978011D01*
X172792465Y-65009604D01*
X172868738Y-65041197D01*
X173005097Y-65132309D01*
X173006022Y-65132927D01*
X173122773Y-65249678D01*
X173122775Y-65249681D01*
X173214503Y-65386962D01*
X173214503Y-65386963D01*
X173277689Y-65539506D01*
X173309900Y-65701444D01*
X173309900Y-65866556D01*
X173277689Y-66028494D01*
X173269195Y-66049000D01*
X173214503Y-66181038D01*
X173190701Y-66216660D01*
X173122773Y-66318322D01*
X173006022Y-66435073D01*
X173006019Y-66435075D01*
X172868738Y-66526803D01*
X172808460Y-66551771D01*
X172716194Y-66589989D01*
X172635225Y-66606095D01*
X172554257Y-66622200D01*
X172389143Y-66622200D01*
X172308175Y-66606095D01*
X172227206Y-66589989D01*
X172134940Y-66551771D01*
X172074662Y-66526803D01*
X171937381Y-66435075D01*
X171937378Y-66435073D01*
X171820627Y-66318322D01*
X171752699Y-66216660D01*
X171728897Y-66181038D01*
X171674205Y-66049000D01*
X171665711Y-66028494D01*
X171633500Y-65866556D01*
X171633500Y-65701444D01*
X171665711Y-65539506D01*
X171728897Y-65386963D01*
X171728897Y-65386962D01*
X171820625Y-65249681D01*
X171820627Y-65249678D01*
X171937378Y-65132927D01*
X171938303Y-65132309D01*
X172074662Y-65041197D01*
X172150935Y-65009604D01*
X172227206Y-64978011D01*
X172308175Y-64961905D01*
X172389143Y-64945800D01*
X172554257Y-64945800D01*
X172635225Y-64961905D01*
X172635225Y-64961905D01*
G37*
M02*
